M48
; DRILL file {KiCad 6.0.11-2627ca5db0~126~ubuntu20.04.1} date vie 01 sep 2023 18:57:05
; FORMAT={-:-/ absolute / metric / decimal}
; #@! TF.CreationDate,2023-09-01T18:57:05-05:00
; #@! TF.GenerationSoftware,Kicad,Pcbnew,6.0.11-2627ca5db0~126~ubuntu20.04.1
; #@! TF.FileFunction,Plated,1,2,PTH
FMAT,2
METRIC
; #@! TA.AperFunction,Plated,PTH,ViaDrill
T1C0.400
; #@! TA.AperFunction,Plated,PTH,ComponentDrill
T2C0.500
; #@! TA.AperFunction,Plated,PTH,ComponentDrill
T3C0.600
; #@! TA.AperFunction,Plated,PTH,ComponentDrill
T4C0.762
; #@! TA.AperFunction,Plated,PTH,ComponentDrill
T5C0.900
; #@! TA.AperFunction,Plated,PTH,ComponentDrill
T6C1.000
; #@! TA.AperFunction,Plated,PTH,ComponentDrill
T7C4.220
%
G90
G05
T1
X101.092Y-71.8
X101.2Y-69.088
X101.2Y-70.6
X101.3Y-73.0
X101.505Y-86.511
X101.905Y-101.749
X102.2Y-73.5
X102.2Y-74.8
X102.2Y-76.2
X102.616Y-68.3
X102.64Y-83.751
X103.1Y-77.6
X103.1Y-78.8
X104.3Y-79.6
X104.5Y-80.8
X104.5Y-82.0
X104.5Y-83.1
X104.648Y-68.3
X105.8Y-86.36
X105.9Y-67.516
X105.9Y-70.5
X105.9Y-71.8
X106.046Y-93.8
X106.6Y-85.6
X106.68Y-69.088
X106.772Y-141.286
X106.985Y-92.934
X107.0Y-66.5
X107.3Y-80.9
X107.3Y-82.1
X107.3Y-83.3
X107.3Y-84.5
X107.4Y-73.152
X107.4Y-74.676
X107.4Y-76.2
X107.6Y-71.8
X107.8Y-79.6
X108.228Y-68.072
X108.3Y-70.6
X108.7Y-78.8
X109.1Y-77.724
X109.22Y-69.596
X109.229Y-136.724
X110.058Y-86.919
X110.236Y-66.548
X111.0Y-69.7
X111.0Y-75.7
X111.0Y-76.9
X111.76Y-137.16
X112.2Y-69.7
X112.2Y-75.7
X112.486Y-107.42
X112.8Y-70.8
X112.8Y-72.0
X112.8Y-73.2
X112.8Y-74.4
X113.042Y-114.177
X114.214Y-148.873
X114.435Y-133.659
X116.667Y-122.824
X116.84Y-134.62
X116.909Y-86.1
X116.942Y-129.04
X116.945Y-140.822
X117.25Y-98.072
X117.957Y-123.448
X120.475Y-102.603
X120.65Y-123.19
X121.662Y-89.394
X121.92Y-148.5
X122.16Y-141.328
X125.816Y-137.063
X127.0Y-137.16
X128.27Y-127.492
X129.052Y-90.82
X129.115Y-93.793
X129.54Y-85.5
X129.54Y-139.7
X130.308Y-92.967
X130.592Y-125.948
X132.08Y-81.8
X132.08Y-134.62
X133.742Y-87.61
X134.3Y-71.641
X134.7Y-139.782
X134.75Y-144.65
X136.415Y-143.256
X137.534Y-132.943
X140.0Y-103.0
X140.716Y-98.552
X140.894Y-76.376
X141.009Y-87.137
X141.465Y-104.626
X142.24Y-126.3
X142.748Y-98.552
X143.278Y-72.336
X143.425Y-92.967
X143.85Y-69.107
X144.272Y-132.588
X144.288Y-71.273
X144.611Y-130.084
X144.75Y-148.077
X147.357Y-73.14
X147.64Y-85.87
X147.806Y-96.542
X148.247Y-75.84
X148.34Y-83.34
X148.4Y-128.3
X148.533Y-74.251
X148.577Y-94.974
X148.728Y-92.964
X149.053Y-134.955
X149.86Y-133.745
X150.876Y-101.092
X150.927Y-87.646
X151.194Y-97.854
X151.384Y-102.108
X151.87Y-103.873
X152.158Y-77.987
X152.161Y-76.524
X152.227Y-81.772
X152.4Y-138.43
X152.424Y-96.5
X152.55Y-148.077
X152.632Y-80.644
X152.944Y-70.649
X153.67Y-130.81
X153.691Y-80.656
X153.755Y-87.631
X154.94Y-128.27
X154.94Y-135.89
X154.94Y-148.5
X155.448Y-104.14
X156.45Y-72.065
X156.972Y-91.654
X157.25Y-100.118
X158.0Y-75.345
X158.75Y-138.43
X160.02Y-81.28
X160.02Y-114.3
X160.09Y-148.077
X160.364Y-71.306
X161.368Y-83.218
X161.624Y-78.45
X162.54Y-81.857
X162.56Y-73.66
X162.801Y-77.679
X163.124Y-80.213
X163.463Y-96.968
X163.775Y-80.972
X164.25Y-118.159
X164.268Y-79.839
X165.1Y-67.0
X165.651Y-78.222
X165.735Y-73.438
X165.896Y-80.129
X167.307Y-101.749
X167.64Y-88.9
X167.64Y-99.06
X168.0Y-148.5
X168.23Y-144.367
X169.245Y-67.547
X169.245Y-73.198
X169.245Y-80.862
X169.245Y-83.235
T2
X109.45Y-76.3
T4
X131.137Y-97.898
X133.677Y-97.898
X136.323Y-97.898
X138.863Y-97.898
T5
X114.92Y-72.6
X117.46Y-72.6
X120.0Y-72.6
T6
X131.19Y-77.458
X131.19Y-79.998
X133.73Y-77.458
X133.73Y-79.998
X136.27Y-77.458
X136.27Y-79.998
X138.81Y-77.458
X138.81Y-79.998
T7
X124.65Y-80.348
X124.65Y-103.548
X145.35Y-80.348
X145.35Y-103.548
T3
G00X130.68Y-142.116
M15
G01X130.68Y-143.216
M16
G05
G00X130.68Y-146.546
M15
G01X130.68Y-147.146
M16
G05
G00X139.32Y-142.116
M15
G01X139.32Y-143.216
M16
G05
G00X139.32Y-146.546
M15
G01X139.32Y-147.146
M16
G05
T0
M30
