G75*
G70*
%OFA0B0*%
%FSLAX24Y24*%
%IPPOS*%
%LPD*%
%AMOC8*
5,1,8,0,0,1.08239X$1,22.5*
%
%ADD10C,0.0000*%
%ADD11C,0.0040*%
%ADD12C,0.0030*%
%ADD13C,0.0050*%
D10*
X001351Y000101D02*
X022351Y000101D01*
X022011Y001221D02*
X022013Y001264D01*
X022019Y001306D01*
X022028Y001348D01*
X022042Y001388D01*
X022059Y001428D01*
X022079Y001465D01*
X022103Y001501D01*
X022130Y001534D01*
X022160Y001564D01*
X022193Y001592D01*
X022228Y001617D01*
X022265Y001638D01*
X022304Y001656D01*
X022344Y001671D01*
X022385Y001681D01*
X022428Y001688D01*
X022470Y001691D01*
X022513Y001690D01*
X022556Y001685D01*
X022597Y001676D01*
X022638Y001664D01*
X022678Y001648D01*
X022716Y001628D01*
X022752Y001605D01*
X022786Y001579D01*
X022817Y001550D01*
X022846Y001518D01*
X022871Y001483D01*
X022893Y001447D01*
X022912Y001408D01*
X022927Y001368D01*
X022939Y001327D01*
X022947Y001285D01*
X022951Y001242D01*
X022951Y001200D01*
X022947Y001157D01*
X022939Y001115D01*
X022927Y001074D01*
X022912Y001034D01*
X022893Y000995D01*
X022871Y000959D01*
X022846Y000924D01*
X022817Y000892D01*
X022786Y000863D01*
X022752Y000837D01*
X022716Y000814D01*
X022678Y000794D01*
X022638Y000778D01*
X022597Y000766D01*
X022556Y000757D01*
X022513Y000752D01*
X022470Y000751D01*
X022428Y000754D01*
X022385Y000761D01*
X022344Y000771D01*
X022304Y000786D01*
X022265Y000804D01*
X022228Y000825D01*
X022193Y000850D01*
X022160Y000878D01*
X022130Y000908D01*
X022103Y000941D01*
X022079Y000977D01*
X022059Y001014D01*
X022042Y001054D01*
X022028Y001094D01*
X022019Y001136D01*
X022013Y001178D01*
X022011Y001221D01*
X022351Y000101D02*
X022419Y000103D01*
X022486Y000108D01*
X022553Y000117D01*
X022620Y000130D01*
X022685Y000147D01*
X022750Y000166D01*
X022814Y000190D01*
X022876Y000217D01*
X022937Y000247D01*
X022995Y000280D01*
X023052Y000316D01*
X023107Y000356D01*
X023160Y000398D01*
X023211Y000444D01*
X023258Y000491D01*
X023304Y000542D01*
X023346Y000595D01*
X023386Y000650D01*
X023422Y000707D01*
X023455Y000765D01*
X023485Y000826D01*
X023512Y000888D01*
X023536Y000952D01*
X023555Y001017D01*
X023572Y001082D01*
X023585Y001149D01*
X023594Y001216D01*
X023599Y001283D01*
X023601Y001351D01*
X023601Y013201D01*
X022011Y013331D02*
X022013Y013374D01*
X022019Y013416D01*
X022028Y013458D01*
X022042Y013498D01*
X022059Y013538D01*
X022079Y013575D01*
X022103Y013611D01*
X022130Y013644D01*
X022160Y013674D01*
X022193Y013702D01*
X022228Y013727D01*
X022265Y013748D01*
X022304Y013766D01*
X022344Y013781D01*
X022385Y013791D01*
X022428Y013798D01*
X022470Y013801D01*
X022513Y013800D01*
X022556Y013795D01*
X022597Y013786D01*
X022638Y013774D01*
X022678Y013758D01*
X022716Y013738D01*
X022752Y013715D01*
X022786Y013689D01*
X022817Y013660D01*
X022846Y013628D01*
X022871Y013593D01*
X022893Y013557D01*
X022912Y013518D01*
X022927Y013478D01*
X022939Y013437D01*
X022947Y013395D01*
X022951Y013352D01*
X022951Y013310D01*
X022947Y013267D01*
X022939Y013225D01*
X022927Y013184D01*
X022912Y013144D01*
X022893Y013105D01*
X022871Y013069D01*
X022846Y013034D01*
X022817Y013002D01*
X022786Y012973D01*
X022752Y012947D01*
X022716Y012924D01*
X022678Y012904D01*
X022638Y012888D01*
X022597Y012876D01*
X022556Y012867D01*
X022513Y012862D01*
X022470Y012861D01*
X022428Y012864D01*
X022385Y012871D01*
X022344Y012881D01*
X022304Y012896D01*
X022265Y012914D01*
X022228Y012935D01*
X022193Y012960D01*
X022160Y012988D01*
X022130Y013018D01*
X022103Y013051D01*
X022079Y013087D01*
X022059Y013124D01*
X022042Y013164D01*
X022028Y013204D01*
X022019Y013246D01*
X022013Y013288D01*
X022011Y013331D01*
X022351Y014451D02*
X022419Y014449D01*
X022486Y014444D01*
X022553Y014435D01*
X022620Y014422D01*
X022685Y014405D01*
X022750Y014386D01*
X022814Y014362D01*
X022876Y014335D01*
X022937Y014305D01*
X022995Y014272D01*
X023052Y014236D01*
X023107Y014196D01*
X023160Y014154D01*
X023211Y014108D01*
X023258Y014061D01*
X023304Y014010D01*
X023346Y013957D01*
X023386Y013902D01*
X023422Y013845D01*
X023455Y013787D01*
X023485Y013726D01*
X023512Y013664D01*
X023536Y013600D01*
X023555Y013535D01*
X023572Y013470D01*
X023585Y013403D01*
X023594Y013336D01*
X023599Y013269D01*
X023601Y013201D01*
X022351Y014451D02*
X019101Y014451D01*
X019101Y006601D01*
X001351Y006601D01*
X001351Y005851D01*
X000601Y005851D01*
X000601Y005001D01*
X000101Y005001D01*
X000101Y001351D01*
X000103Y001283D01*
X000108Y001216D01*
X000117Y001149D01*
X000130Y001082D01*
X000147Y001017D01*
X000166Y000952D01*
X000190Y000888D01*
X000217Y000826D01*
X000247Y000765D01*
X000280Y000707D01*
X000316Y000650D01*
X000356Y000595D01*
X000398Y000542D01*
X000444Y000491D01*
X000491Y000444D01*
X000542Y000398D01*
X000595Y000356D01*
X000650Y000316D01*
X000707Y000280D01*
X000765Y000247D01*
X000826Y000217D01*
X000888Y000190D01*
X000952Y000166D01*
X001017Y000147D01*
X001082Y000130D01*
X001149Y000117D01*
X001216Y000108D01*
X001283Y000103D01*
X001351Y000101D01*
X002101Y005351D02*
X002103Y005394D01*
X002109Y005436D01*
X002118Y005478D01*
X002132Y005518D01*
X002149Y005558D01*
X002169Y005595D01*
X002193Y005631D01*
X002220Y005664D01*
X002250Y005694D01*
X002283Y005722D01*
X002318Y005747D01*
X002355Y005768D01*
X002394Y005786D01*
X002434Y005801D01*
X002475Y005811D01*
X002518Y005818D01*
X002560Y005821D01*
X002603Y005820D01*
X002646Y005815D01*
X002687Y005806D01*
X002728Y005794D01*
X002768Y005778D01*
X002806Y005758D01*
X002842Y005735D01*
X002876Y005709D01*
X002907Y005680D01*
X002936Y005648D01*
X002961Y005613D01*
X002983Y005577D01*
X003002Y005538D01*
X003017Y005498D01*
X003029Y005457D01*
X003037Y005415D01*
X003041Y005372D01*
X003041Y005330D01*
X003037Y005287D01*
X003029Y005245D01*
X003017Y005204D01*
X003002Y005164D01*
X002983Y005125D01*
X002961Y005089D01*
X002936Y005054D01*
X002907Y005022D01*
X002876Y004993D01*
X002842Y004967D01*
X002806Y004944D01*
X002768Y004924D01*
X002728Y004908D01*
X002687Y004896D01*
X002646Y004887D01*
X002603Y004882D01*
X002560Y004881D01*
X002518Y004884D01*
X002475Y004891D01*
X002434Y004901D01*
X002394Y004916D01*
X002355Y004934D01*
X002318Y004955D01*
X002283Y004980D01*
X002250Y005008D01*
X002220Y005038D01*
X002193Y005071D01*
X002169Y005107D01*
X002149Y005144D01*
X002132Y005184D01*
X002118Y005224D01*
X002109Y005266D01*
X002103Y005308D01*
X002101Y005351D01*
D11*
X003371Y005178D02*
X003371Y004871D01*
X003371Y005024D02*
X003524Y005178D01*
X003601Y005178D01*
X003754Y005101D02*
X003831Y005178D01*
X003985Y005178D01*
X004061Y005101D01*
X004061Y005024D01*
X003754Y005024D01*
X003754Y004947D02*
X003754Y005101D01*
X003754Y004947D02*
X003831Y004871D01*
X003985Y004871D01*
X004215Y004947D02*
X004291Y004871D01*
X004522Y004871D01*
X004675Y004947D02*
X004675Y005101D01*
X004752Y005178D01*
X004905Y005178D01*
X004982Y005101D01*
X004982Y005024D01*
X004675Y005024D01*
X004675Y004947D02*
X004752Y004871D01*
X004905Y004871D01*
X004829Y004658D02*
X004829Y004581D01*
X004829Y004428D02*
X004829Y004044D01*
X004752Y003967D01*
X004675Y003967D01*
X004445Y004121D02*
X004522Y004197D01*
X004522Y004351D01*
X004445Y004428D01*
X004291Y004428D01*
X004215Y004351D01*
X004215Y004197D01*
X004291Y004121D01*
X004445Y004121D01*
X004061Y004428D02*
X003985Y004428D01*
X003831Y004274D01*
X003831Y004121D02*
X003831Y004428D01*
X003678Y004351D02*
X003678Y004197D01*
X003601Y004121D01*
X003371Y004121D01*
X003371Y003967D02*
X003371Y004428D01*
X003601Y004428D01*
X003678Y004351D01*
X004215Y004947D02*
X004215Y005101D01*
X004291Y005178D01*
X004522Y005178D01*
X005135Y005178D02*
X005212Y005178D01*
X005212Y004871D01*
X005135Y004871D02*
X005289Y004871D01*
X005596Y004871D02*
X005749Y005178D01*
X005903Y005101D02*
X005979Y005178D01*
X006133Y005178D01*
X006210Y005101D01*
X006210Y005024D01*
X005903Y005024D01*
X005903Y004947D02*
X005903Y005101D01*
X005903Y004947D02*
X005979Y004871D01*
X006133Y004871D01*
X006363Y004871D02*
X006363Y005178D01*
X006516Y005178D02*
X006363Y005024D01*
X006516Y005178D02*
X006593Y005178D01*
X006593Y005621D02*
X006516Y005697D01*
X006516Y005851D01*
X006593Y005928D01*
X006747Y005928D01*
X006823Y005851D01*
X006823Y005697D01*
X006747Y005621D01*
X006593Y005621D01*
X006363Y005621D02*
X006363Y005697D01*
X006286Y005697D01*
X006286Y005621D01*
X006363Y005621D01*
X006133Y005621D02*
X006133Y005851D01*
X006056Y005928D01*
X005903Y005928D01*
X005826Y005851D01*
X005673Y005928D02*
X005442Y005928D01*
X005366Y005851D01*
X005366Y005697D01*
X005442Y005621D01*
X005673Y005621D01*
X005826Y005621D02*
X005826Y006081D01*
X005212Y005851D02*
X005212Y005774D01*
X004905Y005774D01*
X004905Y005697D02*
X004905Y005851D01*
X004982Y005928D01*
X005135Y005928D01*
X005212Y005851D01*
X004982Y005621D02*
X004905Y005697D01*
X004982Y005621D02*
X005135Y005621D01*
X005212Y005408D02*
X005212Y005331D01*
X005442Y005178D02*
X005596Y004871D01*
X005519Y004428D02*
X005442Y004351D01*
X005442Y004197D01*
X005519Y004121D01*
X005749Y004121D01*
X005979Y004197D02*
X006056Y004121D01*
X005979Y004197D02*
X005979Y004504D01*
X005903Y004428D02*
X006056Y004428D01*
X006210Y004351D02*
X006210Y004197D01*
X006286Y004121D01*
X006440Y004121D01*
X006516Y004197D01*
X006516Y004351D01*
X006440Y004428D01*
X006286Y004428D01*
X006210Y004351D01*
X006670Y004428D02*
X006670Y004121D01*
X006670Y004274D02*
X006823Y004428D01*
X006900Y004428D01*
X007514Y004428D02*
X007514Y004121D01*
X007514Y004274D02*
X007667Y004428D01*
X007744Y004428D01*
X007898Y004351D02*
X007974Y004428D01*
X008128Y004428D01*
X008204Y004351D01*
X008204Y004274D01*
X007898Y004274D01*
X007898Y004197D02*
X007898Y004351D01*
X007898Y004197D02*
X007974Y004121D01*
X008128Y004121D01*
X008358Y004121D02*
X008358Y004428D01*
X008435Y004428D01*
X008511Y004351D01*
X008588Y004428D01*
X008665Y004351D01*
X008665Y004121D01*
X008511Y004121D02*
X008511Y004351D01*
X008818Y004351D02*
X008818Y004197D01*
X008895Y004121D01*
X009048Y004121D01*
X009125Y004197D01*
X009125Y004351D01*
X009048Y004428D01*
X008895Y004428D01*
X008818Y004351D01*
X009279Y004428D02*
X009432Y004428D01*
X009355Y004504D02*
X009355Y004197D01*
X009432Y004121D01*
X009586Y004197D02*
X009586Y004351D01*
X009662Y004428D01*
X009816Y004428D01*
X009892Y004351D01*
X009892Y004274D01*
X009586Y004274D01*
X009586Y004197D02*
X009662Y004121D01*
X009816Y004121D01*
X009739Y004871D02*
X009585Y004871D01*
X009509Y004947D01*
X009509Y005101D01*
X009585Y005178D01*
X009739Y005178D01*
X009816Y005101D01*
X009816Y004947D01*
X009739Y004871D01*
X009969Y004871D02*
X009969Y005178D01*
X010123Y005178D02*
X010199Y005178D01*
X010123Y005178D02*
X009969Y005024D01*
X009355Y005101D02*
X009202Y005101D01*
X009279Y005254D02*
X009355Y005331D01*
X009279Y005254D02*
X009279Y004871D01*
X008588Y004871D02*
X008511Y004947D01*
X008511Y005254D01*
X008435Y005178D02*
X008588Y005178D01*
X008204Y005178D02*
X008204Y004871D01*
X008128Y004871D02*
X008281Y004871D01*
X007974Y004871D02*
X007974Y005101D01*
X007898Y005178D01*
X007667Y005178D01*
X007667Y004871D01*
X007514Y004871D02*
X007514Y005178D01*
X007207Y005178D02*
X007207Y004947D01*
X007284Y004871D01*
X007514Y004871D01*
X008128Y005178D02*
X008204Y005178D01*
X008204Y005331D02*
X008204Y005408D01*
X008358Y005621D02*
X008281Y005697D01*
X008358Y005621D02*
X008511Y005621D01*
X008588Y005697D01*
X008588Y005774D01*
X008511Y005851D01*
X008435Y005851D01*
X008511Y005851D02*
X008588Y005928D01*
X008588Y006004D01*
X008511Y006081D01*
X008358Y006081D01*
X008281Y006004D01*
X008742Y005928D02*
X008895Y006081D01*
X008895Y005621D01*
X008742Y005621D02*
X009048Y005621D01*
X009202Y005697D02*
X009279Y005621D01*
X009432Y005621D01*
X009509Y005697D01*
X009509Y005851D01*
X009432Y005928D01*
X009355Y005928D01*
X009202Y005851D01*
X009202Y006081D01*
X009509Y006081D01*
X009662Y006081D02*
X009816Y005928D01*
X009969Y006081D01*
X009969Y005621D01*
X010123Y005621D02*
X010123Y006081D01*
X010123Y005851D02*
X010429Y005851D01*
X010583Y005928D02*
X010890Y005928D01*
X010583Y005621D01*
X010890Y005621D01*
X010429Y005621D02*
X010429Y006081D01*
X009662Y006081D02*
X009662Y005621D01*
X007667Y005621D02*
X007437Y005621D01*
X007360Y005697D01*
X007360Y005851D01*
X007437Y005928D01*
X007667Y005928D01*
X007667Y005544D01*
X007591Y005467D01*
X007514Y005467D01*
X006977Y005621D02*
X006977Y005928D01*
X007130Y005928D02*
X006977Y005774D01*
X007130Y005928D02*
X007207Y005928D01*
X005749Y004428D02*
X005519Y004428D01*
X005289Y004351D02*
X005289Y004274D01*
X004982Y004274D01*
X004982Y004197D02*
X004982Y004351D01*
X005059Y004428D01*
X005212Y004428D01*
X005289Y004351D01*
X005212Y004121D02*
X005059Y004121D01*
X004982Y004197D01*
X004994Y003081D02*
X004841Y002928D01*
X004841Y002774D01*
X004994Y002621D01*
X005148Y002697D02*
X005224Y002621D01*
X005378Y002621D01*
X005454Y002697D01*
X005608Y002621D02*
X005761Y002774D01*
X005761Y002928D01*
X005608Y003081D01*
X005454Y003004D02*
X005378Y003081D01*
X005224Y003081D01*
X005148Y003004D01*
X005148Y002697D01*
X004227Y002621D02*
X004150Y002697D01*
X004150Y003004D01*
X004073Y002928D02*
X004227Y002928D01*
X003920Y002851D02*
X003920Y002621D01*
X003920Y002851D02*
X003843Y002928D01*
X003690Y002928D01*
X003613Y002851D01*
X003460Y002928D02*
X003229Y002928D01*
X003153Y002851D01*
X003153Y002697D01*
X003229Y002621D01*
X003460Y002621D01*
X003460Y002544D02*
X003460Y002928D01*
X003613Y003081D02*
X003613Y002621D01*
X003460Y002544D02*
X003383Y002467D01*
X003306Y002467D01*
X002999Y002621D02*
X002846Y002621D01*
X002923Y002621D02*
X002923Y002928D01*
X002846Y002928D01*
X002692Y002928D02*
X002616Y002928D01*
X002462Y002774D01*
X002462Y002621D02*
X002462Y002928D01*
X002309Y002928D02*
X002309Y002544D01*
X002232Y002467D01*
X002155Y002467D01*
X002079Y002621D02*
X002309Y002621D01*
X002079Y002621D02*
X002002Y002697D01*
X002002Y002928D01*
X001848Y002851D02*
X001848Y002697D01*
X001772Y002621D01*
X001541Y002621D01*
X001388Y002697D02*
X001388Y002851D01*
X001311Y002928D01*
X001158Y002928D01*
X001081Y002851D01*
X001081Y002697D01*
X001158Y002621D01*
X001311Y002621D01*
X001388Y002697D01*
X001541Y002467D02*
X001541Y002928D01*
X001772Y002928D01*
X001848Y002851D01*
X000928Y002697D02*
X000851Y002621D01*
X000697Y002621D01*
X000621Y002697D01*
X000621Y003004D01*
X000697Y003081D01*
X000851Y003081D01*
X000928Y003004D01*
X002923Y003081D02*
X002923Y003158D01*
X006375Y003004D02*
X006452Y003081D01*
X006605Y003081D01*
X006682Y003004D01*
X006682Y002928D01*
X006375Y002621D01*
X006682Y002621D01*
X006836Y002697D02*
X007142Y003004D01*
X007142Y002697D01*
X007066Y002621D01*
X006912Y002621D01*
X006836Y002697D01*
X006836Y003004D01*
X006912Y003081D01*
X007066Y003081D01*
X007142Y003004D01*
X007296Y003004D02*
X007373Y003081D01*
X007526Y003081D01*
X007603Y003004D01*
X007296Y002697D01*
X007373Y002621D01*
X007526Y002621D01*
X007603Y002697D01*
X007603Y003004D01*
X007756Y003004D02*
X007756Y002928D01*
X007833Y002851D01*
X008063Y002851D01*
X008063Y003004D02*
X008063Y002697D01*
X007986Y002621D01*
X007833Y002621D01*
X007756Y002697D01*
X007756Y003004D02*
X007833Y003081D01*
X007986Y003081D01*
X008063Y003004D01*
X008677Y003081D02*
X008984Y003081D01*
X008830Y003081D02*
X008830Y002621D01*
X009137Y002621D02*
X009291Y002621D01*
X009214Y002621D02*
X009214Y002928D01*
X009137Y002928D01*
X009214Y003081D02*
X009214Y003158D01*
X009444Y002928D02*
X009521Y002928D01*
X009598Y002851D01*
X009674Y002928D01*
X009751Y002851D01*
X009751Y002621D01*
X009598Y002621D02*
X009598Y002851D01*
X009444Y002928D02*
X009444Y002621D01*
X010365Y002697D02*
X010442Y002621D01*
X010595Y002621D01*
X010672Y002697D01*
X010672Y002774D01*
X010595Y002851D01*
X010442Y002851D01*
X010365Y002928D01*
X010365Y003004D01*
X010442Y003081D01*
X010595Y003081D01*
X010672Y003004D01*
X010825Y002928D02*
X010902Y002928D01*
X010902Y002621D01*
X010825Y002621D02*
X010979Y002621D01*
X011132Y002621D02*
X011132Y002928D01*
X011362Y002928D01*
X011439Y002851D01*
X011439Y002621D01*
X011592Y002697D02*
X011669Y002621D01*
X011899Y002621D01*
X011899Y002544D02*
X011899Y002928D01*
X011669Y002928D01*
X011592Y002851D01*
X011592Y002697D01*
X011746Y002467D02*
X011823Y002467D01*
X011899Y002544D01*
X012053Y002697D02*
X012053Y002851D01*
X012130Y002928D01*
X012283Y002928D01*
X012360Y002851D01*
X012360Y002774D01*
X012053Y002774D01*
X012053Y002697D02*
X012130Y002621D01*
X012283Y002621D01*
X012513Y002621D02*
X012513Y002928D01*
X012513Y002774D02*
X012667Y002928D01*
X012743Y002928D01*
X012406Y003327D02*
X012406Y003480D01*
X012329Y003557D01*
X012406Y003710D02*
X012099Y004017D01*
X012022Y004017D01*
X011945Y003941D01*
X011945Y003787D01*
X012022Y003710D01*
X012022Y003557D02*
X011945Y003480D01*
X011945Y003327D01*
X012022Y003250D01*
X012329Y003250D01*
X012406Y003327D01*
X012406Y003710D02*
X012406Y004017D01*
X013621Y004046D02*
X013928Y004046D01*
X014081Y004046D02*
X014388Y004046D01*
X014235Y004046D02*
X014235Y004506D01*
X014081Y004353D01*
X013621Y004506D02*
X013621Y004046D01*
X010902Y003158D02*
X010902Y003081D01*
X007755Y001581D02*
X007602Y001428D01*
X007755Y001581D02*
X007755Y001121D01*
X007602Y001121D02*
X007909Y001121D01*
X007295Y001121D02*
X007295Y001581D01*
X007448Y001581D02*
X007141Y001581D01*
X006988Y001581D02*
X006988Y001121D01*
X006681Y001581D01*
X006681Y001121D01*
X006528Y001121D02*
X006528Y001428D01*
X006374Y001581D01*
X006221Y001428D01*
X006221Y001121D01*
X006221Y001351D02*
X006528Y001351D01*
X007296Y002697D02*
X007296Y003004D01*
X004752Y005621D02*
X004675Y005697D01*
X004675Y006004D01*
X004598Y005928D02*
X004752Y005928D01*
X004445Y005928D02*
X004215Y005928D01*
X004138Y005851D01*
X004215Y005774D01*
X004368Y005774D01*
X004445Y005697D01*
X004368Y005621D01*
X004138Y005621D01*
X003985Y005697D02*
X003908Y005774D01*
X003754Y005774D01*
X003678Y005851D01*
X003754Y005928D01*
X003985Y005928D01*
X003985Y005697D02*
X003908Y005621D01*
X003678Y005621D01*
X003524Y005621D02*
X003447Y005697D01*
X003447Y006004D01*
X003371Y005928D02*
X003524Y005928D01*
X017450Y003856D02*
X017757Y003396D01*
X017910Y003396D02*
X018217Y003396D01*
X018064Y003396D02*
X018064Y003856D01*
X017910Y003703D01*
X017757Y003856D02*
X017450Y003396D01*
X020245Y003524D02*
X020245Y003678D01*
X020245Y003601D02*
X020629Y003601D01*
X020706Y003524D01*
X020706Y003447D01*
X020629Y003371D01*
X020706Y003831D02*
X020706Y004138D01*
X020706Y003985D02*
X020245Y003985D01*
X020399Y003831D01*
X020527Y005571D02*
X020527Y005801D01*
X020451Y005878D01*
X020297Y005878D01*
X020220Y005801D01*
X020220Y005571D01*
X020681Y005571D01*
X020681Y006031D02*
X020681Y006185D01*
X020681Y006108D02*
X020220Y006108D01*
X020220Y006031D02*
X020220Y006185D01*
X020297Y006338D02*
X020604Y006338D01*
X020681Y006415D01*
X020681Y006568D01*
X020604Y006645D01*
X020527Y006798D02*
X020374Y007029D01*
X020374Y007182D02*
X020374Y007259D01*
X020681Y007259D01*
X020681Y007335D02*
X020681Y007182D01*
X020681Y007029D02*
X020527Y006798D01*
X020681Y006798D02*
X020220Y006798D01*
X020297Y006645D02*
X020220Y006568D01*
X020220Y006415D01*
X020297Y006338D01*
X020220Y007259D02*
X020144Y007259D01*
X020374Y007489D02*
X020374Y007642D01*
X020297Y007566D02*
X020604Y007566D01*
X020681Y007642D01*
X020681Y007796D02*
X020374Y008103D01*
X020297Y008103D01*
X020220Y008026D01*
X020220Y007872D01*
X020297Y007796D01*
X020681Y007796D02*
X020681Y008103D01*
D12*
X021966Y007163D02*
X022089Y007286D01*
X022213Y007163D01*
X022213Y006916D01*
X022334Y006977D02*
X022396Y006916D01*
X022519Y006916D01*
X022581Y006977D01*
X022581Y007286D01*
X022702Y007286D02*
X022949Y006916D01*
X022702Y006916D02*
X022949Y007286D01*
X022334Y007286D02*
X022334Y006977D01*
X022213Y007101D02*
X021966Y007101D01*
X021966Y007163D02*
X021966Y006916D01*
X021966Y006286D02*
X022151Y006286D01*
X022213Y006224D01*
X022213Y006101D01*
X022151Y006039D01*
X021966Y006039D01*
X021966Y005916D02*
X021966Y006286D01*
X022334Y006224D02*
X022334Y005977D01*
X022396Y005916D01*
X022519Y005916D01*
X022581Y005977D01*
X022581Y006101D01*
X022458Y006101D01*
X022581Y006224D02*
X022519Y006286D01*
X022396Y006286D01*
X022334Y006224D01*
X022702Y006224D02*
X022702Y005977D01*
X022764Y005916D01*
X022888Y005916D01*
X022949Y005977D01*
X022949Y006224D02*
X022888Y006286D01*
X022764Y006286D01*
X022702Y006224D01*
X022702Y005286D02*
X022888Y005286D01*
X022949Y005224D01*
X022949Y004977D01*
X022888Y004916D01*
X022702Y004916D01*
X022702Y005286D01*
X022581Y005224D02*
X022519Y005286D01*
X022396Y005286D01*
X022334Y005224D01*
X022334Y004977D01*
X022396Y004916D01*
X022519Y004916D01*
X022581Y004977D01*
X022581Y005101D01*
X022458Y005101D01*
X022213Y005101D02*
X022151Y005039D01*
X021966Y005039D01*
X021966Y004916D02*
X021966Y005286D01*
X022151Y005286D01*
X022213Y005224D01*
X022213Y005101D01*
X022213Y004286D02*
X022213Y004039D01*
X022089Y003916D01*
X021966Y004039D01*
X021966Y004286D01*
X022334Y004101D02*
X022396Y004039D01*
X022519Y004039D01*
X022581Y003977D01*
X022519Y003916D01*
X022334Y003916D01*
X022702Y003916D02*
X022888Y003916D01*
X022949Y003977D01*
X022888Y004039D01*
X022764Y004039D01*
X022702Y004101D01*
X022764Y004163D01*
X022949Y004163D01*
X022581Y004163D02*
X022396Y004163D01*
X022334Y004101D01*
X022213Y003286D02*
X022213Y003039D01*
X022089Y002916D01*
X021966Y003039D01*
X021966Y003286D01*
X022334Y003101D02*
X022334Y002977D01*
X022396Y002916D01*
X022581Y002916D01*
X022581Y003286D01*
X022581Y003163D02*
X022396Y003163D01*
X022334Y003101D01*
X022702Y003101D02*
X022702Y002977D01*
X022764Y002916D01*
X022949Y002916D01*
X022949Y003286D01*
X022949Y003163D02*
X022764Y003163D01*
X022702Y003101D01*
X022702Y002236D02*
X022702Y001866D01*
X022949Y001866D01*
X023071Y001866D02*
X023071Y002236D01*
X023256Y002236D01*
X023318Y002174D01*
X023318Y002051D01*
X023256Y001989D01*
X023071Y001989D01*
X023194Y001989D02*
X023318Y001866D01*
X022581Y001927D02*
X022519Y001866D01*
X022396Y001866D01*
X022334Y001927D01*
X022334Y002174D01*
X022396Y002236D01*
X022519Y002236D01*
X022581Y002174D01*
X022213Y002236D02*
X022213Y001866D01*
X021966Y001866D02*
X021966Y002236D01*
X022089Y002113D01*
X022213Y002236D01*
D13*
X021851Y002601D02*
X020851Y002601D01*
X020851Y001601D01*
X021851Y001601D01*
X021851Y002601D01*
X021851Y007601D01*
X020851Y007601D01*
X020851Y002601D01*
X020426Y002188D02*
X020101Y002188D01*
X020101Y002140D02*
X020523Y002140D01*
X020581Y002091D02*
X020101Y002091D01*
X020101Y002043D02*
X020484Y002043D01*
X020387Y001994D02*
X020101Y001994D01*
X020101Y001945D02*
X020290Y001945D01*
X020193Y001897D02*
X020101Y001897D01*
X020101Y001851D02*
X020101Y002351D01*
X020601Y002101D01*
X020101Y001851D01*
X020101Y002237D02*
X020329Y002237D01*
X020232Y002285D02*
X020101Y002285D01*
X020101Y002334D02*
X020135Y002334D01*
X019851Y003976D02*
X015351Y003976D01*
X015351Y004476D01*
X014676Y003951D02*
X014226Y003951D01*
X014676Y003951D02*
X014676Y003251D01*
X014226Y003251D01*
X013726Y003251D02*
X013276Y003251D01*
X013276Y003951D01*
X013726Y003951D01*
X013201Y003726D02*
X013201Y003276D01*
X012501Y003276D01*
X012501Y003726D01*
X012501Y004226D02*
X012501Y004676D01*
X013201Y004676D01*
X013201Y004226D01*
X011501Y003351D02*
X000701Y003351D01*
X015351Y005476D02*
X015351Y005976D01*
X019851Y005976D01*
X019851Y005476D01*
X019851Y004476D02*
X019851Y003976D01*
X019601Y007196D02*
X019601Y007696D01*
X019351Y007446D02*
X019851Y007446D01*
X019851Y011696D02*
X019351Y011696D01*
M02*
