G75*
G70*
%OFA0B0*%
%FSLAX24Y24*%
%IPPOS*%
%LPD*%
%AMOC8*
5,1,8,0,0,1.08239X$1,22.5*
%
%ADD10C,0.0400*%
%ADD11R,0.0200X0.0200*%
%ADD12C,0.0400*%
%ADD13R,0.0500X0.0400*%
%ADD14R,0.0400X0.0500*%
%ADD15R,0.2200X0.0830*%
%ADD16C,0.0700*%
%ADD17C,0.0515*%
%ADD18C,0.0436*%
%ADD19C,0.0120*%
%ADD20C,0.0100*%
%ADD21C,0.0150*%
%ADD22C,0.0160*%
D10*
X001101Y000551D03*
X001901Y000551D03*
X002701Y000551D03*
X003501Y000551D03*
X004301Y000551D03*
X005101Y000551D03*
X005901Y000551D03*
X006701Y000551D03*
X007501Y000551D03*
X008301Y000551D03*
X009101Y000551D03*
X009901Y000551D03*
X010701Y000551D03*
X011501Y000551D03*
X012301Y000551D03*
X013101Y000551D03*
X012701Y002151D03*
X011901Y002151D03*
X011101Y002151D03*
X010301Y002151D03*
X009501Y002151D03*
X008701Y002151D03*
X007901Y002151D03*
X007101Y002151D03*
X006301Y002151D03*
X005501Y002151D03*
X004701Y002151D03*
X003901Y002151D03*
X003101Y002151D03*
X002301Y002151D03*
X001501Y002151D03*
X000701Y002151D03*
D11*
X013501Y002951D03*
D12*
X013101Y000551D01*
X012301Y000551D02*
X012701Y002151D01*
X011901Y002151D02*
X011501Y000551D01*
X010701Y000551D02*
X011101Y002151D01*
X010301Y002151D02*
X009901Y000551D01*
X009101Y000551D02*
X009501Y002151D01*
X008701Y002151D02*
X008301Y000551D01*
X007501Y000551D02*
X007901Y002151D01*
X007101Y002151D02*
X006701Y000551D01*
X005901Y000551D02*
X006301Y002151D01*
X005501Y002151D02*
X005101Y000551D01*
X004301Y000551D02*
X004701Y002151D01*
X003901Y002151D02*
X003501Y000551D01*
X002701Y000551D02*
X003101Y002151D01*
X002301Y002151D02*
X001901Y000551D01*
X001101Y000551D02*
X001501Y002151D01*
D13*
X012851Y003601D03*
X012851Y004351D03*
D14*
X013601Y003601D03*
X014351Y003601D03*
D15*
X015731Y004976D03*
X019471Y004976D03*
D16*
X021351Y005101D03*
X021351Y006101D03*
X021351Y007101D03*
X021351Y004101D03*
X021351Y003101D03*
X021351Y002101D03*
D17*
X019601Y008438D02*
X019601Y008953D01*
X019601Y012438D02*
X019601Y012953D01*
D18*
X021601Y010976D03*
X020101Y010351D03*
X022851Y009101D03*
X017351Y004351D03*
X017226Y003226D03*
X019101Y003601D03*
X015351Y004226D03*
X014601Y004226D03*
X013351Y004351D03*
X011226Y004976D03*
X011226Y005726D03*
D19*
X012851Y004351D02*
X013351Y004351D01*
X015351Y004226D02*
X015351Y004976D01*
X015731Y004976D01*
X019471Y004976D02*
X019476Y004971D01*
D20*
X019521Y004929D02*
X020826Y004929D01*
X020801Y004991D02*
X020885Y004789D01*
X021039Y004635D01*
X021186Y004574D01*
X021068Y004525D01*
X020927Y004384D01*
X020851Y004200D01*
X020851Y004151D01*
X021301Y004151D01*
X021301Y004051D01*
X020851Y004051D01*
X020851Y004001D01*
X020927Y003818D01*
X021068Y003677D01*
X021186Y003628D01*
X021039Y003567D01*
X020885Y003412D01*
X020859Y003351D01*
X017726Y003351D01*
X017476Y003101D01*
X016976Y003101D01*
X016726Y003351D01*
X014701Y003351D01*
X014701Y003551D01*
X014401Y003551D01*
X014401Y003651D01*
X014301Y003651D01*
X014301Y004001D01*
X014089Y004001D01*
X014001Y003913D01*
X014001Y003651D01*
X014301Y003651D01*
X014301Y003551D01*
X014001Y003551D01*
X014001Y003351D01*
X014001Y003934D01*
X013884Y004051D01*
X013642Y004051D01*
X013705Y004114D01*
X013769Y004268D01*
X013769Y004434D01*
X013705Y004588D01*
X013588Y004705D01*
X013434Y004769D01*
X013268Y004769D01*
X013195Y004739D01*
X013184Y004751D01*
X012518Y004751D01*
X012401Y004634D01*
X000851Y004634D01*
X000851Y004601D02*
X000851Y005601D01*
X001601Y005601D01*
X001601Y006351D01*
X019351Y006351D01*
X019351Y008047D01*
X019510Y007981D01*
X019692Y007981D01*
X019860Y008050D01*
X019989Y008179D01*
X020058Y008347D01*
X020058Y009044D01*
X019989Y009212D01*
X019860Y009341D01*
X019692Y009411D01*
X019510Y009411D01*
X019351Y009345D01*
X019351Y012112D01*
X019370Y012093D01*
X019520Y012031D01*
X019572Y012031D01*
X019572Y012667D01*
X019630Y012667D01*
X019630Y012725D01*
X020008Y012725D01*
X020008Y013034D01*
X019946Y013184D01*
X019832Y013299D01*
X019682Y013361D01*
X019630Y013361D01*
X019630Y012725D01*
X019572Y012725D01*
X019572Y013361D01*
X019520Y013361D01*
X019370Y013299D01*
X019351Y013279D01*
X019351Y014226D01*
X021476Y014226D01*
X021476Y012851D01*
X022101Y012226D01*
X023351Y012226D01*
X023351Y003351D01*
X021990Y003351D01*
X022132Y003493D01*
X022209Y003570D01*
X022251Y003671D01*
X022251Y008421D01*
X022251Y008530D01*
X022209Y008632D01*
X020519Y010322D01*
X020519Y010434D01*
X020455Y010588D01*
X020338Y010705D01*
X020184Y010769D01*
X020018Y010769D01*
X019864Y010705D01*
X019746Y010588D01*
X019683Y010434D01*
X019683Y010268D01*
X019746Y010114D01*
X019864Y009996D01*
X020018Y009933D01*
X020130Y009933D01*
X021701Y008362D01*
X021701Y007529D01*
X021662Y007567D01*
X021460Y007651D01*
X021241Y007651D01*
X021039Y007567D01*
X020885Y007412D01*
X020801Y007210D01*
X020801Y006991D01*
X020885Y006789D01*
X021039Y006635D01*
X021121Y006601D01*
X021039Y006567D01*
X020885Y006412D01*
X020801Y006210D01*
X020801Y005991D01*
X020885Y005789D01*
X021039Y005635D01*
X021121Y005601D01*
X021039Y005567D01*
X020885Y005412D01*
X020801Y005210D01*
X020801Y004991D01*
X020801Y005028D02*
X020721Y005028D01*
X020721Y005026D02*
X020721Y005453D01*
X020633Y005541D01*
X019521Y005541D01*
X019521Y005026D01*
X019421Y005026D01*
X019421Y005541D01*
X018309Y005541D01*
X018221Y005453D01*
X018221Y005026D01*
X019421Y005026D01*
X019421Y004926D01*
X018221Y004926D01*
X018221Y004499D01*
X018309Y004411D01*
X019421Y004411D01*
X019421Y004926D01*
X019521Y004926D01*
X019521Y005026D01*
X020721Y005026D01*
X020721Y004926D02*
X019521Y004926D01*
X019521Y004411D01*
X020633Y004411D01*
X020721Y004499D01*
X020721Y004926D01*
X020721Y004831D02*
X020867Y004831D01*
X020941Y004732D02*
X020721Y004732D01*
X020721Y004634D02*
X021041Y004634D01*
X021093Y004535D02*
X020721Y004535D01*
X020659Y004437D02*
X020980Y004437D01*
X020908Y004338D02*
X015757Y004338D01*
X015747Y004361D02*
X016914Y004361D01*
X017031Y004478D01*
X017031Y005474D01*
X016914Y005591D01*
X014548Y005591D01*
X014431Y005474D01*
X014431Y004478D01*
X014548Y004361D01*
X014954Y004361D01*
X014933Y004309D01*
X014933Y004143D01*
X014996Y003989D01*
X015114Y003871D01*
X015268Y003808D01*
X015434Y003808D01*
X015588Y003871D01*
X015705Y003989D01*
X015769Y004143D01*
X015769Y004309D01*
X015747Y004361D01*
X015769Y004240D02*
X020867Y004240D01*
X021301Y004141D02*
X015768Y004141D01*
X015727Y004043D02*
X020851Y004043D01*
X020875Y003944D02*
X015660Y003944D01*
X015525Y003845D02*
X020915Y003845D01*
X020998Y003747D02*
X014701Y003747D01*
X014701Y003651D02*
X014701Y003913D01*
X014613Y004001D01*
X014401Y004001D01*
X014401Y003651D01*
X014701Y003651D01*
X014701Y003550D02*
X021022Y003550D01*
X020923Y003451D02*
X014701Y003451D01*
X014701Y003353D02*
X020860Y003353D01*
X021136Y003648D02*
X014401Y003648D01*
X014401Y003747D02*
X014301Y003747D01*
X014301Y003845D02*
X014401Y003845D01*
X014401Y003944D02*
X014301Y003944D01*
X014032Y003944D02*
X013990Y003944D01*
X014001Y003845D02*
X014001Y003845D01*
X014001Y003747D02*
X014001Y003747D01*
X014001Y003648D02*
X014301Y003648D01*
X014001Y003550D02*
X014001Y003550D01*
X014001Y003451D02*
X014001Y003451D01*
X014001Y003353D02*
X014001Y003353D01*
X014001Y003351D02*
X014001Y003351D01*
X014701Y003845D02*
X015176Y003845D01*
X015041Y003944D02*
X014670Y003944D01*
X014933Y004141D02*
X013716Y004141D01*
X013757Y004240D02*
X014933Y004240D01*
X014945Y004338D02*
X013769Y004338D01*
X013768Y004437D02*
X014472Y004437D01*
X014431Y004535D02*
X013727Y004535D01*
X013659Y004634D02*
X014431Y004634D01*
X014431Y004732D02*
X013522Y004732D01*
X014431Y004831D02*
X002998Y004831D01*
X002950Y004783D02*
X002704Y004681D01*
X002437Y004681D01*
X002191Y004783D01*
X002003Y004971D01*
X001901Y005217D01*
X001901Y005484D01*
X002003Y005730D01*
X002191Y005919D01*
X002437Y006021D01*
X002704Y006021D01*
X002950Y005919D01*
X003139Y005730D01*
X003241Y005484D01*
X003241Y005217D01*
X003139Y004971D01*
X002950Y004783D01*
X002828Y004732D02*
X012499Y004732D01*
X012401Y004634D02*
X012401Y004068D01*
X012493Y003976D01*
X012401Y003884D01*
X012401Y003351D01*
X000351Y003351D01*
X000351Y004601D01*
X000851Y004601D01*
X000851Y004732D02*
X002313Y004732D01*
X002143Y004831D02*
X000851Y004831D01*
X000851Y004929D02*
X002045Y004929D01*
X001979Y005028D02*
X000851Y005028D01*
X000851Y005126D02*
X001938Y005126D01*
X001901Y005225D02*
X000851Y005225D01*
X000851Y005324D02*
X001901Y005324D01*
X001901Y005422D02*
X000851Y005422D01*
X000851Y005521D02*
X001916Y005521D01*
X001957Y005619D02*
X001601Y005619D01*
X001601Y005718D02*
X001998Y005718D01*
X002089Y005816D02*
X001601Y005816D01*
X001601Y005915D02*
X002187Y005915D01*
X002420Y006013D02*
X001601Y006013D01*
X001601Y006112D02*
X020801Y006112D01*
X020801Y006210D02*
X001601Y006210D01*
X001601Y006309D02*
X020842Y006309D01*
X020883Y006408D02*
X019351Y006408D01*
X019351Y006506D02*
X020978Y006506D01*
X021111Y006605D02*
X019351Y006605D01*
X019351Y006703D02*
X020971Y006703D01*
X020879Y006802D02*
X019351Y006802D01*
X019351Y006900D02*
X020839Y006900D01*
X020801Y006999D02*
X019351Y006999D01*
X019351Y007097D02*
X020801Y007097D01*
X020801Y007196D02*
X019351Y007196D01*
X019351Y007294D02*
X020836Y007294D01*
X020877Y007393D02*
X019351Y007393D01*
X019351Y007492D02*
X020964Y007492D01*
X021095Y007590D02*
X019351Y007590D01*
X019351Y007689D02*
X021701Y007689D01*
X021701Y007787D02*
X019351Y007787D01*
X019351Y007886D02*
X021701Y007886D01*
X021701Y007984D02*
X019700Y007984D01*
X019501Y007984D02*
X019351Y007984D01*
X019892Y008083D02*
X021701Y008083D01*
X021701Y008181D02*
X019989Y008181D01*
X020030Y008280D02*
X021701Y008280D01*
X021684Y008378D02*
X020058Y008378D01*
X020058Y008477D02*
X021586Y008477D01*
X021487Y008576D02*
X020058Y008576D01*
X020058Y008674D02*
X021389Y008674D01*
X021290Y008773D02*
X020058Y008773D01*
X020058Y008871D02*
X021191Y008871D01*
X021093Y008970D02*
X020058Y008970D01*
X020048Y009068D02*
X020994Y009068D01*
X020896Y009167D02*
X020008Y009167D01*
X019936Y009265D02*
X020797Y009265D01*
X020699Y009364D02*
X019805Y009364D01*
X019397Y009364D02*
X019351Y009364D01*
X019351Y009462D02*
X020600Y009462D01*
X020502Y009561D02*
X019351Y009561D01*
X019351Y009659D02*
X020403Y009659D01*
X020305Y009758D02*
X019351Y009758D01*
X019351Y009857D02*
X020206Y009857D01*
X019963Y009955D02*
X019351Y009955D01*
X019351Y010054D02*
X019807Y010054D01*
X019730Y010152D02*
X019351Y010152D01*
X019351Y010251D02*
X019690Y010251D01*
X019683Y010349D02*
X019351Y010349D01*
X019351Y010448D02*
X019688Y010448D01*
X019729Y010546D02*
X019351Y010546D01*
X019351Y010645D02*
X019804Y010645D01*
X019956Y010743D02*
X019351Y010743D01*
X019351Y010842D02*
X023351Y010842D01*
X023351Y010743D02*
X020245Y010743D01*
X020398Y010645D02*
X023351Y010645D01*
X023351Y010546D02*
X020472Y010546D01*
X020513Y010448D02*
X023351Y010448D01*
X023351Y010349D02*
X020519Y010349D01*
X020590Y010251D02*
X023351Y010251D01*
X023351Y010152D02*
X020688Y010152D01*
X020787Y010054D02*
X023351Y010054D01*
X023351Y009955D02*
X020885Y009955D01*
X020984Y009857D02*
X023351Y009857D01*
X023351Y009758D02*
X021082Y009758D01*
X021181Y009659D02*
X023351Y009659D01*
X023351Y009561D02*
X021279Y009561D01*
X021378Y009462D02*
X023351Y009462D01*
X023351Y009364D02*
X021477Y009364D01*
X021575Y009265D02*
X023351Y009265D01*
X023351Y009167D02*
X021674Y009167D01*
X021772Y009068D02*
X023351Y009068D01*
X023351Y008970D02*
X021871Y008970D01*
X021969Y008871D02*
X023351Y008871D01*
X023351Y008773D02*
X022068Y008773D01*
X022166Y008674D02*
X023351Y008674D01*
X023351Y008576D02*
X022232Y008576D01*
X022251Y008477D02*
X023351Y008477D01*
X023351Y008378D02*
X022251Y008378D01*
X022251Y008280D02*
X023351Y008280D01*
X023351Y008181D02*
X022251Y008181D01*
X022251Y008083D02*
X023351Y008083D01*
X023351Y007984D02*
X022251Y007984D01*
X022251Y007886D02*
X023351Y007886D01*
X023351Y007787D02*
X022251Y007787D01*
X022251Y007689D02*
X023351Y007689D01*
X023351Y007590D02*
X022251Y007590D01*
X022251Y007492D02*
X023351Y007492D01*
X023351Y007393D02*
X022251Y007393D01*
X022251Y007294D02*
X023351Y007294D01*
X023351Y007196D02*
X022251Y007196D01*
X022251Y007097D02*
X023351Y007097D01*
X023351Y006999D02*
X022251Y006999D01*
X022251Y006900D02*
X023351Y006900D01*
X023351Y006802D02*
X022251Y006802D01*
X022251Y006703D02*
X023351Y006703D01*
X023351Y006605D02*
X022251Y006605D01*
X022251Y006506D02*
X023351Y006506D01*
X023351Y006408D02*
X022251Y006408D01*
X022251Y006309D02*
X023351Y006309D01*
X023351Y006210D02*
X022251Y006210D01*
X022251Y006112D02*
X023351Y006112D01*
X023351Y006013D02*
X022251Y006013D01*
X022251Y005915D02*
X023351Y005915D01*
X023351Y005816D02*
X022251Y005816D01*
X022251Y005718D02*
X023351Y005718D01*
X023351Y005619D02*
X022251Y005619D01*
X022251Y005521D02*
X023351Y005521D01*
X023351Y005422D02*
X022251Y005422D01*
X022251Y005324D02*
X023351Y005324D01*
X023351Y005225D02*
X022251Y005225D01*
X022251Y005126D02*
X023351Y005126D01*
X023351Y005028D02*
X022251Y005028D01*
X022251Y004929D02*
X023351Y004929D01*
X023351Y004831D02*
X022251Y004831D01*
X022251Y004732D02*
X023351Y004732D01*
X023351Y004634D02*
X022251Y004634D01*
X022251Y004535D02*
X023351Y004535D01*
X023351Y004437D02*
X022251Y004437D01*
X022251Y004338D02*
X023351Y004338D01*
X023351Y004240D02*
X022251Y004240D01*
X022251Y004141D02*
X023351Y004141D01*
X023351Y004043D02*
X022251Y004043D01*
X022251Y003944D02*
X023351Y003944D01*
X023351Y003845D02*
X022251Y003845D01*
X022251Y003747D02*
X023351Y003747D01*
X023351Y003648D02*
X022241Y003648D01*
X022189Y003550D02*
X023351Y003550D01*
X023351Y003451D02*
X022090Y003451D01*
X021992Y003353D02*
X023351Y003353D01*
X020801Y005126D02*
X020721Y005126D01*
X020721Y005225D02*
X020807Y005225D01*
X020848Y005324D02*
X020721Y005324D01*
X020721Y005422D02*
X020894Y005422D01*
X020993Y005521D02*
X020653Y005521D01*
X021076Y005619D02*
X003185Y005619D01*
X003226Y005521D02*
X014478Y005521D01*
X014431Y005422D02*
X003241Y005422D01*
X003241Y005324D02*
X014431Y005324D01*
X014431Y005225D02*
X003241Y005225D01*
X003203Y005126D02*
X014431Y005126D01*
X014431Y005028D02*
X003162Y005028D01*
X003097Y004929D02*
X014431Y004929D01*
X013892Y004043D02*
X014974Y004043D01*
X016822Y003254D02*
X017629Y003254D01*
X017531Y003156D02*
X016921Y003156D01*
X016990Y004437D02*
X018283Y004437D01*
X018221Y004535D02*
X017031Y004535D01*
X017031Y004634D02*
X018221Y004634D01*
X018221Y004732D02*
X017031Y004732D01*
X017031Y004831D02*
X018221Y004831D01*
X018221Y005028D02*
X017031Y005028D01*
X017031Y005126D02*
X018221Y005126D01*
X018221Y005225D02*
X017031Y005225D01*
X017031Y005324D02*
X018221Y005324D01*
X018221Y005422D02*
X017031Y005422D01*
X016984Y005521D02*
X018289Y005521D01*
X019421Y005521D02*
X019521Y005521D01*
X019521Y005422D02*
X019421Y005422D01*
X019421Y005324D02*
X019521Y005324D01*
X019521Y005225D02*
X019421Y005225D01*
X019421Y005126D02*
X019521Y005126D01*
X019521Y005028D02*
X019421Y005028D01*
X019421Y004929D02*
X017031Y004929D01*
X019421Y004831D02*
X019521Y004831D01*
X019521Y004732D02*
X019421Y004732D01*
X019421Y004634D02*
X019521Y004634D01*
X019521Y004535D02*
X019421Y004535D01*
X019421Y004437D02*
X019521Y004437D01*
X020956Y005718D02*
X003144Y005718D01*
X003053Y005816D02*
X020873Y005816D01*
X020832Y005915D02*
X002954Y005915D01*
X002722Y006013D02*
X020801Y006013D01*
X021607Y007590D02*
X021701Y007590D01*
X023351Y010941D02*
X019351Y010941D01*
X019351Y011039D02*
X023351Y011039D01*
X023351Y011138D02*
X019351Y011138D01*
X019351Y011236D02*
X023351Y011236D01*
X023351Y011335D02*
X019351Y011335D01*
X019351Y011433D02*
X023351Y011433D01*
X023351Y011532D02*
X019351Y011532D01*
X019351Y011630D02*
X023351Y011630D01*
X023351Y011729D02*
X019351Y011729D01*
X019351Y011827D02*
X023351Y011827D01*
X023351Y011926D02*
X019351Y011926D01*
X019351Y012025D02*
X023351Y012025D01*
X023351Y012123D02*
X019862Y012123D01*
X019832Y012093D02*
X019946Y012207D01*
X020008Y012357D01*
X020008Y012667D01*
X019630Y012667D01*
X019630Y012031D01*
X019682Y012031D01*
X019832Y012093D01*
X019952Y012222D02*
X023351Y012222D01*
X022006Y012320D02*
X019993Y012320D01*
X020008Y012419D02*
X021908Y012419D01*
X021809Y012517D02*
X020008Y012517D01*
X020008Y012616D02*
X021711Y012616D01*
X021612Y012714D02*
X019630Y012714D01*
X019630Y012616D02*
X019572Y012616D01*
X019572Y012517D02*
X019630Y012517D01*
X019630Y012419D02*
X019572Y012419D01*
X019572Y012320D02*
X019630Y012320D01*
X019630Y012222D02*
X019572Y012222D01*
X019572Y012123D02*
X019630Y012123D01*
X019630Y012813D02*
X019572Y012813D01*
X019572Y012911D02*
X019630Y012911D01*
X019630Y013010D02*
X019572Y013010D01*
X019572Y013109D02*
X019630Y013109D01*
X019630Y013207D02*
X019572Y013207D01*
X019572Y013306D02*
X019630Y013306D01*
X019815Y013306D02*
X021476Y013306D01*
X021476Y013404D02*
X019351Y013404D01*
X019351Y013306D02*
X019387Y013306D01*
X019351Y013503D02*
X021476Y013503D01*
X021476Y013601D02*
X019351Y013601D01*
X019351Y013700D02*
X021476Y013700D01*
X021476Y013798D02*
X019351Y013798D01*
X019351Y013897D02*
X021476Y013897D01*
X021476Y013995D02*
X019351Y013995D01*
X019351Y014094D02*
X021476Y014094D01*
X021476Y014192D02*
X019351Y014192D01*
X019923Y013207D02*
X021476Y013207D01*
X021476Y013109D02*
X019978Y013109D01*
X020008Y013010D02*
X021476Y013010D01*
X021476Y012911D02*
X020008Y012911D01*
X020008Y012813D02*
X021514Y012813D01*
X012401Y004535D02*
X000351Y004535D01*
X000351Y004437D02*
X012401Y004437D01*
X012401Y004338D02*
X000351Y004338D01*
X000351Y004240D02*
X012401Y004240D01*
X012401Y004141D02*
X000351Y004141D01*
X000351Y004043D02*
X012426Y004043D01*
X012461Y003944D02*
X000351Y003944D01*
X000351Y003845D02*
X012401Y003845D01*
X012401Y003747D02*
X000351Y003747D01*
X000351Y003648D02*
X012401Y003648D01*
X012401Y003550D02*
X000351Y003550D01*
X000351Y003451D02*
X012401Y003451D01*
X012401Y003353D02*
X000351Y003353D01*
D21*
X020101Y010351D02*
X021976Y008476D01*
X021976Y003726D01*
X021351Y003101D01*
D22*
X013601Y003601D02*
X013501Y002951D01*
X013601Y003601D02*
X012851Y003601D01*
M02*
