G04 #@! TF.GenerationSoftware,KiCad,Pcbnew,6.0.11-2627ca5db0~126~ubuntu20.04.1*
G04 #@! TF.CreationDate,2023-09-01T18:57:17-05:00*
G04 #@! TF.ProjectId,iot-badge-915,696f742d-6261-4646-9765-2d3931352e6b,rev?*
G04 #@! TF.SameCoordinates,Original*
G04 #@! TF.FileFunction,Legend,Top*
G04 #@! TF.FilePolarity,Positive*
%FSLAX46Y46*%
G04 Gerber Fmt 4.6, Leading zero omitted, Abs format (unit mm)*
G04 Created by KiCad (PCBNEW 6.0.11-2627ca5db0~126~ubuntu20.04.1) date 2023-09-01 18:57:17*
%MOMM*%
%LPD*%
G01*
G04 APERTURE LIST*
G04 Aperture macros list*
%AMRoundRect*
0 Rectangle with rounded corners*
0 $1 Rounding radius*
0 $2 $3 $4 $5 $6 $7 $8 $9 X,Y pos of 4 corners*
0 Add a 4 corners polygon primitive as box body*
4,1,4,$2,$3,$4,$5,$6,$7,$8,$9,$2,$3,0*
0 Add four circle primitives for the rounded corners*
1,1,$1+$1,$2,$3*
1,1,$1+$1,$4,$5*
1,1,$1+$1,$6,$7*
1,1,$1+$1,$8,$9*
0 Add four rect primitives between the rounded corners*
20,1,$1+$1,$2,$3,$4,$5,0*
20,1,$1+$1,$4,$5,$6,$7,0*
20,1,$1+$1,$6,$7,$8,$9,0*
20,1,$1+$1,$8,$9,$2,$3,0*%
%AMRotRect*
0 Rectangle, with rotation*
0 The origin of the aperture is its center*
0 $1 length*
0 $2 width*
0 $3 Rotation angle, in degrees counterclockwise*
0 Add horizontal line*
21,1,$1,$2,0,0,$3*%
%AMFreePoly0*
4,1,57,-0.451886,0.759392,-0.288071,0.701059,-0.141249,0.607884,-0.018719,0.484495,0.073429,0.337027,0.130616,0.172808,0.150000,0.000000,0.149696,-0.021779,0.125495,-0.193978,0.063745,-0.356536,-0.032485,-0.501374,-0.158413,-0.621293,-0.307779,-0.710333,-0.473159,-0.764069,-0.646335,-0.779829,-0.818699,-0.756831,-0.981684,-0.696217,-1.127191,-0.601000,-1.247986,-0.475913,-1.338066,-0.327173,
-1.392955,-0.162171,-1.409437,0.005924,-1.114900,0.005924,-1.097072,-0.130409,-1.041697,-0.256259,-0.953226,-0.361508,-0.838770,-0.437696,-0.707532,-0.478698,-0.570061,-0.481217,-0.437409,-0.445052,-0.320238,-0.373110,-0.227970,-0.271173,-0.168020,-0.147437,-0.145832,-0.015554,-0.150000,0.000000,-0.146783,0.012005,-0.164556,0.136105,-0.221465,0.261269,-0.311215,0.365430,-0.426593,0.440214,
-0.558322,0.479609,-0.695813,0.480449,-0.828014,0.442666,-0.944297,0.369297,-1.035313,0.266241,-1.093747,0.141782,-1.114900,0.005924,-1.409437,0.005924,-1.409924,0.010891,-1.388130,0.183411,-1.328655,0.346815,-1.234457,0.492983,-1.110216,0.614648,-0.962108,0.705765,-0.797494,0.761804,-0.624555,0.779981,-0.451886,0.759392,-0.451886,0.759392,$1*%
%AMFreePoly1*
4,1,22,0.550000,-0.750000,0.000000,-0.750000,0.000000,-0.745033,-0.079941,-0.743568,-0.215256,-0.701293,-0.333266,-0.622738,-0.424486,-0.514219,-0.481581,-0.384460,-0.499164,-0.250000,-0.500000,-0.250000,-0.500000,0.250000,-0.499164,0.250000,-0.499963,0.256109,-0.478152,0.396186,-0.417904,0.524511,-0.324060,0.630769,-0.204165,0.706417,-0.067858,0.745374,0.000000,0.744959,0.000000,0.750000,
0.550000,0.750000,0.550000,-0.750000,0.550000,-0.750000,$1*%
%AMFreePoly2*
4,1,20,0.000000,0.744959,0.073905,0.744508,0.209726,0.703889,0.328688,0.626782,0.421226,0.519385,0.479903,0.390333,0.500000,0.250000,0.500000,-0.250000,0.499851,-0.262216,0.476331,-0.402017,0.414519,-0.529596,0.319384,-0.634700,0.198574,-0.708877,0.061801,-0.746166,0.000000,-0.745033,0.000000,-0.750000,-0.550000,-0.750000,-0.550000,0.750000,0.000000,0.750000,0.000000,0.744959,
0.000000,0.744959,$1*%
%AMFreePoly3*
4,1,22,0.500000,-0.750000,0.000000,-0.750000,0.000000,-0.745033,-0.079941,-0.743568,-0.215256,-0.701293,-0.333266,-0.622738,-0.424486,-0.514219,-0.481581,-0.384460,-0.499164,-0.250000,-0.500000,-0.250000,-0.500000,0.250000,-0.499164,0.250000,-0.499963,0.256109,-0.478152,0.396186,-0.417904,0.524511,-0.324060,0.630769,-0.204165,0.706417,-0.067858,0.745374,0.000000,0.744959,0.000000,0.750000,
0.500000,0.750000,0.500000,-0.750000,0.500000,-0.750000,$1*%
%AMFreePoly4*
4,1,20,0.000000,0.744959,0.073905,0.744508,0.209726,0.703889,0.328688,0.626782,0.421226,0.519385,0.479903,0.390333,0.500000,0.250000,0.500000,-0.250000,0.499851,-0.262216,0.476331,-0.402017,0.414519,-0.529596,0.319384,-0.634700,0.198574,-0.708877,0.061801,-0.746166,0.000000,-0.745033,0.000000,-0.750000,-0.500000,-0.750000,-0.500000,0.750000,0.000000,0.750000,0.000000,0.744959,
0.000000,0.744959,$1*%
G04 Aperture macros list end*
%ADD10C,0.120000*%
%ADD11C,5.260000*%
%ADD12C,0.150000*%
%ADD13C,0.010000*%
%ADD14R,0.900000X1.200000*%
%ADD15RoundRect,0.250000X-0.350000X-0.450000X0.350000X-0.450000X0.350000X0.450000X-0.350000X0.450000X0*%
%ADD16RoundRect,0.250000X-0.337500X-0.475000X0.337500X-0.475000X0.337500X0.475000X-0.337500X0.475000X0*%
%ADD17RoundRect,0.250000X0.337500X0.475000X-0.337500X0.475000X-0.337500X-0.475000X0.337500X-0.475000X0*%
%ADD18C,0.500000*%
%ADD19RoundRect,0.100000X-0.100000X0.200000X-0.100000X-0.200000X0.100000X-0.200000X0.100000X0.200000X0*%
%ADD20FreePoly0,270.000000*%
%ADD21C,1.980000*%
%ADD22R,8.400000X5.100000*%
%ADD23RoundRect,0.250000X-0.275000X0.400000X-0.275000X-0.400000X0.275000X-0.400000X0.275000X0.400000X0*%
%ADD24RoundRect,0.250000X0.325000X0.450000X-0.325000X0.450000X-0.325000X-0.450000X0.325000X-0.450000X0*%
%ADD25RoundRect,0.250000X0.450000X-0.350000X0.450000X0.350000X-0.450000X0.350000X-0.450000X-0.350000X0*%
%ADD26RoundRect,0.250000X-0.400000X-0.275000X0.400000X-0.275000X0.400000X0.275000X-0.400000X0.275000X0*%
%ADD27RoundRect,0.250000X-0.450000X0.350000X-0.450000X-0.350000X0.450000X-0.350000X0.450000X0.350000X0*%
%ADD28RoundRect,0.250000X-0.475000X0.337500X-0.475000X-0.337500X0.475000X-0.337500X0.475000X0.337500X0*%
%ADD29RoundRect,0.250000X-0.450000X0.325000X-0.450000X-0.325000X0.450000X-0.325000X0.450000X0.325000X0*%
%ADD30R,2.000000X0.900000*%
%ADD31R,0.900000X2.000000*%
%ADD32R,5.000000X5.000000*%
%ADD33R,1.050000X1.000000*%
%ADD34R,2.200000X1.050000*%
%ADD35RotRect,1.550000X1.300000X45.000000*%
%ADD36C,0.650000*%
%ADD37R,0.600000X1.450000*%
%ADD38R,0.300000X1.450000*%
%ADD39O,1.000000X2.100000*%
%ADD40O,1.000000X1.600000*%
%ADD41R,1.700000X2.250000*%
%ADD42R,2.000000X1.500000*%
%ADD43R,2.000000X3.800000*%
%ADD44R,1.550000X1.300000*%
%ADD45RoundRect,0.150000X-0.825000X-0.150000X0.825000X-0.150000X0.825000X0.150000X-0.825000X0.150000X0*%
%ADD46RoundRect,0.150000X-0.587500X-0.150000X0.587500X-0.150000X0.587500X0.150000X-0.587500X0.150000X0*%
%ADD47FreePoly1,0.000000*%
%ADD48R,1.000000X1.500000*%
%ADD49FreePoly2,0.000000*%
%ADD50R,7.875000X2.000000*%
%ADD51RoundRect,0.150000X0.150000X-0.825000X0.150000X0.825000X-0.150000X0.825000X-0.150000X-0.825000X0*%
%ADD52C,6.200000*%
%ADD53C,1.700000*%
%ADD54C,1.524000*%
%ADD55RoundRect,0.248400X0.651600X0.651600X-0.651600X0.651600X-0.651600X-0.651600X0.651600X-0.651600X0*%
%ADD56C,1.800000*%
%ADD57RoundRect,0.275000X-0.275000X0.700000X-0.275000X-0.700000X0.275000X-0.700000X0.275000X0.700000X0*%
%ADD58RoundRect,0.250000X0.475000X-0.337500X0.475000X0.337500X-0.475000X0.337500X-0.475000X-0.337500X0*%
%ADD59FreePoly3,90.000000*%
%ADD60FreePoly4,90.000000*%
%ADD61R,0.850000X0.850000*%
%ADD62R,1.700000X1.700000*%
%ADD63O,1.700000X1.700000*%
%ADD64R,2.000000X1.100000*%
%ADD65RoundRect,0.200000X0.800000X-0.200000X0.800000X0.200000X-0.800000X0.200000X-0.800000X-0.200000X0*%
G04 APERTURE END LIST*
D10*
X101000000Y-130050000D02*
X127600000Y-130050000D01*
X127600000Y-130050000D02*
X127600000Y-141550000D01*
X127600000Y-141550000D02*
X101000000Y-141550000D01*
X101000000Y-141550000D02*
X101000000Y-130050000D01*
G36*
X101000000Y-130050000D02*
G01*
X127600000Y-130050000D01*
X127600000Y-141550000D01*
X101000000Y-141550000D01*
X101000000Y-130050000D01*
G37*
D11*
X166151400Y-144000000D02*
G75*
G03*
X166151400Y-144000000I-2630000J0D01*
G01*
D10*
X108550000Y-122500000D02*
X120050000Y-122500000D01*
X120050000Y-122500000D02*
X120050000Y-149100000D01*
X120050000Y-149100000D02*
X108550000Y-149100000D01*
X108550000Y-149100000D02*
X108550000Y-122500000D01*
G36*
X108550000Y-122500000D02*
G01*
X120050000Y-122500000D01*
X120050000Y-149100000D01*
X108550000Y-149100000D01*
X108550000Y-122500000D01*
G37*
D11*
X150891400Y-144000000D02*
G75*
G03*
X150891400Y-144000000I-2630000J0D01*
G01*
D10*
X106670000Y-135800000D02*
X121930000Y-135800000D01*
X114300000Y-128150000D02*
X114300000Y-143450000D01*
D12*
X130890000Y-82957142D02*
X130861428Y-83014285D01*
X130861428Y-83100000D01*
X130890000Y-83185714D01*
X130947142Y-83242857D01*
X131004285Y-83271428D01*
X131118571Y-83300000D01*
X131204285Y-83300000D01*
X131318571Y-83271428D01*
X131375714Y-83242857D01*
X131432857Y-83185714D01*
X131461428Y-83100000D01*
X131461428Y-83042857D01*
X131432857Y-82957142D01*
X131404285Y-82928571D01*
X131204285Y-82928571D01*
X131204285Y-83042857D01*
X131461428Y-82671428D02*
X130861428Y-82671428D01*
X131461428Y-82328571D01*
X130861428Y-82328571D01*
X131461428Y-82042857D02*
X130861428Y-82042857D01*
X130861428Y-81900000D01*
X130890000Y-81814285D01*
X130947142Y-81757142D01*
X131004285Y-81728571D01*
X131118571Y-81700000D01*
X131204285Y-81700000D01*
X131318571Y-81728571D01*
X131375714Y-81757142D01*
X131432857Y-81814285D01*
X131461428Y-81900000D01*
X131461428Y-82042857D01*
X150428571Y-103738095D02*
X150476190Y-103595238D01*
X150523809Y-103547619D01*
X150619047Y-103500000D01*
X150761904Y-103500000D01*
X150857142Y-103547619D01*
X150904761Y-103595238D01*
X150952380Y-103690476D01*
X150952380Y-104071428D01*
X149952380Y-104071428D01*
X149952380Y-103738095D01*
X150000000Y-103642857D01*
X150047619Y-103595238D01*
X150142857Y-103547619D01*
X150238095Y-103547619D01*
X150333333Y-103595238D01*
X150380952Y-103642857D01*
X150428571Y-103738095D01*
X150428571Y-104071428D01*
X150666666Y-103119047D02*
X150666666Y-102642857D01*
X150952380Y-103214285D02*
X149952380Y-102880952D01*
X150952380Y-102547619D01*
X149952380Y-102357142D02*
X149952380Y-101785714D01*
X150952380Y-102071428D02*
X149952380Y-102071428D01*
X124731428Y-99628571D02*
X124131428Y-99628571D01*
X124131428Y-99485714D01*
X124160000Y-99400000D01*
X124217142Y-99342857D01*
X124274285Y-99314285D01*
X124388571Y-99285714D01*
X124474285Y-99285714D01*
X124588571Y-99314285D01*
X124645714Y-99342857D01*
X124702857Y-99400000D01*
X124731428Y-99485714D01*
X124731428Y-99628571D01*
X124731428Y-99028571D02*
X124131428Y-99028571D01*
X124702857Y-98771428D02*
X124731428Y-98685714D01*
X124731428Y-98542857D01*
X124702857Y-98485714D01*
X124674285Y-98457142D01*
X124617142Y-98428571D01*
X124560000Y-98428571D01*
X124502857Y-98457142D01*
X124474285Y-98485714D01*
X124445714Y-98542857D01*
X124417142Y-98657142D01*
X124388571Y-98714285D01*
X124360000Y-98742857D01*
X124302857Y-98771428D01*
X124245714Y-98771428D01*
X124188571Y-98742857D01*
X124160000Y-98714285D01*
X124131428Y-98657142D01*
X124131428Y-98514285D01*
X124160000Y-98428571D01*
X124731428Y-98171428D02*
X124131428Y-98171428D01*
X124131428Y-97942857D01*
X124160000Y-97885714D01*
X124188571Y-97857142D01*
X124245714Y-97828571D01*
X124331428Y-97828571D01*
X124388571Y-97857142D01*
X124417142Y-97885714D01*
X124445714Y-97942857D01*
X124445714Y-98171428D01*
X124788571Y-97714285D02*
X124788571Y-97257142D01*
X124702857Y-97142857D02*
X124731428Y-97057142D01*
X124731428Y-96914285D01*
X124702857Y-96857142D01*
X124674285Y-96828571D01*
X124617142Y-96800000D01*
X124560000Y-96800000D01*
X124502857Y-96828571D01*
X124474285Y-96857142D01*
X124445714Y-96914285D01*
X124417142Y-97028571D01*
X124388571Y-97085714D01*
X124360000Y-97114285D01*
X124302857Y-97142857D01*
X124245714Y-97142857D01*
X124188571Y-97114285D01*
X124160000Y-97085714D01*
X124131428Y-97028571D01*
X124131428Y-96885714D01*
X124160000Y-96800000D01*
X124702857Y-96571428D02*
X124731428Y-96485714D01*
X124731428Y-96342857D01*
X124702857Y-96285714D01*
X124674285Y-96257142D01*
X124617142Y-96228571D01*
X124560000Y-96228571D01*
X124502857Y-96257142D01*
X124474285Y-96285714D01*
X124445714Y-96342857D01*
X124417142Y-96457142D01*
X124388571Y-96514285D01*
X124360000Y-96542857D01*
X124302857Y-96571428D01*
X124245714Y-96571428D01*
X124188571Y-96542857D01*
X124160000Y-96514285D01*
X124131428Y-96457142D01*
X124131428Y-96314285D01*
X124160000Y-96228571D01*
X124731428Y-95971428D02*
X124131428Y-95971428D01*
X124131428Y-95828571D01*
X124160000Y-95742857D01*
X124217142Y-95685714D01*
X124274285Y-95657142D01*
X124388571Y-95628571D01*
X124474285Y-95628571D01*
X124588571Y-95657142D01*
X124645714Y-95685714D01*
X124702857Y-95742857D01*
X124731428Y-95828571D01*
X124731428Y-95971428D01*
X124731428Y-95057142D02*
X124731428Y-95400000D01*
X124731428Y-95228571D02*
X124131428Y-95228571D01*
X124217142Y-95285714D01*
X124274285Y-95342857D01*
X124302857Y-95400000D01*
X124131428Y-94857142D02*
X124131428Y-94485714D01*
X124360000Y-94685714D01*
X124360000Y-94600000D01*
X124388571Y-94542857D01*
X124417142Y-94514285D01*
X124474285Y-94485714D01*
X124617142Y-94485714D01*
X124674285Y-94514285D01*
X124702857Y-94542857D01*
X124731428Y-94600000D01*
X124731428Y-94771428D01*
X124702857Y-94828571D01*
X124674285Y-94857142D01*
X124131428Y-94114285D02*
X124131428Y-94057142D01*
X124160000Y-94000000D01*
X124188571Y-93971428D01*
X124245714Y-93942857D01*
X124360000Y-93914285D01*
X124502857Y-93914285D01*
X124617142Y-93942857D01*
X124674285Y-93971428D01*
X124702857Y-94000000D01*
X124731428Y-94057142D01*
X124731428Y-94114285D01*
X124702857Y-94171428D01*
X124674285Y-94200000D01*
X124617142Y-94228571D01*
X124502857Y-94257142D01*
X124360000Y-94257142D01*
X124245714Y-94228571D01*
X124188571Y-94200000D01*
X124160000Y-94171428D01*
X124131428Y-94114285D01*
X124131428Y-93400000D02*
X124131428Y-93514285D01*
X124160000Y-93571428D01*
X124188571Y-93600000D01*
X124274285Y-93657142D01*
X124388571Y-93685714D01*
X124617142Y-93685714D01*
X124674285Y-93657142D01*
X124702857Y-93628571D01*
X124731428Y-93571428D01*
X124731428Y-93457142D01*
X124702857Y-93400000D01*
X124674285Y-93371428D01*
X124617142Y-93342857D01*
X124474285Y-93342857D01*
X124417142Y-93371428D01*
X124388571Y-93400000D01*
X124360000Y-93457142D01*
X124360000Y-93571428D01*
X124388571Y-93628571D01*
X124417142Y-93657142D01*
X124474285Y-93685714D01*
X133348428Y-96457142D02*
X133948428Y-96257142D01*
X133348428Y-96057142D01*
X133348428Y-95742857D02*
X133348428Y-95628571D01*
X133377000Y-95571428D01*
X133434142Y-95514285D01*
X133548428Y-95485714D01*
X133748428Y-95485714D01*
X133862714Y-95514285D01*
X133919857Y-95571428D01*
X133948428Y-95628571D01*
X133948428Y-95742857D01*
X133919857Y-95800000D01*
X133862714Y-95857142D01*
X133748428Y-95885714D01*
X133548428Y-95885714D01*
X133434142Y-95857142D01*
X133377000Y-95800000D01*
X133348428Y-95742857D01*
X133348428Y-95228571D02*
X133834142Y-95228571D01*
X133891285Y-95200000D01*
X133919857Y-95171428D01*
X133948428Y-95114285D01*
X133948428Y-95000000D01*
X133919857Y-94942857D01*
X133891285Y-94914285D01*
X133834142Y-94885714D01*
X133348428Y-94885714D01*
X133348428Y-94685714D02*
X133348428Y-94342857D01*
X133948428Y-94514285D02*
X133348428Y-94514285D01*
X100900000Y-147037904D02*
X100900000Y-146237904D01*
X101395238Y-147037904D02*
X101319047Y-146999809D01*
X101280952Y-146961714D01*
X101242857Y-146885523D01*
X101242857Y-146656952D01*
X101280952Y-146580761D01*
X101319047Y-146542666D01*
X101395238Y-146504571D01*
X101509523Y-146504571D01*
X101585714Y-146542666D01*
X101623809Y-146580761D01*
X101661904Y-146656952D01*
X101661904Y-146885523D01*
X101623809Y-146961714D01*
X101585714Y-146999809D01*
X101509523Y-147037904D01*
X101395238Y-147037904D01*
X101890476Y-146237904D02*
X102347619Y-146237904D01*
X102119047Y-147037904D02*
X102119047Y-146237904D01*
X103490476Y-146618857D02*
X103604761Y-146656952D01*
X103642857Y-146695047D01*
X103680952Y-146771238D01*
X103680952Y-146885523D01*
X103642857Y-146961714D01*
X103604761Y-146999809D01*
X103528571Y-147037904D01*
X103223809Y-147037904D01*
X103223809Y-146237904D01*
X103490476Y-146237904D01*
X103566666Y-146276000D01*
X103604761Y-146314095D01*
X103642857Y-146390285D01*
X103642857Y-146466476D01*
X103604761Y-146542666D01*
X103566666Y-146580761D01*
X103490476Y-146618857D01*
X103223809Y-146618857D01*
X104366666Y-147037904D02*
X104366666Y-146618857D01*
X104328571Y-146542666D01*
X104252380Y-146504571D01*
X104100000Y-146504571D01*
X104023809Y-146542666D01*
X104366666Y-146999809D02*
X104290476Y-147037904D01*
X104100000Y-147037904D01*
X104023809Y-146999809D01*
X103985714Y-146923619D01*
X103985714Y-146847428D01*
X104023809Y-146771238D01*
X104100000Y-146733142D01*
X104290476Y-146733142D01*
X104366666Y-146695047D01*
X105090476Y-147037904D02*
X105090476Y-146237904D01*
X105090476Y-146999809D02*
X105014285Y-147037904D01*
X104861904Y-147037904D01*
X104785714Y-146999809D01*
X104747619Y-146961714D01*
X104709523Y-146885523D01*
X104709523Y-146656952D01*
X104747619Y-146580761D01*
X104785714Y-146542666D01*
X104861904Y-146504571D01*
X105014285Y-146504571D01*
X105090476Y-146542666D01*
X105814285Y-146504571D02*
X105814285Y-147152190D01*
X105776190Y-147228380D01*
X105738095Y-147266476D01*
X105661904Y-147304571D01*
X105547619Y-147304571D01*
X105471428Y-147266476D01*
X105814285Y-146999809D02*
X105738095Y-147037904D01*
X105585714Y-147037904D01*
X105509523Y-146999809D01*
X105471428Y-146961714D01*
X105433333Y-146885523D01*
X105433333Y-146656952D01*
X105471428Y-146580761D01*
X105509523Y-146542666D01*
X105585714Y-146504571D01*
X105738095Y-146504571D01*
X105814285Y-146542666D01*
X106500000Y-146999809D02*
X106423809Y-147037904D01*
X106271428Y-147037904D01*
X106195238Y-146999809D01*
X106157142Y-146923619D01*
X106157142Y-146618857D01*
X106195238Y-146542666D01*
X106271428Y-146504571D01*
X106423809Y-146504571D01*
X106500000Y-146542666D01*
X106538095Y-146618857D01*
X106538095Y-146695047D01*
X106157142Y-146771238D01*
X100919047Y-147525904D02*
X101185714Y-148325904D01*
X101452380Y-147525904D01*
X102480952Y-147525904D02*
X102557142Y-147525904D01*
X102633333Y-147564000D01*
X102671428Y-147602095D01*
X102709523Y-147678285D01*
X102747619Y-147830666D01*
X102747619Y-148021142D01*
X102709523Y-148173523D01*
X102671428Y-148249714D01*
X102633333Y-148287809D01*
X102557142Y-148325904D01*
X102480952Y-148325904D01*
X102404761Y-148287809D01*
X102366666Y-148249714D01*
X102328571Y-148173523D01*
X102290476Y-148021142D01*
X102290476Y-147830666D01*
X102328571Y-147678285D01*
X102366666Y-147602095D01*
X102404761Y-147564000D01*
X102480952Y-147525904D01*
X103509523Y-148325904D02*
X103052380Y-148325904D01*
X103280952Y-148325904D02*
X103280952Y-147525904D01*
X103204761Y-147640190D01*
X103128571Y-147716380D01*
X103052380Y-147754476D01*
X104500000Y-148325904D02*
X104652380Y-148325904D01*
X104728571Y-148287809D01*
X104766666Y-148249714D01*
X104842857Y-148135428D01*
X104880952Y-147983047D01*
X104880952Y-147678285D01*
X104842857Y-147602095D01*
X104804761Y-147564000D01*
X104728571Y-147525904D01*
X104576190Y-147525904D01*
X104500000Y-147564000D01*
X104461904Y-147602095D01*
X104423809Y-147678285D01*
X104423809Y-147868761D01*
X104461904Y-147944952D01*
X104500000Y-147983047D01*
X104576190Y-148021142D01*
X104728571Y-148021142D01*
X104804761Y-147983047D01*
X104842857Y-147944952D01*
X104880952Y-147868761D01*
X105642857Y-148325904D02*
X105185714Y-148325904D01*
X105414285Y-148325904D02*
X105414285Y-147525904D01*
X105338095Y-147640190D01*
X105261904Y-147716380D01*
X105185714Y-147754476D01*
X106366666Y-147525904D02*
X105985714Y-147525904D01*
X105947619Y-147906857D01*
X105985714Y-147868761D01*
X106061904Y-147830666D01*
X106252380Y-147830666D01*
X106328571Y-147868761D01*
X106366666Y-147906857D01*
X106404761Y-147983047D01*
X106404761Y-148173523D01*
X106366666Y-148249714D01*
X106328571Y-148287809D01*
X106252380Y-148325904D01*
X106061904Y-148325904D01*
X105985714Y-148287809D01*
X105947619Y-148249714D01*
X100728571Y-105308095D02*
X100776190Y-105165238D01*
X100823809Y-105117619D01*
X100919047Y-105070000D01*
X101061904Y-105070000D01*
X101157142Y-105117619D01*
X101204761Y-105165238D01*
X101252380Y-105260476D01*
X101252380Y-105641428D01*
X100252380Y-105641428D01*
X100252380Y-105308095D01*
X100300000Y-105212857D01*
X100347619Y-105165238D01*
X100442857Y-105117619D01*
X100538095Y-105117619D01*
X100633333Y-105165238D01*
X100680952Y-105212857D01*
X100728571Y-105308095D01*
X100728571Y-105641428D01*
X100966666Y-104689047D02*
X100966666Y-104212857D01*
X101252380Y-104784285D02*
X100252380Y-104450952D01*
X101252380Y-104117619D01*
X100252380Y-103927142D02*
X100252380Y-103355714D01*
X101252380Y-103641428D02*
X100252380Y-103641428D01*
X113700000Y-122191428D02*
X113700000Y-121591428D01*
X114100000Y-121591428D02*
X114214285Y-121591428D01*
X114271428Y-121620000D01*
X114328571Y-121677142D01*
X114357142Y-121791428D01*
X114357142Y-121991428D01*
X114328571Y-122105714D01*
X114271428Y-122162857D01*
X114214285Y-122191428D01*
X114100000Y-122191428D01*
X114042857Y-122162857D01*
X113985714Y-122105714D01*
X113957142Y-121991428D01*
X113957142Y-121791428D01*
X113985714Y-121677142D01*
X114042857Y-121620000D01*
X114100000Y-121591428D01*
X114728571Y-121591428D02*
X114785714Y-121591428D01*
X114842857Y-121620000D01*
X114871428Y-121648571D01*
X114900000Y-121705714D01*
X114928571Y-121820000D01*
X114928571Y-121962857D01*
X114900000Y-122077142D01*
X114871428Y-122134285D01*
X114842857Y-122162857D01*
X114785714Y-122191428D01*
X114728571Y-122191428D01*
X114671428Y-122162857D01*
X114642857Y-122134285D01*
X114614285Y-122077142D01*
X114585714Y-121962857D01*
X114585714Y-121820000D01*
X114614285Y-121705714D01*
X114642857Y-121648571D01*
X114671428Y-121620000D01*
X114728571Y-121591428D01*
X136023000Y-96157142D02*
X135994428Y-96214285D01*
X135994428Y-96300000D01*
X136023000Y-96385714D01*
X136080142Y-96442857D01*
X136137285Y-96471428D01*
X136251571Y-96500000D01*
X136337285Y-96500000D01*
X136451571Y-96471428D01*
X136508714Y-96442857D01*
X136565857Y-96385714D01*
X136594428Y-96300000D01*
X136594428Y-96242857D01*
X136565857Y-96157142D01*
X136537285Y-96128571D01*
X136337285Y-96128571D01*
X136337285Y-96242857D01*
X136594428Y-95871428D02*
X135994428Y-95871428D01*
X136594428Y-95528571D01*
X135994428Y-95528571D01*
X136594428Y-95242857D02*
X135994428Y-95242857D01*
X135994428Y-95100000D01*
X136023000Y-95014285D01*
X136080142Y-94957142D01*
X136137285Y-94928571D01*
X136251571Y-94900000D01*
X136337285Y-94900000D01*
X136451571Y-94928571D01*
X136508714Y-94957142D01*
X136565857Y-95014285D01*
X136594428Y-95100000D01*
X136594428Y-95242857D01*
X131351285Y-96085714D02*
X131379857Y-96114285D01*
X131408428Y-96200000D01*
X131408428Y-96257142D01*
X131379857Y-96342857D01*
X131322714Y-96400000D01*
X131265571Y-96428571D01*
X131151285Y-96457142D01*
X131065571Y-96457142D01*
X130951285Y-96428571D01*
X130894142Y-96400000D01*
X130837000Y-96342857D01*
X130808428Y-96257142D01*
X130808428Y-96200000D01*
X130837000Y-96114285D01*
X130865571Y-96085714D01*
X131094142Y-95828571D02*
X131094142Y-95628571D01*
X131408428Y-95542857D02*
X131408428Y-95828571D01*
X130808428Y-95828571D01*
X130808428Y-95542857D01*
X161052380Y-104261904D02*
X161861904Y-104261904D01*
X161957142Y-104214285D01*
X162004761Y-104166666D01*
X162052380Y-104071428D01*
X162052380Y-103880952D01*
X162004761Y-103785714D01*
X161957142Y-103738095D01*
X161861904Y-103690476D01*
X161052380Y-103690476D01*
X162004761Y-103261904D02*
X162052380Y-103119047D01*
X162052380Y-102880952D01*
X162004761Y-102785714D01*
X161957142Y-102738095D01*
X161861904Y-102690476D01*
X161766666Y-102690476D01*
X161671428Y-102738095D01*
X161623809Y-102785714D01*
X161576190Y-102880952D01*
X161528571Y-103071428D01*
X161480952Y-103166666D01*
X161433333Y-103214285D01*
X161338095Y-103261904D01*
X161242857Y-103261904D01*
X161147619Y-103214285D01*
X161100000Y-103166666D01*
X161052380Y-103071428D01*
X161052380Y-102833333D01*
X161100000Y-102690476D01*
X161528571Y-101928571D02*
X161576190Y-101785714D01*
X161623809Y-101738095D01*
X161719047Y-101690476D01*
X161861904Y-101690476D01*
X161957142Y-101738095D01*
X162004761Y-101785714D01*
X162052380Y-101880952D01*
X162052380Y-102261904D01*
X161052380Y-102261904D01*
X161052380Y-101928571D01*
X161100000Y-101833333D01*
X161147619Y-101785714D01*
X161242857Y-101738095D01*
X161338095Y-101738095D01*
X161433333Y-101785714D01*
X161480952Y-101833333D01*
X161528571Y-101928571D01*
X161528571Y-102261904D01*
X127671428Y-99565714D02*
X127671428Y-99222857D01*
X128271428Y-99394285D02*
X127671428Y-99394285D01*
X128271428Y-99022857D02*
X127671428Y-99022857D01*
X127671428Y-98794285D01*
X127700000Y-98737142D01*
X127728571Y-98708571D01*
X127785714Y-98680000D01*
X127871428Y-98680000D01*
X127928571Y-98708571D01*
X127957142Y-98737142D01*
X127985714Y-98794285D01*
X127985714Y-99022857D01*
X128242857Y-98451428D02*
X128271428Y-98365714D01*
X128271428Y-98222857D01*
X128242857Y-98165714D01*
X128214285Y-98137142D01*
X128157142Y-98108571D01*
X128100000Y-98108571D01*
X128042857Y-98137142D01*
X128014285Y-98165714D01*
X127985714Y-98222857D01*
X127957142Y-98337142D01*
X127928571Y-98394285D01*
X127900000Y-98422857D01*
X127842857Y-98451428D01*
X127785714Y-98451428D01*
X127728571Y-98422857D01*
X127700000Y-98394285D01*
X127671428Y-98337142D01*
X127671428Y-98194285D01*
X127700000Y-98108571D01*
X127671428Y-97594285D02*
X127671428Y-97708571D01*
X127700000Y-97765714D01*
X127728571Y-97794285D01*
X127814285Y-97851428D01*
X127928571Y-97880000D01*
X128157142Y-97880000D01*
X128214285Y-97851428D01*
X128242857Y-97822857D01*
X128271428Y-97765714D01*
X128271428Y-97651428D01*
X128242857Y-97594285D01*
X128214285Y-97565714D01*
X128157142Y-97537142D01*
X128014285Y-97537142D01*
X127957142Y-97565714D01*
X127928571Y-97594285D01*
X127900000Y-97651428D01*
X127900000Y-97765714D01*
X127928571Y-97822857D01*
X127957142Y-97851428D01*
X128014285Y-97880000D01*
X128271428Y-96965714D02*
X128271428Y-97308571D01*
X128271428Y-97137142D02*
X127671428Y-97137142D01*
X127757142Y-97194285D01*
X127814285Y-97251428D01*
X127842857Y-97308571D01*
X127671428Y-96594285D02*
X127671428Y-96537142D01*
X127700000Y-96480000D01*
X127728571Y-96451428D01*
X127785714Y-96422857D01*
X127900000Y-96394285D01*
X128042857Y-96394285D01*
X128157142Y-96422857D01*
X128214285Y-96451428D01*
X128242857Y-96480000D01*
X128271428Y-96537142D01*
X128271428Y-96594285D01*
X128242857Y-96651428D01*
X128214285Y-96680000D01*
X128157142Y-96708571D01*
X128042857Y-96737142D01*
X127900000Y-96737142D01*
X127785714Y-96708571D01*
X127728571Y-96680000D01*
X127700000Y-96651428D01*
X127671428Y-96594285D01*
X127728571Y-96165714D02*
X127700000Y-96137142D01*
X127671428Y-96080000D01*
X127671428Y-95937142D01*
X127700000Y-95880000D01*
X127728571Y-95851428D01*
X127785714Y-95822857D01*
X127842857Y-95822857D01*
X127928571Y-95851428D01*
X128271428Y-96194285D01*
X128271428Y-95822857D01*
X128271428Y-95251428D02*
X128271428Y-95594285D01*
X128271428Y-95422857D02*
X127671428Y-95422857D01*
X127757142Y-95480000D01*
X127814285Y-95537142D01*
X127842857Y-95594285D01*
X128100000Y-95022857D02*
X128100000Y-94737142D01*
X128271428Y-95080000D02*
X127671428Y-94880000D01*
X128271428Y-94680000D01*
X128328571Y-94622857D02*
X128328571Y-94165714D01*
X128271428Y-94022857D02*
X127671428Y-94022857D01*
X127671428Y-93794285D01*
X127700000Y-93737142D01*
X127728571Y-93708571D01*
X127785714Y-93680000D01*
X127871428Y-93680000D01*
X127928571Y-93708571D01*
X127957142Y-93737142D01*
X127985714Y-93794285D01*
X127985714Y-94022857D01*
X128214285Y-93080000D02*
X128242857Y-93108571D01*
X128271428Y-93194285D01*
X128271428Y-93251428D01*
X128242857Y-93337142D01*
X128185714Y-93394285D01*
X128128571Y-93422857D01*
X128014285Y-93451428D01*
X127928571Y-93451428D01*
X127814285Y-93422857D01*
X127757142Y-93394285D01*
X127700000Y-93337142D01*
X127671428Y-93251428D01*
X127671428Y-93194285D01*
X127700000Y-93108571D01*
X127728571Y-93080000D01*
X127957142Y-92622857D02*
X127985714Y-92537142D01*
X128014285Y-92508571D01*
X128071428Y-92480000D01*
X128157142Y-92480000D01*
X128214285Y-92508571D01*
X128242857Y-92537142D01*
X128271428Y-92594285D01*
X128271428Y-92822857D01*
X127671428Y-92822857D01*
X127671428Y-92622857D01*
X127700000Y-92565714D01*
X127728571Y-92537142D01*
X127785714Y-92508571D01*
X127842857Y-92508571D01*
X127900000Y-92537142D01*
X127928571Y-92565714D01*
X127957142Y-92622857D01*
X127957142Y-92822857D01*
X128328571Y-92365714D02*
X128328571Y-91908571D01*
X128271428Y-91765714D02*
X127671428Y-91765714D01*
X128100000Y-91565714D01*
X127671428Y-91365714D01*
X128271428Y-91365714D01*
X127671428Y-90965714D02*
X127671428Y-90851428D01*
X127700000Y-90794285D01*
X127757142Y-90737142D01*
X127871428Y-90708571D01*
X128071428Y-90708571D01*
X128185714Y-90737142D01*
X128242857Y-90794285D01*
X128271428Y-90851428D01*
X128271428Y-90965714D01*
X128242857Y-91022857D01*
X128185714Y-91080000D01*
X128071428Y-91108571D01*
X127871428Y-91108571D01*
X127757142Y-91080000D01*
X127700000Y-91022857D01*
X127671428Y-90965714D01*
X128271428Y-90451428D02*
X127671428Y-90451428D01*
X127671428Y-90308571D01*
X127700000Y-90222857D01*
X127757142Y-90165714D01*
X127814285Y-90137142D01*
X127928571Y-90108571D01*
X128014285Y-90108571D01*
X128128571Y-90137142D01*
X128185714Y-90165714D01*
X128242857Y-90222857D01*
X128271428Y-90308571D01*
X128271428Y-90451428D01*
X127671428Y-89851428D02*
X128157142Y-89851428D01*
X128214285Y-89822857D01*
X128242857Y-89794285D01*
X128271428Y-89737142D01*
X128271428Y-89622857D01*
X128242857Y-89565714D01*
X128214285Y-89537142D01*
X128157142Y-89508571D01*
X127671428Y-89508571D01*
X128271428Y-88937142D02*
X128271428Y-89222857D01*
X127671428Y-89222857D01*
X127957142Y-88737142D02*
X127957142Y-88537142D01*
X128271428Y-88451428D02*
X128271428Y-88737142D01*
X127671428Y-88737142D01*
X127671428Y-88451428D01*
X138534428Y-96057142D02*
X139134428Y-95857142D01*
X138534428Y-95657142D01*
X139134428Y-95457142D02*
X138534428Y-95457142D01*
X139134428Y-95171428D02*
X138534428Y-95171428D01*
X139134428Y-94828571D01*
X138534428Y-94828571D01*
X136512857Y-83214285D02*
X136541428Y-83128571D01*
X136541428Y-82985714D01*
X136512857Y-82928571D01*
X136484285Y-82900000D01*
X136427142Y-82871428D01*
X136370000Y-82871428D01*
X136312857Y-82900000D01*
X136284285Y-82928571D01*
X136255714Y-82985714D01*
X136227142Y-83100000D01*
X136198571Y-83157142D01*
X136170000Y-83185714D01*
X136112857Y-83214285D01*
X136055714Y-83214285D01*
X135998571Y-83185714D01*
X135970000Y-83157142D01*
X135941428Y-83100000D01*
X135941428Y-82957142D01*
X135970000Y-82871428D01*
X136484285Y-82271428D02*
X136512857Y-82300000D01*
X136541428Y-82385714D01*
X136541428Y-82442857D01*
X136512857Y-82528571D01*
X136455714Y-82585714D01*
X136398571Y-82614285D01*
X136284285Y-82642857D01*
X136198571Y-82642857D01*
X136084285Y-82614285D01*
X136027142Y-82585714D01*
X135970000Y-82528571D01*
X135941428Y-82442857D01*
X135941428Y-82385714D01*
X135970000Y-82300000D01*
X135998571Y-82271428D01*
X136541428Y-81728571D02*
X136541428Y-82014285D01*
X135941428Y-82014285D01*
X168652380Y-105831904D02*
X169461904Y-105831904D01*
X169557142Y-105784285D01*
X169604761Y-105736666D01*
X169652380Y-105641428D01*
X169652380Y-105450952D01*
X169604761Y-105355714D01*
X169557142Y-105308095D01*
X169461904Y-105260476D01*
X168652380Y-105260476D01*
X169604761Y-104831904D02*
X169652380Y-104689047D01*
X169652380Y-104450952D01*
X169604761Y-104355714D01*
X169557142Y-104308095D01*
X169461904Y-104260476D01*
X169366666Y-104260476D01*
X169271428Y-104308095D01*
X169223809Y-104355714D01*
X169176190Y-104450952D01*
X169128571Y-104641428D01*
X169080952Y-104736666D01*
X169033333Y-104784285D01*
X168938095Y-104831904D01*
X168842857Y-104831904D01*
X168747619Y-104784285D01*
X168700000Y-104736666D01*
X168652380Y-104641428D01*
X168652380Y-104403333D01*
X168700000Y-104260476D01*
X169128571Y-103498571D02*
X169176190Y-103355714D01*
X169223809Y-103308095D01*
X169319047Y-103260476D01*
X169461904Y-103260476D01*
X169557142Y-103308095D01*
X169604761Y-103355714D01*
X169652380Y-103450952D01*
X169652380Y-103831904D01*
X168652380Y-103831904D01*
X168652380Y-103498571D01*
X168700000Y-103403333D01*
X168747619Y-103355714D01*
X168842857Y-103308095D01*
X168938095Y-103308095D01*
X169033333Y-103355714D01*
X169080952Y-103403333D01*
X169128571Y-103498571D01*
X169128571Y-103831904D01*
X163647619Y-91892380D02*
X163314285Y-91416190D01*
X163076190Y-91892380D02*
X163076190Y-90892380D01*
X163457142Y-90892380D01*
X163552380Y-90940000D01*
X163600000Y-90987619D01*
X163647619Y-91082857D01*
X163647619Y-91225714D01*
X163600000Y-91320952D01*
X163552380Y-91368571D01*
X163457142Y-91416190D01*
X163076190Y-91416190D01*
X164076190Y-91368571D02*
X164409523Y-91368571D01*
X164552380Y-91892380D02*
X164076190Y-91892380D01*
X164076190Y-90892380D01*
X164552380Y-90892380D01*
X164933333Y-91844761D02*
X165076190Y-91892380D01*
X165314285Y-91892380D01*
X165409523Y-91844761D01*
X165457142Y-91797142D01*
X165504761Y-91701904D01*
X165504761Y-91606666D01*
X165457142Y-91511428D01*
X165409523Y-91463809D01*
X165314285Y-91416190D01*
X165123809Y-91368571D01*
X165028571Y-91320952D01*
X164980952Y-91273333D01*
X164933333Y-91178095D01*
X164933333Y-91082857D01*
X164980952Y-90987619D01*
X165028571Y-90940000D01*
X165123809Y-90892380D01*
X165361904Y-90892380D01*
X165504761Y-90940000D01*
X165933333Y-91368571D02*
X166266666Y-91368571D01*
X166409523Y-91892380D02*
X165933333Y-91892380D01*
X165933333Y-90892380D01*
X166409523Y-90892380D01*
X166695238Y-90892380D02*
X167266666Y-90892380D01*
X166980952Y-91892380D02*
X166980952Y-90892380D01*
X133401428Y-83300000D02*
X134001428Y-83100000D01*
X133401428Y-82900000D01*
X133944285Y-82357142D02*
X133972857Y-82385714D01*
X134001428Y-82471428D01*
X134001428Y-82528571D01*
X133972857Y-82614285D01*
X133915714Y-82671428D01*
X133858571Y-82700000D01*
X133744285Y-82728571D01*
X133658571Y-82728571D01*
X133544285Y-82700000D01*
X133487142Y-82671428D01*
X133430000Y-82614285D01*
X133401428Y-82528571D01*
X133401428Y-82471428D01*
X133430000Y-82385714D01*
X133458571Y-82357142D01*
X133944285Y-81757142D02*
X133972857Y-81785714D01*
X134001428Y-81871428D01*
X134001428Y-81928571D01*
X133972857Y-82014285D01*
X133915714Y-82071428D01*
X133858571Y-82100000D01*
X133744285Y-82128571D01*
X133658571Y-82128571D01*
X133544285Y-82100000D01*
X133487142Y-82071428D01*
X133430000Y-82014285D01*
X133401428Y-81928571D01*
X133401428Y-81871428D01*
X133430000Y-81785714D01*
X133458571Y-81757142D01*
X163266666Y-120233333D02*
X163933333Y-120233333D01*
X163133333Y-120633333D02*
X163600000Y-119233333D01*
X164066666Y-120633333D01*
X164466666Y-120233333D02*
X165133333Y-120233333D01*
X164333333Y-120633333D02*
X164800000Y-119233333D01*
X165266666Y-120633333D01*
X165666666Y-120233333D02*
X166333333Y-120233333D01*
X165533333Y-120633333D02*
X166000000Y-119233333D01*
X166466666Y-120633333D01*
X139052857Y-83228571D02*
X139081428Y-83142857D01*
X139081428Y-83000000D01*
X139052857Y-82942857D01*
X139024285Y-82914285D01*
X138967142Y-82885714D01*
X138910000Y-82885714D01*
X138852857Y-82914285D01*
X138824285Y-82942857D01*
X138795714Y-83000000D01*
X138767142Y-83114285D01*
X138738571Y-83171428D01*
X138710000Y-83200000D01*
X138652857Y-83228571D01*
X138595714Y-83228571D01*
X138538571Y-83200000D01*
X138510000Y-83171428D01*
X138481428Y-83114285D01*
X138481428Y-82971428D01*
X138510000Y-82885714D01*
X139081428Y-82628571D02*
X138481428Y-82628571D01*
X138481428Y-82485714D01*
X138510000Y-82400000D01*
X138567142Y-82342857D01*
X138624285Y-82314285D01*
X138738571Y-82285714D01*
X138824285Y-82285714D01*
X138938571Y-82314285D01*
X138995714Y-82342857D01*
X139052857Y-82400000D01*
X139081428Y-82485714D01*
X139081428Y-82628571D01*
X138910000Y-82057142D02*
X138910000Y-81771428D01*
X139081428Y-82114285D02*
X138481428Y-81914285D01*
X139081428Y-81714285D01*
X129461904Y-134452380D02*
X129461904Y-133452380D01*
X129700000Y-133452380D01*
X129842857Y-133500000D01*
X129938095Y-133595238D01*
X129985714Y-133690476D01*
X130033333Y-133880952D01*
X130033333Y-134023809D01*
X129985714Y-134214285D01*
X129938095Y-134309523D01*
X129842857Y-134404761D01*
X129700000Y-134452380D01*
X129461904Y-134452380D01*
X130414285Y-133547619D02*
X130461904Y-133500000D01*
X130557142Y-133452380D01*
X130795238Y-133452380D01*
X130890476Y-133500000D01*
X130938095Y-133547619D01*
X130985714Y-133642857D01*
X130985714Y-133738095D01*
X130938095Y-133880952D01*
X130366666Y-134452380D01*
X130985714Y-134452380D01*
X143157142Y-76652380D02*
X142823809Y-76176190D01*
X142585714Y-76652380D02*
X142585714Y-75652380D01*
X142966666Y-75652380D01*
X143061904Y-75700000D01*
X143109523Y-75747619D01*
X143157142Y-75842857D01*
X143157142Y-75985714D01*
X143109523Y-76080952D01*
X143061904Y-76128571D01*
X142966666Y-76176190D01*
X142585714Y-76176190D01*
X144109523Y-76652380D02*
X143538095Y-76652380D01*
X143823809Y-76652380D02*
X143823809Y-75652380D01*
X143728571Y-75795238D01*
X143633333Y-75890476D01*
X143538095Y-75938095D01*
X144442857Y-75652380D02*
X145109523Y-75652380D01*
X144680952Y-76652380D01*
X106545142Y-71422142D02*
X106497523Y-71469761D01*
X106354666Y-71517380D01*
X106259428Y-71517380D01*
X106116571Y-71469761D01*
X106021333Y-71374523D01*
X105973714Y-71279285D01*
X105926095Y-71088809D01*
X105926095Y-70945952D01*
X105973714Y-70755476D01*
X106021333Y-70660238D01*
X106116571Y-70565000D01*
X106259428Y-70517380D01*
X106354666Y-70517380D01*
X106497523Y-70565000D01*
X106545142Y-70612619D01*
X107497523Y-71517380D02*
X106926095Y-71517380D01*
X107211809Y-71517380D02*
X107211809Y-70517380D01*
X107116571Y-70660238D01*
X107021333Y-70755476D01*
X106926095Y-70803095D01*
X107878476Y-70612619D02*
X107926095Y-70565000D01*
X108021333Y-70517380D01*
X108259428Y-70517380D01*
X108354666Y-70565000D01*
X108402285Y-70612619D01*
X108449904Y-70707857D01*
X108449904Y-70803095D01*
X108402285Y-70945952D01*
X107830857Y-71517380D01*
X108449904Y-71517380D01*
X148757142Y-100787142D02*
X148709523Y-100834761D01*
X148566666Y-100882380D01*
X148471428Y-100882380D01*
X148328571Y-100834761D01*
X148233333Y-100739523D01*
X148185714Y-100644285D01*
X148138095Y-100453809D01*
X148138095Y-100310952D01*
X148185714Y-100120476D01*
X148233333Y-100025238D01*
X148328571Y-99930000D01*
X148471428Y-99882380D01*
X148566666Y-99882380D01*
X148709523Y-99930000D01*
X148757142Y-99977619D01*
X149709523Y-100882380D02*
X149138095Y-100882380D01*
X149423809Y-100882380D02*
X149423809Y-99882380D01*
X149328571Y-100025238D01*
X149233333Y-100120476D01*
X149138095Y-100168095D01*
X150566666Y-99882380D02*
X150376190Y-99882380D01*
X150280952Y-99930000D01*
X150233333Y-99977619D01*
X150138095Y-100120476D01*
X150090476Y-100310952D01*
X150090476Y-100691904D01*
X150138095Y-100787142D01*
X150185714Y-100834761D01*
X150280952Y-100882380D01*
X150471428Y-100882380D01*
X150566666Y-100834761D01*
X150614285Y-100787142D01*
X150661904Y-100691904D01*
X150661904Y-100453809D01*
X150614285Y-100358571D01*
X150566666Y-100310952D01*
X150471428Y-100263333D01*
X150280952Y-100263333D01*
X150185714Y-100310952D01*
X150138095Y-100358571D01*
X150090476Y-100453809D01*
X134723333Y-61126666D02*
X135199523Y-61126666D01*
X134628095Y-61412380D02*
X134961428Y-60412380D01*
X135294761Y-61412380D01*
X135628095Y-60888571D02*
X135961428Y-60888571D01*
X136104285Y-61412380D02*
X135628095Y-61412380D01*
X135628095Y-60412380D01*
X136104285Y-60412380D01*
X137056666Y-61412380D02*
X136485238Y-61412380D01*
X136770952Y-61412380D02*
X136770952Y-60412380D01*
X136675714Y-60555238D01*
X136580476Y-60650476D01*
X136485238Y-60698095D01*
X159297619Y-135128095D02*
X158488095Y-135128095D01*
X158392857Y-135175714D01*
X158345238Y-135223333D01*
X158297619Y-135318571D01*
X158297619Y-135509047D01*
X158345238Y-135604285D01*
X158392857Y-135651904D01*
X158488095Y-135699523D01*
X159297619Y-135699523D01*
X158297619Y-136223333D02*
X158297619Y-136413809D01*
X158345238Y-136509047D01*
X158392857Y-136556666D01*
X158535714Y-136651904D01*
X158726190Y-136699523D01*
X159107142Y-136699523D01*
X159202380Y-136651904D01*
X159250000Y-136604285D01*
X159297619Y-136509047D01*
X159297619Y-136318571D01*
X159250000Y-136223333D01*
X159202380Y-136175714D01*
X159107142Y-136128095D01*
X158869047Y-136128095D01*
X158773809Y-136175714D01*
X158726190Y-136223333D01*
X158678571Y-136318571D01*
X158678571Y-136509047D01*
X158726190Y-136604285D01*
X158773809Y-136651904D01*
X158869047Y-136699523D01*
X145957142Y-76652380D02*
X145623809Y-76176190D01*
X145385714Y-76652380D02*
X145385714Y-75652380D01*
X145766666Y-75652380D01*
X145861904Y-75700000D01*
X145909523Y-75747619D01*
X145957142Y-75842857D01*
X145957142Y-75985714D01*
X145909523Y-76080952D01*
X145861904Y-76128571D01*
X145766666Y-76176190D01*
X145385714Y-76176190D01*
X146909523Y-76652380D02*
X146338095Y-76652380D01*
X146623809Y-76652380D02*
X146623809Y-75652380D01*
X146528571Y-75795238D01*
X146433333Y-75890476D01*
X146338095Y-75938095D01*
X147480952Y-76080952D02*
X147385714Y-76033333D01*
X147338095Y-75985714D01*
X147290476Y-75890476D01*
X147290476Y-75842857D01*
X147338095Y-75747619D01*
X147385714Y-75700000D01*
X147480952Y-75652380D01*
X147671428Y-75652380D01*
X147766666Y-75700000D01*
X147814285Y-75747619D01*
X147861904Y-75842857D01*
X147861904Y-75890476D01*
X147814285Y-75985714D01*
X147766666Y-76033333D01*
X147671428Y-76080952D01*
X147480952Y-76080952D01*
X147385714Y-76128571D01*
X147338095Y-76176190D01*
X147290476Y-76271428D01*
X147290476Y-76461904D01*
X147338095Y-76557142D01*
X147385714Y-76604761D01*
X147480952Y-76652380D01*
X147671428Y-76652380D01*
X147766666Y-76604761D01*
X147814285Y-76557142D01*
X147861904Y-76461904D01*
X147861904Y-76271428D01*
X147814285Y-76176190D01*
X147766666Y-76128571D01*
X147671428Y-76080952D01*
X143157142Y-74112380D02*
X142823809Y-73636190D01*
X142585714Y-74112380D02*
X142585714Y-73112380D01*
X142966666Y-73112380D01*
X143061904Y-73160000D01*
X143109523Y-73207619D01*
X143157142Y-73302857D01*
X143157142Y-73445714D01*
X143109523Y-73540952D01*
X143061904Y-73588571D01*
X142966666Y-73636190D01*
X142585714Y-73636190D01*
X144109523Y-74112380D02*
X143538095Y-74112380D01*
X143823809Y-74112380D02*
X143823809Y-73112380D01*
X143728571Y-73255238D01*
X143633333Y-73350476D01*
X143538095Y-73398095D01*
X145014285Y-73112380D02*
X144538095Y-73112380D01*
X144490476Y-73588571D01*
X144538095Y-73540952D01*
X144633333Y-73493333D01*
X144871428Y-73493333D01*
X144966666Y-73540952D01*
X145014285Y-73588571D01*
X145061904Y-73683809D01*
X145061904Y-73921904D01*
X145014285Y-74017142D01*
X144966666Y-74064761D01*
X144871428Y-74112380D01*
X144633333Y-74112380D01*
X144538095Y-74064761D01*
X144490476Y-74017142D01*
X134214285Y-102928571D02*
X134357142Y-102976190D01*
X134404761Y-103023809D01*
X134452380Y-103119047D01*
X134452380Y-103261904D01*
X134404761Y-103357142D01*
X134357142Y-103404761D01*
X134261904Y-103452380D01*
X133880952Y-103452380D01*
X133880952Y-102452380D01*
X134214285Y-102452380D01*
X134309523Y-102500000D01*
X134357142Y-102547619D01*
X134404761Y-102642857D01*
X134404761Y-102738095D01*
X134357142Y-102833333D01*
X134309523Y-102880952D01*
X134214285Y-102928571D01*
X133880952Y-102928571D01*
X134738095Y-102452380D02*
X135309523Y-102452380D01*
X135023809Y-103452380D02*
X135023809Y-102452380D01*
X136166666Y-103452380D02*
X135595238Y-103452380D01*
X135880952Y-103452380D02*
X135880952Y-102452380D01*
X135785714Y-102595238D01*
X135690476Y-102690476D01*
X135595238Y-102738095D01*
X126694633Y-142802142D02*
X126647014Y-142849761D01*
X126504157Y-142897380D01*
X126408919Y-142897380D01*
X126266061Y-142849761D01*
X126170823Y-142754523D01*
X126123204Y-142659285D01*
X126075585Y-142468809D01*
X126075585Y-142325952D01*
X126123204Y-142135476D01*
X126170823Y-142040238D01*
X126266061Y-141945000D01*
X126408919Y-141897380D01*
X126504157Y-141897380D01*
X126647014Y-141945000D01*
X126694633Y-141992619D01*
X127647014Y-142897380D02*
X127075585Y-142897380D01*
X127361300Y-142897380D02*
X127361300Y-141897380D01*
X127266061Y-142040238D01*
X127170823Y-142135476D01*
X127075585Y-142183095D01*
X127533333Y-122057142D02*
X127485714Y-122104761D01*
X127342857Y-122152380D01*
X127247619Y-122152380D01*
X127104761Y-122104761D01*
X127009523Y-122009523D01*
X126961904Y-121914285D01*
X126914285Y-121723809D01*
X126914285Y-121580952D01*
X126961904Y-121390476D01*
X127009523Y-121295238D01*
X127104761Y-121200000D01*
X127247619Y-121152380D01*
X127342857Y-121152380D01*
X127485714Y-121200000D01*
X127533333Y-121247619D01*
X127866666Y-121152380D02*
X128485714Y-121152380D01*
X128152380Y-121533333D01*
X128295238Y-121533333D01*
X128390476Y-121580952D01*
X128438095Y-121628571D01*
X128485714Y-121723809D01*
X128485714Y-121961904D01*
X128438095Y-122057142D01*
X128390476Y-122104761D01*
X128295238Y-122152380D01*
X128009523Y-122152380D01*
X127914285Y-122104761D01*
X127866666Y-122057142D01*
X145461904Y-74112380D02*
X145461904Y-73112380D01*
X145700000Y-73112380D01*
X145842857Y-73160000D01*
X145938095Y-73255238D01*
X145985714Y-73350476D01*
X146033333Y-73540952D01*
X146033333Y-73683809D01*
X145985714Y-73874285D01*
X145938095Y-73969523D01*
X145842857Y-74064761D01*
X145700000Y-74112380D01*
X145461904Y-74112380D01*
X146890476Y-73112380D02*
X146700000Y-73112380D01*
X146604761Y-73160000D01*
X146557142Y-73207619D01*
X146461904Y-73350476D01*
X146414285Y-73540952D01*
X146414285Y-73921904D01*
X146461904Y-74017142D01*
X146509523Y-74064761D01*
X146604761Y-74112380D01*
X146795238Y-74112380D01*
X146890476Y-74064761D01*
X146938095Y-74017142D01*
X146985714Y-73921904D01*
X146985714Y-73683809D01*
X146938095Y-73588571D01*
X146890476Y-73540952D01*
X146795238Y-73493333D01*
X146604761Y-73493333D01*
X146509523Y-73540952D01*
X146461904Y-73588571D01*
X146414285Y-73683809D01*
X153733333Y-129897142D02*
X153685714Y-129944761D01*
X153542857Y-129992380D01*
X153447619Y-129992380D01*
X153304761Y-129944761D01*
X153209523Y-129849523D01*
X153161904Y-129754285D01*
X153114285Y-129563809D01*
X153114285Y-129420952D01*
X153161904Y-129230476D01*
X153209523Y-129135238D01*
X153304761Y-129040000D01*
X153447619Y-128992380D01*
X153542857Y-128992380D01*
X153685714Y-129040000D01*
X153733333Y-129087619D01*
X154590476Y-128992380D02*
X154400000Y-128992380D01*
X154304761Y-129040000D01*
X154257142Y-129087619D01*
X154161904Y-129230476D01*
X154114285Y-129420952D01*
X154114285Y-129801904D01*
X154161904Y-129897142D01*
X154209523Y-129944761D01*
X154304761Y-129992380D01*
X154495238Y-129992380D01*
X154590476Y-129944761D01*
X154638095Y-129897142D01*
X154685714Y-129801904D01*
X154685714Y-129563809D01*
X154638095Y-129468571D01*
X154590476Y-129420952D01*
X154495238Y-129373333D01*
X154304761Y-129373333D01*
X154209523Y-129420952D01*
X154161904Y-129468571D01*
X154114285Y-129563809D01*
X163012380Y-89542857D02*
X162536190Y-89876190D01*
X163012380Y-90114285D02*
X162012380Y-90114285D01*
X162012380Y-89733333D01*
X162060000Y-89638095D01*
X162107619Y-89590476D01*
X162202857Y-89542857D01*
X162345714Y-89542857D01*
X162440952Y-89590476D01*
X162488571Y-89638095D01*
X162536190Y-89733333D01*
X162536190Y-90114285D01*
X163012380Y-88590476D02*
X163012380Y-89161904D01*
X163012380Y-88876190D02*
X162012380Y-88876190D01*
X162155238Y-88971428D01*
X162250476Y-89066666D01*
X162298095Y-89161904D01*
X163012380Y-88114285D02*
X163012380Y-87923809D01*
X162964761Y-87828571D01*
X162917142Y-87780952D01*
X162774285Y-87685714D01*
X162583809Y-87638095D01*
X162202857Y-87638095D01*
X162107619Y-87685714D01*
X162060000Y-87733333D01*
X162012380Y-87828571D01*
X162012380Y-88019047D01*
X162060000Y-88114285D01*
X162107619Y-88161904D01*
X162202857Y-88209523D01*
X162440952Y-88209523D01*
X162536190Y-88161904D01*
X162583809Y-88114285D01*
X162631428Y-88019047D01*
X162631428Y-87828571D01*
X162583809Y-87733333D01*
X162536190Y-87685714D01*
X162440952Y-87638095D01*
X126833333Y-148137142D02*
X126785714Y-148184761D01*
X126642857Y-148232380D01*
X126547619Y-148232380D01*
X126404761Y-148184761D01*
X126309523Y-148089523D01*
X126261904Y-147994285D01*
X126214285Y-147803809D01*
X126214285Y-147660952D01*
X126261904Y-147470476D01*
X126309523Y-147375238D01*
X126404761Y-147280000D01*
X126547619Y-147232380D01*
X126642857Y-147232380D01*
X126785714Y-147280000D01*
X126833333Y-147327619D01*
X127214285Y-147327619D02*
X127261904Y-147280000D01*
X127357142Y-147232380D01*
X127595238Y-147232380D01*
X127690476Y-147280000D01*
X127738095Y-147327619D01*
X127785714Y-147422857D01*
X127785714Y-147518095D01*
X127738095Y-147660952D01*
X127166666Y-148232380D01*
X127785714Y-148232380D01*
X108002380Y-81742857D02*
X107526190Y-82076190D01*
X108002380Y-82314285D02*
X107002380Y-82314285D01*
X107002380Y-81933333D01*
X107050000Y-81838095D01*
X107097619Y-81790476D01*
X107192857Y-81742857D01*
X107335714Y-81742857D01*
X107430952Y-81790476D01*
X107478571Y-81838095D01*
X107526190Y-81933333D01*
X107526190Y-82314285D01*
X108002380Y-80790476D02*
X108002380Y-81361904D01*
X108002380Y-81076190D02*
X107002380Y-81076190D01*
X107145238Y-81171428D01*
X107240476Y-81266666D01*
X107288095Y-81361904D01*
X107002380Y-80171428D02*
X107002380Y-80076190D01*
X107050000Y-79980952D01*
X107097619Y-79933333D01*
X107192857Y-79885714D01*
X107383333Y-79838095D01*
X107621428Y-79838095D01*
X107811904Y-79885714D01*
X107907142Y-79933333D01*
X107954761Y-79980952D01*
X108002380Y-80076190D01*
X108002380Y-80171428D01*
X107954761Y-80266666D01*
X107907142Y-80314285D01*
X107811904Y-80361904D01*
X107621428Y-80409523D01*
X107383333Y-80409523D01*
X107192857Y-80361904D01*
X107097619Y-80314285D01*
X107050000Y-80266666D01*
X107002380Y-80171428D01*
X162457142Y-92466666D02*
X162504761Y-92514285D01*
X162552380Y-92657142D01*
X162552380Y-92752380D01*
X162504761Y-92895238D01*
X162409523Y-92990476D01*
X162314285Y-93038095D01*
X162123809Y-93085714D01*
X161980952Y-93085714D01*
X161790476Y-93038095D01*
X161695238Y-92990476D01*
X161600000Y-92895238D01*
X161552380Y-92752380D01*
X161552380Y-92657142D01*
X161600000Y-92514285D01*
X161647619Y-92466666D01*
X161980952Y-91895238D02*
X161933333Y-91990476D01*
X161885714Y-92038095D01*
X161790476Y-92085714D01*
X161742857Y-92085714D01*
X161647619Y-92038095D01*
X161600000Y-91990476D01*
X161552380Y-91895238D01*
X161552380Y-91704761D01*
X161600000Y-91609523D01*
X161647619Y-91561904D01*
X161742857Y-91514285D01*
X161790476Y-91514285D01*
X161885714Y-91561904D01*
X161933333Y-91609523D01*
X161980952Y-91704761D01*
X161980952Y-91895238D01*
X162028571Y-91990476D01*
X162076190Y-92038095D01*
X162171428Y-92085714D01*
X162361904Y-92085714D01*
X162457142Y-92038095D01*
X162504761Y-91990476D01*
X162552380Y-91895238D01*
X162552380Y-91704761D01*
X162504761Y-91609523D01*
X162457142Y-91561904D01*
X162361904Y-91514285D01*
X162171428Y-91514285D01*
X162076190Y-91561904D01*
X162028571Y-91609523D01*
X161980952Y-91704761D01*
X165552380Y-102338095D02*
X164552380Y-102338095D01*
X164552380Y-102100000D01*
X164600000Y-101957142D01*
X164695238Y-101861904D01*
X164790476Y-101814285D01*
X164980952Y-101766666D01*
X165123809Y-101766666D01*
X165314285Y-101814285D01*
X165409523Y-101861904D01*
X165504761Y-101957142D01*
X165552380Y-102100000D01*
X165552380Y-102338095D01*
X164885714Y-100909523D02*
X165552380Y-100909523D01*
X164504761Y-101147619D02*
X165219047Y-101385714D01*
X165219047Y-100766666D01*
X148438095Y-86824380D02*
X148438095Y-87633904D01*
X148485714Y-87729142D01*
X148533333Y-87776761D01*
X148628571Y-87824380D01*
X148819047Y-87824380D01*
X148914285Y-87776761D01*
X148961904Y-87729142D01*
X149009523Y-87633904D01*
X149009523Y-86824380D01*
X150009523Y-87824380D02*
X149438095Y-87824380D01*
X149723809Y-87824380D02*
X149723809Y-86824380D01*
X149628571Y-86967238D01*
X149533333Y-87062476D01*
X149438095Y-87110095D01*
X121057142Y-122152380D02*
X120723809Y-121676190D01*
X120485714Y-122152380D02*
X120485714Y-121152380D01*
X120866666Y-121152380D01*
X120961904Y-121200000D01*
X121009523Y-121247619D01*
X121057142Y-121342857D01*
X121057142Y-121485714D01*
X121009523Y-121580952D01*
X120961904Y-121628571D01*
X120866666Y-121676190D01*
X120485714Y-121676190D01*
X121438095Y-121247619D02*
X121485714Y-121200000D01*
X121580952Y-121152380D01*
X121819047Y-121152380D01*
X121914285Y-121200000D01*
X121961904Y-121247619D01*
X122009523Y-121342857D01*
X122009523Y-121438095D01*
X121961904Y-121580952D01*
X121390476Y-122152380D01*
X122009523Y-122152380D01*
X122342857Y-121152380D02*
X122961904Y-121152380D01*
X122628571Y-121533333D01*
X122771428Y-121533333D01*
X122866666Y-121580952D01*
X122914285Y-121628571D01*
X122961904Y-121723809D01*
X122961904Y-121961904D01*
X122914285Y-122057142D01*
X122866666Y-122104761D01*
X122771428Y-122152380D01*
X122485714Y-122152380D01*
X122390476Y-122104761D01*
X122342857Y-122057142D01*
X110741666Y-69666666D02*
X110741666Y-69190476D01*
X111027380Y-69761904D02*
X110027380Y-69428571D01*
X111027380Y-69095238D01*
X110503571Y-68761904D02*
X110503571Y-68428571D01*
X111027380Y-68285714D02*
X111027380Y-68761904D01*
X110027380Y-68761904D01*
X110027380Y-68285714D01*
X110122619Y-67904761D02*
X110075000Y-67857142D01*
X110027380Y-67761904D01*
X110027380Y-67523809D01*
X110075000Y-67428571D01*
X110122619Y-67380952D01*
X110217857Y-67333333D01*
X110313095Y-67333333D01*
X110455952Y-67380952D01*
X111027380Y-67952380D01*
X111027380Y-67333333D01*
X140957142Y-101449142D02*
X140909523Y-101496761D01*
X140766666Y-101544380D01*
X140671428Y-101544380D01*
X140528571Y-101496761D01*
X140433333Y-101401523D01*
X140385714Y-101306285D01*
X140338095Y-101115809D01*
X140338095Y-100972952D01*
X140385714Y-100782476D01*
X140433333Y-100687238D01*
X140528571Y-100592000D01*
X140671428Y-100544380D01*
X140766666Y-100544380D01*
X140909523Y-100592000D01*
X140957142Y-100639619D01*
X141909523Y-101544380D02*
X141338095Y-101544380D01*
X141623809Y-101544380D02*
X141623809Y-100544380D01*
X141528571Y-100687238D01*
X141433333Y-100782476D01*
X141338095Y-100830095D01*
X142814285Y-100544380D02*
X142338095Y-100544380D01*
X142290476Y-101020571D01*
X142338095Y-100972952D01*
X142433333Y-100925333D01*
X142671428Y-100925333D01*
X142766666Y-100972952D01*
X142814285Y-101020571D01*
X142861904Y-101115809D01*
X142861904Y-101353904D01*
X142814285Y-101449142D01*
X142766666Y-101496761D01*
X142671428Y-101544380D01*
X142433333Y-101544380D01*
X142338095Y-101496761D01*
X142290476Y-101449142D01*
X110779618Y-126515236D02*
X110914305Y-126447893D01*
X111082664Y-126279534D01*
X111116336Y-126178519D01*
X111116336Y-126111175D01*
X111082664Y-126010160D01*
X111015321Y-125942817D01*
X110914305Y-125909145D01*
X110846962Y-125909145D01*
X110745947Y-125942817D01*
X110577588Y-126043832D01*
X110476573Y-126077504D01*
X110409229Y-126077504D01*
X110308214Y-126043832D01*
X110240870Y-125976488D01*
X110207199Y-125875473D01*
X110207199Y-125808130D01*
X110240870Y-125707114D01*
X110409229Y-125538756D01*
X110543916Y-125471412D01*
X110745947Y-125202038D02*
X111621412Y-125740786D01*
X111251023Y-125101023D01*
X111890786Y-125471412D01*
X111352038Y-124595947D01*
X112698908Y-124663290D02*
X112294847Y-125067351D01*
X112496878Y-124865321D02*
X111789771Y-124158214D01*
X111823443Y-124326573D01*
X111823443Y-124461260D01*
X111789771Y-124562275D01*
X134666666Y-139152380D02*
X134666666Y-139866666D01*
X134619047Y-140009523D01*
X134523809Y-140104761D01*
X134380952Y-140152380D01*
X134285714Y-140152380D01*
X135666666Y-140152380D02*
X135095238Y-140152380D01*
X135380952Y-140152380D02*
X135380952Y-139152380D01*
X135285714Y-139295238D01*
X135190476Y-139390476D01*
X135095238Y-139438095D01*
X114102380Y-104716666D02*
X113626190Y-105050000D01*
X114102380Y-105288095D02*
X113102380Y-105288095D01*
X113102380Y-104907142D01*
X113150000Y-104811904D01*
X113197619Y-104764285D01*
X113292857Y-104716666D01*
X113435714Y-104716666D01*
X113530952Y-104764285D01*
X113578571Y-104811904D01*
X113626190Y-104907142D01*
X113626190Y-105288095D01*
X114102380Y-104240476D02*
X114102380Y-104050000D01*
X114054761Y-103954761D01*
X114007142Y-103907142D01*
X113864285Y-103811904D01*
X113673809Y-103764285D01*
X113292857Y-103764285D01*
X113197619Y-103811904D01*
X113150000Y-103859523D01*
X113102380Y-103954761D01*
X113102380Y-104145238D01*
X113150000Y-104240476D01*
X113197619Y-104288095D01*
X113292857Y-104335714D01*
X113530952Y-104335714D01*
X113626190Y-104288095D01*
X113673809Y-104240476D01*
X113721428Y-104145238D01*
X113721428Y-103954761D01*
X113673809Y-103859523D01*
X113626190Y-103811904D01*
X113530952Y-103764285D01*
X157932380Y-96654857D02*
X157932380Y-97131047D01*
X156932380Y-97131047D01*
X157884761Y-96369142D02*
X157932380Y-96226285D01*
X157932380Y-95988190D01*
X157884761Y-95892952D01*
X157837142Y-95845333D01*
X157741904Y-95797714D01*
X157646666Y-95797714D01*
X157551428Y-95845333D01*
X157503809Y-95892952D01*
X157456190Y-95988190D01*
X157408571Y-96178666D01*
X157360952Y-96273904D01*
X157313333Y-96321523D01*
X157218095Y-96369142D01*
X157122857Y-96369142D01*
X157027619Y-96321523D01*
X156980000Y-96273904D01*
X156932380Y-96178666D01*
X156932380Y-95940571D01*
X156980000Y-95797714D01*
X157932380Y-94845333D02*
X157932380Y-95416761D01*
X157932380Y-95131047D02*
X156932380Y-95131047D01*
X157075238Y-95226285D01*
X157170476Y-95321523D01*
X157218095Y-95416761D01*
X124801333Y-73604380D02*
X124468000Y-73128190D01*
X124229904Y-73604380D02*
X124229904Y-72604380D01*
X124610857Y-72604380D01*
X124706095Y-72652000D01*
X124753714Y-72699619D01*
X124801333Y-72794857D01*
X124801333Y-72937714D01*
X124753714Y-73032952D01*
X124706095Y-73080571D01*
X124610857Y-73128190D01*
X124229904Y-73128190D01*
X125134666Y-72604380D02*
X125801333Y-72604380D01*
X125372761Y-73604380D01*
X143510095Y-127540380D02*
X143510095Y-128349904D01*
X143557714Y-128445142D01*
X143605333Y-128492761D01*
X143700571Y-128540380D01*
X143891047Y-128540380D01*
X143986285Y-128492761D01*
X144033904Y-128445142D01*
X144081523Y-128349904D01*
X144081523Y-127540380D01*
X144986285Y-127873714D02*
X144986285Y-128540380D01*
X144748190Y-127492761D02*
X144510095Y-128207047D01*
X145129142Y-128207047D01*
X141866666Y-148904761D02*
X142009523Y-148952380D01*
X142247619Y-148952380D01*
X142342857Y-148904761D01*
X142390476Y-148857142D01*
X142438095Y-148761904D01*
X142438095Y-148666666D01*
X142390476Y-148571428D01*
X142342857Y-148523809D01*
X142247619Y-148476190D01*
X142057142Y-148428571D01*
X141961904Y-148380952D01*
X141914285Y-148333333D01*
X141866666Y-148238095D01*
X141866666Y-148142857D01*
X141914285Y-148047619D01*
X141961904Y-148000000D01*
X142057142Y-147952380D01*
X142295238Y-147952380D01*
X142438095Y-148000000D01*
X142771428Y-147952380D02*
X143009523Y-148952380D01*
X143200000Y-148238095D01*
X143390476Y-148952380D01*
X143628571Y-147952380D01*
X144438095Y-147952380D02*
X144247619Y-147952380D01*
X144152380Y-148000000D01*
X144104761Y-148047619D01*
X144009523Y-148190476D01*
X143961904Y-148380952D01*
X143961904Y-148761904D01*
X144009523Y-148857142D01*
X144057142Y-148904761D01*
X144152380Y-148952380D01*
X144342857Y-148952380D01*
X144438095Y-148904761D01*
X144485714Y-148857142D01*
X144533333Y-148761904D01*
X144533333Y-148523809D01*
X144485714Y-148428571D01*
X144438095Y-148380952D01*
X144342857Y-148333333D01*
X144152380Y-148333333D01*
X144057142Y-148380952D01*
X144009523Y-148428571D01*
X143961904Y-148523809D01*
X110779618Y-141815236D02*
X110914305Y-141747893D01*
X111082664Y-141579534D01*
X111116336Y-141478519D01*
X111116336Y-141411175D01*
X111082664Y-141310160D01*
X111015321Y-141242817D01*
X110914305Y-141209145D01*
X110846962Y-141209145D01*
X110745947Y-141242817D01*
X110577588Y-141343832D01*
X110476573Y-141377504D01*
X110409229Y-141377504D01*
X110308214Y-141343832D01*
X110240870Y-141276488D01*
X110207199Y-141175473D01*
X110207199Y-141108130D01*
X110240870Y-141007114D01*
X110409229Y-140838756D01*
X110543916Y-140771412D01*
X110745947Y-140502038D02*
X111621412Y-141040786D01*
X111251023Y-140401023D01*
X111890786Y-140771412D01*
X111352038Y-139895947D01*
X111655084Y-139727588D02*
X111655084Y-139660244D01*
X111688756Y-139559229D01*
X111857114Y-139390870D01*
X111958130Y-139357199D01*
X112025473Y-139357199D01*
X112126488Y-139390870D01*
X112193832Y-139458214D01*
X112261175Y-139592901D01*
X112261175Y-140401023D01*
X112698908Y-139963290D01*
X151757142Y-132532380D02*
X151423809Y-132056190D01*
X151185714Y-132532380D02*
X151185714Y-131532380D01*
X151566666Y-131532380D01*
X151661904Y-131580000D01*
X151709523Y-131627619D01*
X151757142Y-131722857D01*
X151757142Y-131865714D01*
X151709523Y-131960952D01*
X151661904Y-132008571D01*
X151566666Y-132056190D01*
X151185714Y-132056190D01*
X152138095Y-131627619D02*
X152185714Y-131580000D01*
X152280952Y-131532380D01*
X152519047Y-131532380D01*
X152614285Y-131580000D01*
X152661904Y-131627619D01*
X152709523Y-131722857D01*
X152709523Y-131818095D01*
X152661904Y-131960952D01*
X152090476Y-132532380D01*
X152709523Y-132532380D01*
X153566666Y-131865714D02*
X153566666Y-132532380D01*
X153328571Y-131484761D02*
X153090476Y-132199047D01*
X153709523Y-132199047D01*
X146558095Y-92924380D02*
X146558095Y-93733904D01*
X146605714Y-93829142D01*
X146653333Y-93876761D01*
X146748571Y-93924380D01*
X146939047Y-93924380D01*
X147034285Y-93876761D01*
X147081904Y-93829142D01*
X147129523Y-93733904D01*
X147129523Y-92924380D01*
X147748571Y-93352952D02*
X147653333Y-93305333D01*
X147605714Y-93257714D01*
X147558095Y-93162476D01*
X147558095Y-93114857D01*
X147605714Y-93019619D01*
X147653333Y-92972000D01*
X147748571Y-92924380D01*
X147939047Y-92924380D01*
X148034285Y-92972000D01*
X148081904Y-93019619D01*
X148129523Y-93114857D01*
X148129523Y-93162476D01*
X148081904Y-93257714D01*
X148034285Y-93305333D01*
X147939047Y-93352952D01*
X147748571Y-93352952D01*
X147653333Y-93400571D01*
X147605714Y-93448190D01*
X147558095Y-93543428D01*
X147558095Y-93733904D01*
X147605714Y-93829142D01*
X147653333Y-93876761D01*
X147748571Y-93924380D01*
X147939047Y-93924380D01*
X148034285Y-93876761D01*
X148081904Y-93829142D01*
X148129523Y-93733904D01*
X148129523Y-93543428D01*
X148081904Y-93448190D01*
X148034285Y-93400571D01*
X147939047Y-93352952D01*
X158345142Y-89542857D02*
X158392761Y-89590476D01*
X158440380Y-89733333D01*
X158440380Y-89828571D01*
X158392761Y-89971428D01*
X158297523Y-90066666D01*
X158202285Y-90114285D01*
X158011809Y-90161904D01*
X157868952Y-90161904D01*
X157678476Y-90114285D01*
X157583238Y-90066666D01*
X157488000Y-89971428D01*
X157440380Y-89828571D01*
X157440380Y-89733333D01*
X157488000Y-89590476D01*
X157535619Y-89542857D01*
X158440380Y-88590476D02*
X158440380Y-89161904D01*
X158440380Y-88876190D02*
X157440380Y-88876190D01*
X157583238Y-88971428D01*
X157678476Y-89066666D01*
X157726095Y-89161904D01*
X158440380Y-87638095D02*
X158440380Y-88209523D01*
X158440380Y-87923809D02*
X157440380Y-87923809D01*
X157583238Y-88019047D01*
X157678476Y-88114285D01*
X157726095Y-88209523D01*
X167036761Y-128655619D02*
X166941523Y-128608000D01*
X166846285Y-128512761D01*
X166703428Y-128369904D01*
X166608190Y-128322285D01*
X166512952Y-128322285D01*
X166560571Y-128560380D02*
X166465333Y-128512761D01*
X166370095Y-128417523D01*
X166322476Y-128227047D01*
X166322476Y-127893714D01*
X166370095Y-127703238D01*
X166465333Y-127608000D01*
X166560571Y-127560380D01*
X166751047Y-127560380D01*
X166846285Y-127608000D01*
X166941523Y-127703238D01*
X166989142Y-127893714D01*
X166989142Y-128227047D01*
X166941523Y-128417523D01*
X166846285Y-128512761D01*
X166751047Y-128560380D01*
X166560571Y-128560380D01*
X167941523Y-128560380D02*
X167370095Y-128560380D01*
X167655809Y-128560380D02*
X167655809Y-127560380D01*
X167560571Y-127703238D01*
X167465333Y-127798476D01*
X167370095Y-127846095D01*
X159964380Y-89542857D02*
X159488190Y-89876190D01*
X159964380Y-90114285D02*
X158964380Y-90114285D01*
X158964380Y-89733333D01*
X159012000Y-89638095D01*
X159059619Y-89590476D01*
X159154857Y-89542857D01*
X159297714Y-89542857D01*
X159392952Y-89590476D01*
X159440571Y-89638095D01*
X159488190Y-89733333D01*
X159488190Y-90114285D01*
X159964380Y-88590476D02*
X159964380Y-89161904D01*
X159964380Y-88876190D02*
X158964380Y-88876190D01*
X159107238Y-88971428D01*
X159202476Y-89066666D01*
X159250095Y-89161904D01*
X158964380Y-88257142D02*
X158964380Y-87638095D01*
X159345333Y-87971428D01*
X159345333Y-87828571D01*
X159392952Y-87733333D01*
X159440571Y-87685714D01*
X159535809Y-87638095D01*
X159773904Y-87638095D01*
X159869142Y-87685714D01*
X159916761Y-87733333D01*
X159964380Y-87828571D01*
X159964380Y-88114285D01*
X159916761Y-88209523D01*
X159869142Y-88257142D01*
X156043333Y-129897142D02*
X155995714Y-129944761D01*
X155852857Y-129992380D01*
X155757619Y-129992380D01*
X155614761Y-129944761D01*
X155519523Y-129849523D01*
X155471904Y-129754285D01*
X155424285Y-129563809D01*
X155424285Y-129420952D01*
X155471904Y-129230476D01*
X155519523Y-129135238D01*
X155614761Y-129040000D01*
X155757619Y-128992380D01*
X155852857Y-128992380D01*
X155995714Y-129040000D01*
X156043333Y-129087619D01*
X156376666Y-128992380D02*
X157043333Y-128992380D01*
X156614761Y-129992380D01*
X157452380Y-144152857D02*
X156976190Y-144486190D01*
X157452380Y-144724285D02*
X156452380Y-144724285D01*
X156452380Y-144343333D01*
X156500000Y-144248095D01*
X156547619Y-144200476D01*
X156642857Y-144152857D01*
X156785714Y-144152857D01*
X156880952Y-144200476D01*
X156928571Y-144248095D01*
X156976190Y-144343333D01*
X156976190Y-144724285D01*
X156547619Y-143771904D02*
X156500000Y-143724285D01*
X156452380Y-143629047D01*
X156452380Y-143390952D01*
X156500000Y-143295714D01*
X156547619Y-143248095D01*
X156642857Y-143200476D01*
X156738095Y-143200476D01*
X156880952Y-143248095D01*
X157452380Y-143819523D01*
X157452380Y-143200476D01*
X157452380Y-142248095D02*
X157452380Y-142819523D01*
X157452380Y-142533809D02*
X156452380Y-142533809D01*
X156595238Y-142629047D01*
X156690476Y-142724285D01*
X156738095Y-142819523D01*
X125133333Y-122057142D02*
X125085714Y-122104761D01*
X124942857Y-122152380D01*
X124847619Y-122152380D01*
X124704761Y-122104761D01*
X124609523Y-122009523D01*
X124561904Y-121914285D01*
X124514285Y-121723809D01*
X124514285Y-121580952D01*
X124561904Y-121390476D01*
X124609523Y-121295238D01*
X124704761Y-121200000D01*
X124847619Y-121152380D01*
X124942857Y-121152380D01*
X125085714Y-121200000D01*
X125133333Y-121247619D01*
X125990476Y-121485714D02*
X125990476Y-122152380D01*
X125752380Y-121104761D02*
X125514285Y-121819047D01*
X126133333Y-121819047D01*
X135454380Y-137326666D02*
X134978190Y-137660000D01*
X135454380Y-137898095D02*
X134454380Y-137898095D01*
X134454380Y-137517142D01*
X134502000Y-137421904D01*
X134549619Y-137374285D01*
X134644857Y-137326666D01*
X134787714Y-137326666D01*
X134882952Y-137374285D01*
X134930571Y-137421904D01*
X134978190Y-137517142D01*
X134978190Y-137898095D01*
X134787714Y-136469523D02*
X135454380Y-136469523D01*
X134406761Y-136707619D02*
X135121047Y-136945714D01*
X135121047Y-136326666D01*
X110366666Y-77752380D02*
X110366666Y-78466666D01*
X110319047Y-78609523D01*
X110223809Y-78704761D01*
X110080952Y-78752380D01*
X109985714Y-78752380D01*
X110842857Y-78752380D02*
X110842857Y-77752380D01*
X111223809Y-77752380D01*
X111319047Y-77800000D01*
X111366666Y-77847619D01*
X111414285Y-77942857D01*
X111414285Y-78085714D01*
X111366666Y-78180952D01*
X111319047Y-78228571D01*
X111223809Y-78276190D01*
X110842857Y-78276190D01*
X112366666Y-78752380D02*
X111795238Y-78752380D01*
X112080952Y-78752380D02*
X112080952Y-77752380D01*
X111985714Y-77895238D01*
X111890476Y-77990476D01*
X111795238Y-78038095D01*
X108166666Y-77352380D02*
X108785714Y-77352380D01*
X108452380Y-77733333D01*
X108595238Y-77733333D01*
X108690476Y-77780952D01*
X108738095Y-77828571D01*
X108785714Y-77923809D01*
X108785714Y-78161904D01*
X108738095Y-78257142D01*
X108690476Y-78304761D01*
X108595238Y-78352380D01*
X108309523Y-78352380D01*
X108214285Y-78304761D01*
X108166666Y-78257142D01*
X103585714Y-78352380D02*
X103014285Y-78352380D01*
X103300000Y-78352380D02*
X103300000Y-77352380D01*
X103204761Y-77495238D01*
X103109523Y-77590476D01*
X103014285Y-77638095D01*
X145573809Y-126976190D02*
X145573809Y-127452380D01*
X145240476Y-126452380D02*
X145573809Y-126976190D01*
X145907142Y-126452380D01*
X146764285Y-127452380D02*
X146192857Y-127452380D01*
X146478571Y-127452380D02*
X146478571Y-126452380D01*
X146383333Y-126595238D01*
X146288095Y-126690476D01*
X146192857Y-126738095D01*
X124801333Y-75128380D02*
X124468000Y-74652190D01*
X124229904Y-75128380D02*
X124229904Y-74128380D01*
X124610857Y-74128380D01*
X124706095Y-74176000D01*
X124753714Y-74223619D01*
X124801333Y-74318857D01*
X124801333Y-74461714D01*
X124753714Y-74556952D01*
X124706095Y-74604571D01*
X124610857Y-74652190D01*
X124229904Y-74652190D01*
X125658476Y-74128380D02*
X125468000Y-74128380D01*
X125372761Y-74176000D01*
X125325142Y-74223619D01*
X125229904Y-74366476D01*
X125182285Y-74556952D01*
X125182285Y-74937904D01*
X125229904Y-75033142D01*
X125277523Y-75080761D01*
X125372761Y-75128380D01*
X125563238Y-75128380D01*
X125658476Y-75080761D01*
X125706095Y-75033142D01*
X125753714Y-74937904D01*
X125753714Y-74699809D01*
X125706095Y-74604571D01*
X125658476Y-74556952D01*
X125563238Y-74509333D01*
X125372761Y-74509333D01*
X125277523Y-74556952D01*
X125229904Y-74604571D01*
X125182285Y-74699809D01*
X101449142Y-75318857D02*
X101496761Y-75366476D01*
X101544380Y-75509333D01*
X101544380Y-75604571D01*
X101496761Y-75747428D01*
X101401523Y-75842666D01*
X101306285Y-75890285D01*
X101115809Y-75937904D01*
X100972952Y-75937904D01*
X100782476Y-75890285D01*
X100687238Y-75842666D01*
X100592000Y-75747428D01*
X100544380Y-75604571D01*
X100544380Y-75509333D01*
X100592000Y-75366476D01*
X100639619Y-75318857D01*
X101544380Y-74366476D02*
X101544380Y-74937904D01*
X101544380Y-74652190D02*
X100544380Y-74652190D01*
X100687238Y-74747428D01*
X100782476Y-74842666D01*
X100830095Y-74937904D01*
X100544380Y-74033142D02*
X100544380Y-73414095D01*
X100925333Y-73747428D01*
X100925333Y-73604571D01*
X100972952Y-73509333D01*
X101020571Y-73461714D01*
X101115809Y-73414095D01*
X101353904Y-73414095D01*
X101449142Y-73461714D01*
X101496761Y-73509333D01*
X101544380Y-73604571D01*
X101544380Y-73890285D01*
X101496761Y-73985523D01*
X101449142Y-74033142D01*
X126738095Y-126452380D02*
X126738095Y-127261904D01*
X126785714Y-127357142D01*
X126833333Y-127404761D01*
X126928571Y-127452380D01*
X127119047Y-127452380D01*
X127214285Y-127404761D01*
X127261904Y-127357142D01*
X127309523Y-127261904D01*
X127309523Y-126452380D01*
X128261904Y-126452380D02*
X127785714Y-126452380D01*
X127738095Y-126928571D01*
X127785714Y-126880952D01*
X127880952Y-126833333D01*
X128119047Y-126833333D01*
X128214285Y-126880952D01*
X128261904Y-126928571D01*
X128309523Y-127023809D01*
X128309523Y-127261904D01*
X128261904Y-127357142D01*
X128214285Y-127404761D01*
X128119047Y-127452380D01*
X127880952Y-127452380D01*
X127785714Y-127404761D01*
X127738095Y-127357142D01*
X134238095Y-84542380D02*
X134238095Y-85351904D01*
X134285714Y-85447142D01*
X134333333Y-85494761D01*
X134428571Y-85542380D01*
X134619047Y-85542380D01*
X134714285Y-85494761D01*
X134761904Y-85447142D01*
X134809523Y-85351904D01*
X134809523Y-84542380D01*
X135190476Y-84542380D02*
X135809523Y-84542380D01*
X135476190Y-84923333D01*
X135619047Y-84923333D01*
X135714285Y-84970952D01*
X135761904Y-85018571D01*
X135809523Y-85113809D01*
X135809523Y-85351904D01*
X135761904Y-85447142D01*
X135714285Y-85494761D01*
X135619047Y-85542380D01*
X135333333Y-85542380D01*
X135238095Y-85494761D01*
X135190476Y-85447142D01*
X134238095Y-88352380D02*
X134238095Y-89161904D01*
X134285714Y-89257142D01*
X134333333Y-89304761D01*
X134428571Y-89352380D01*
X134619047Y-89352380D01*
X134714285Y-89304761D01*
X134761904Y-89257142D01*
X134809523Y-89161904D01*
X134809523Y-88352380D01*
X135714285Y-88352380D02*
X135523809Y-88352380D01*
X135428571Y-88400000D01*
X135380952Y-88447619D01*
X135285714Y-88590476D01*
X135238095Y-88780952D01*
X135238095Y-89161904D01*
X135285714Y-89257142D01*
X135333333Y-89304761D01*
X135428571Y-89352380D01*
X135619047Y-89352380D01*
X135714285Y-89304761D01*
X135761904Y-89257142D01*
X135809523Y-89161904D01*
X135809523Y-88923809D01*
X135761904Y-88828571D01*
X135714285Y-88780952D01*
X135619047Y-88733333D01*
X135428571Y-88733333D01*
X135333333Y-88780952D01*
X135285714Y-88828571D01*
X135238095Y-88923809D01*
X106545142Y-69953142D02*
X106497523Y-70000761D01*
X106354666Y-70048380D01*
X106259428Y-70048380D01*
X106116571Y-70000761D01*
X106021333Y-69905523D01*
X105973714Y-69810285D01*
X105926095Y-69619809D01*
X105926095Y-69476952D01*
X105973714Y-69286476D01*
X106021333Y-69191238D01*
X106116571Y-69096000D01*
X106259428Y-69048380D01*
X106354666Y-69048380D01*
X106497523Y-69096000D01*
X106545142Y-69143619D01*
X107497523Y-70048380D02*
X106926095Y-70048380D01*
X107211809Y-70048380D02*
X107211809Y-69048380D01*
X107116571Y-69191238D01*
X107021333Y-69286476D01*
X106926095Y-69334095D01*
X108354666Y-69381714D02*
X108354666Y-70048380D01*
X108116571Y-69000761D02*
X107878476Y-69715047D01*
X108497523Y-69715047D01*
X156966666Y-148904761D02*
X157109523Y-148952380D01*
X157347619Y-148952380D01*
X157442857Y-148904761D01*
X157490476Y-148857142D01*
X157538095Y-148761904D01*
X157538095Y-148666666D01*
X157490476Y-148571428D01*
X157442857Y-148523809D01*
X157347619Y-148476190D01*
X157157142Y-148428571D01*
X157061904Y-148380952D01*
X157014285Y-148333333D01*
X156966666Y-148238095D01*
X156966666Y-148142857D01*
X157014285Y-148047619D01*
X157061904Y-148000000D01*
X157157142Y-147952380D01*
X157395238Y-147952380D01*
X157538095Y-148000000D01*
X157871428Y-147952380D02*
X158109523Y-148952380D01*
X158300000Y-148238095D01*
X158490476Y-148952380D01*
X158728571Y-147952380D01*
X159585714Y-147952380D02*
X159109523Y-147952380D01*
X159061904Y-148428571D01*
X159109523Y-148380952D01*
X159204761Y-148333333D01*
X159442857Y-148333333D01*
X159538095Y-148380952D01*
X159585714Y-148428571D01*
X159633333Y-148523809D01*
X159633333Y-148761904D01*
X159585714Y-148857142D01*
X159538095Y-148904761D01*
X159442857Y-148952380D01*
X159204761Y-148952380D01*
X159109523Y-148904761D01*
X159061904Y-148857142D01*
X145461904Y-75352380D02*
X145461904Y-74352380D01*
X145700000Y-74352380D01*
X145842857Y-74400000D01*
X145938095Y-74495238D01*
X145985714Y-74590476D01*
X146033333Y-74780952D01*
X146033333Y-74923809D01*
X145985714Y-75114285D01*
X145938095Y-75209523D01*
X145842857Y-75304761D01*
X145700000Y-75352380D01*
X145461904Y-75352380D01*
X146938095Y-74352380D02*
X146461904Y-74352380D01*
X146414285Y-74828571D01*
X146461904Y-74780952D01*
X146557142Y-74733333D01*
X146795238Y-74733333D01*
X146890476Y-74780952D01*
X146938095Y-74828571D01*
X146985714Y-74923809D01*
X146985714Y-75161904D01*
X146938095Y-75257142D01*
X146890476Y-75304761D01*
X146795238Y-75352380D01*
X146557142Y-75352380D01*
X146461904Y-75304761D01*
X146414285Y-75257142D01*
X143157142Y-75352380D02*
X142823809Y-74876190D01*
X142585714Y-75352380D02*
X142585714Y-74352380D01*
X142966666Y-74352380D01*
X143061904Y-74400000D01*
X143109523Y-74447619D01*
X143157142Y-74542857D01*
X143157142Y-74685714D01*
X143109523Y-74780952D01*
X143061904Y-74828571D01*
X142966666Y-74876190D01*
X142585714Y-74876190D01*
X144109523Y-75352380D02*
X143538095Y-75352380D01*
X143823809Y-75352380D02*
X143823809Y-74352380D01*
X143728571Y-74495238D01*
X143633333Y-74590476D01*
X143538095Y-74638095D01*
X144966666Y-74352380D02*
X144776190Y-74352380D01*
X144680952Y-74400000D01*
X144633333Y-74447619D01*
X144538095Y-74590476D01*
X144490476Y-74780952D01*
X144490476Y-75161904D01*
X144538095Y-75257142D01*
X144585714Y-75304761D01*
X144680952Y-75352380D01*
X144871428Y-75352380D01*
X144966666Y-75304761D01*
X145014285Y-75257142D01*
X145061904Y-75161904D01*
X145061904Y-74923809D01*
X145014285Y-74828571D01*
X144966666Y-74780952D01*
X144871428Y-74733333D01*
X144680952Y-74733333D01*
X144585714Y-74780952D01*
X144538095Y-74828571D01*
X144490476Y-74923809D01*
X108089142Y-74876666D02*
X108136761Y-74924285D01*
X108184380Y-75067142D01*
X108184380Y-75162380D01*
X108136761Y-75305238D01*
X108041523Y-75400476D01*
X107946285Y-75448095D01*
X107755809Y-75495714D01*
X107612952Y-75495714D01*
X107422476Y-75448095D01*
X107327238Y-75400476D01*
X107232000Y-75305238D01*
X107184380Y-75162380D01*
X107184380Y-75067142D01*
X107232000Y-74924285D01*
X107279619Y-74876666D01*
X108184380Y-74400476D02*
X108184380Y-74210000D01*
X108136761Y-74114761D01*
X108089142Y-74067142D01*
X107946285Y-73971904D01*
X107755809Y-73924285D01*
X107374857Y-73924285D01*
X107279619Y-73971904D01*
X107232000Y-74019523D01*
X107184380Y-74114761D01*
X107184380Y-74305238D01*
X107232000Y-74400476D01*
X107279619Y-74448095D01*
X107374857Y-74495714D01*
X107612952Y-74495714D01*
X107708190Y-74448095D01*
X107755809Y-74400476D01*
X107803428Y-74305238D01*
X107803428Y-74114761D01*
X107755809Y-74019523D01*
X107708190Y-73971904D01*
X107612952Y-73924285D01*
X118409618Y-134165236D02*
X118544305Y-134097893D01*
X118712664Y-133929534D01*
X118746336Y-133828519D01*
X118746336Y-133761175D01*
X118712664Y-133660160D01*
X118645321Y-133592817D01*
X118544305Y-133559145D01*
X118476962Y-133559145D01*
X118375947Y-133592817D01*
X118207588Y-133693832D01*
X118106573Y-133727504D01*
X118039229Y-133727504D01*
X117938214Y-133693832D01*
X117870870Y-133626488D01*
X117837199Y-133525473D01*
X117837199Y-133458130D01*
X117870870Y-133357114D01*
X118039229Y-133188756D01*
X118173916Y-133121412D01*
X118375947Y-132852038D02*
X119251412Y-133390786D01*
X118881023Y-132751023D01*
X119520786Y-133121412D01*
X118982038Y-132245947D01*
X119790160Y-131909229D02*
X120261565Y-132380634D01*
X119352427Y-131808214D02*
X119689145Y-132481649D01*
X120126878Y-132043916D01*
X130882380Y-137326666D02*
X130406190Y-137660000D01*
X130882380Y-137898095D02*
X129882380Y-137898095D01*
X129882380Y-137517142D01*
X129930000Y-137421904D01*
X129977619Y-137374285D01*
X130072857Y-137326666D01*
X130215714Y-137326666D01*
X130310952Y-137374285D01*
X130358571Y-137421904D01*
X130406190Y-137517142D01*
X130406190Y-137898095D01*
X129882380Y-136421904D02*
X129882380Y-136898095D01*
X130358571Y-136945714D01*
X130310952Y-136898095D01*
X130263333Y-136802857D01*
X130263333Y-136564761D01*
X130310952Y-136469523D01*
X130358571Y-136421904D01*
X130453809Y-136374285D01*
X130691904Y-136374285D01*
X130787142Y-136421904D01*
X130834761Y-136469523D01*
X130882380Y-136564761D01*
X130882380Y-136802857D01*
X130834761Y-136898095D01*
X130787142Y-136945714D01*
X116738095Y-74302380D02*
X116738095Y-75111904D01*
X116785714Y-75207142D01*
X116833333Y-75254761D01*
X116928571Y-75302380D01*
X117119047Y-75302380D01*
X117214285Y-75254761D01*
X117261904Y-75207142D01*
X117309523Y-75111904D01*
X117309523Y-74302380D01*
X117690476Y-74302380D02*
X118357142Y-74302380D01*
X117928571Y-75302380D01*
X167036761Y-134243619D02*
X166941523Y-134196000D01*
X166846285Y-134100761D01*
X166703428Y-133957904D01*
X166608190Y-133910285D01*
X166512952Y-133910285D01*
X166560571Y-134148380D02*
X166465333Y-134100761D01*
X166370095Y-134005523D01*
X166322476Y-133815047D01*
X166322476Y-133481714D01*
X166370095Y-133291238D01*
X166465333Y-133196000D01*
X166560571Y-133148380D01*
X166751047Y-133148380D01*
X166846285Y-133196000D01*
X166941523Y-133291238D01*
X166989142Y-133481714D01*
X166989142Y-133815047D01*
X166941523Y-134005523D01*
X166846285Y-134100761D01*
X166751047Y-134148380D01*
X166560571Y-134148380D01*
X167370095Y-133243619D02*
X167417714Y-133196000D01*
X167512952Y-133148380D01*
X167751047Y-133148380D01*
X167846285Y-133196000D01*
X167893904Y-133243619D01*
X167941523Y-133338857D01*
X167941523Y-133434095D01*
X167893904Y-133576952D01*
X167322476Y-134148380D01*
X167941523Y-134148380D01*
X161362380Y-131166666D02*
X160886190Y-131500000D01*
X161362380Y-131738095D02*
X160362380Y-131738095D01*
X160362380Y-131357142D01*
X160410000Y-131261904D01*
X160457619Y-131214285D01*
X160552857Y-131166666D01*
X160695714Y-131166666D01*
X160790952Y-131214285D01*
X160838571Y-131261904D01*
X160886190Y-131357142D01*
X160886190Y-131738095D01*
X160457619Y-130785714D02*
X160410000Y-130738095D01*
X160362380Y-130642857D01*
X160362380Y-130404761D01*
X160410000Y-130309523D01*
X160457619Y-130261904D01*
X160552857Y-130214285D01*
X160648095Y-130214285D01*
X160790952Y-130261904D01*
X161362380Y-130833333D01*
X161362380Y-130214285D01*
X154666666Y-102904761D02*
X154809523Y-102952380D01*
X155047619Y-102952380D01*
X155142857Y-102904761D01*
X155190476Y-102857142D01*
X155238095Y-102761904D01*
X155238095Y-102666666D01*
X155190476Y-102571428D01*
X155142857Y-102523809D01*
X155047619Y-102476190D01*
X154857142Y-102428571D01*
X154761904Y-102380952D01*
X154714285Y-102333333D01*
X154666666Y-102238095D01*
X154666666Y-102142857D01*
X154714285Y-102047619D01*
X154761904Y-102000000D01*
X154857142Y-101952380D01*
X155095238Y-101952380D01*
X155238095Y-102000000D01*
X155571428Y-101952380D02*
X155809523Y-102952380D01*
X156000000Y-102238095D01*
X156190476Y-102952380D01*
X156428571Y-101952380D01*
X156857142Y-102952380D02*
X157047619Y-102952380D01*
X157142857Y-102904761D01*
X157190476Y-102857142D01*
X157285714Y-102714285D01*
X157333333Y-102523809D01*
X157333333Y-102142857D01*
X157285714Y-102047619D01*
X157238095Y-102000000D01*
X157142857Y-101952380D01*
X156952380Y-101952380D01*
X156857142Y-102000000D01*
X156809523Y-102047619D01*
X156761904Y-102142857D01*
X156761904Y-102380952D01*
X156809523Y-102476190D01*
X156857142Y-102523809D01*
X156952380Y-102571428D01*
X157142857Y-102571428D01*
X157238095Y-102523809D01*
X157285714Y-102476190D01*
X157333333Y-102380952D01*
X161393142Y-89542857D02*
X161440761Y-89590476D01*
X161488380Y-89733333D01*
X161488380Y-89828571D01*
X161440761Y-89971428D01*
X161345523Y-90066666D01*
X161250285Y-90114285D01*
X161059809Y-90161904D01*
X160916952Y-90161904D01*
X160726476Y-90114285D01*
X160631238Y-90066666D01*
X160536000Y-89971428D01*
X160488380Y-89828571D01*
X160488380Y-89733333D01*
X160536000Y-89590476D01*
X160583619Y-89542857D01*
X161488380Y-88590476D02*
X161488380Y-89161904D01*
X161488380Y-88876190D02*
X160488380Y-88876190D01*
X160631238Y-88971428D01*
X160726476Y-89066666D01*
X160774095Y-89161904D01*
X160488380Y-87971428D02*
X160488380Y-87876190D01*
X160536000Y-87780952D01*
X160583619Y-87733333D01*
X160678857Y-87685714D01*
X160869333Y-87638095D01*
X161107428Y-87638095D01*
X161297904Y-87685714D01*
X161393142Y-87733333D01*
X161440761Y-87780952D01*
X161488380Y-87876190D01*
X161488380Y-87971428D01*
X161440761Y-88066666D01*
X161393142Y-88114285D01*
X161297904Y-88161904D01*
X161107428Y-88209523D01*
X160869333Y-88209523D01*
X160678857Y-88161904D01*
X160583619Y-88114285D01*
X160536000Y-88066666D01*
X160488380Y-87971428D01*
X102952380Y-109238095D02*
X101952380Y-109238095D01*
X101952380Y-109000000D01*
X102000000Y-108857142D01*
X102095238Y-108761904D01*
X102190476Y-108714285D01*
X102380952Y-108666666D01*
X102523809Y-108666666D01*
X102714285Y-108714285D01*
X102809523Y-108761904D01*
X102904761Y-108857142D01*
X102952380Y-109000000D01*
X102952380Y-109238095D01*
X101952380Y-108333333D02*
X101952380Y-107714285D01*
X102333333Y-108047619D01*
X102333333Y-107904761D01*
X102380952Y-107809523D01*
X102428571Y-107761904D01*
X102523809Y-107714285D01*
X102761904Y-107714285D01*
X102857142Y-107761904D01*
X102904761Y-107809523D01*
X102952380Y-107904761D01*
X102952380Y-108190476D01*
X102904761Y-108285714D01*
X102857142Y-108333333D01*
X111238095Y-90552380D02*
X111238095Y-91361904D01*
X111285714Y-91457142D01*
X111333333Y-91504761D01*
X111428571Y-91552380D01*
X111619047Y-91552380D01*
X111714285Y-91504761D01*
X111761904Y-91457142D01*
X111809523Y-91361904D01*
X111809523Y-90552380D01*
X112238095Y-90647619D02*
X112285714Y-90600000D01*
X112380952Y-90552380D01*
X112619047Y-90552380D01*
X112714285Y-90600000D01*
X112761904Y-90647619D01*
X112809523Y-90742857D01*
X112809523Y-90838095D01*
X112761904Y-90980952D01*
X112190476Y-91552380D01*
X112809523Y-91552380D01*
X106802380Y-105742857D02*
X106326190Y-106076190D01*
X106802380Y-106314285D02*
X105802380Y-106314285D01*
X105802380Y-105933333D01*
X105850000Y-105838095D01*
X105897619Y-105790476D01*
X105992857Y-105742857D01*
X106135714Y-105742857D01*
X106230952Y-105790476D01*
X106278571Y-105838095D01*
X106326190Y-105933333D01*
X106326190Y-106314285D01*
X106802380Y-104790476D02*
X106802380Y-105361904D01*
X106802380Y-105076190D02*
X105802380Y-105076190D01*
X105945238Y-105171428D01*
X106040476Y-105266666D01*
X106088095Y-105361904D01*
X106802380Y-103838095D02*
X106802380Y-104409523D01*
X106802380Y-104123809D02*
X105802380Y-104123809D01*
X105945238Y-104219047D01*
X106040476Y-104314285D01*
X106088095Y-104409523D01*
X164052380Y-105742857D02*
X163576190Y-106076190D01*
X164052380Y-106314285D02*
X163052380Y-106314285D01*
X163052380Y-105933333D01*
X163100000Y-105838095D01*
X163147619Y-105790476D01*
X163242857Y-105742857D01*
X163385714Y-105742857D01*
X163480952Y-105790476D01*
X163528571Y-105838095D01*
X163576190Y-105933333D01*
X163576190Y-106314285D01*
X164052380Y-104790476D02*
X164052380Y-105361904D01*
X164052380Y-105076190D02*
X163052380Y-105076190D01*
X163195238Y-105171428D01*
X163290476Y-105266666D01*
X163338095Y-105361904D01*
X163147619Y-104409523D02*
X163100000Y-104361904D01*
X163052380Y-104266666D01*
X163052380Y-104028571D01*
X163100000Y-103933333D01*
X163147619Y-103885714D01*
X163242857Y-103838095D01*
X163338095Y-103838095D01*
X163480952Y-103885714D01*
X164052380Y-104457142D01*
X164052380Y-103838095D01*
X139882666Y-91400380D02*
X139882666Y-92114666D01*
X139835047Y-92257523D01*
X139739809Y-92352761D01*
X139596952Y-92400380D01*
X139501714Y-92400380D01*
X140358857Y-92400380D02*
X140358857Y-91400380D01*
X140739809Y-91400380D01*
X140835047Y-91448000D01*
X140882666Y-91495619D01*
X140930285Y-91590857D01*
X140930285Y-91733714D01*
X140882666Y-91828952D01*
X140835047Y-91876571D01*
X140739809Y-91924190D01*
X140358857Y-91924190D01*
X141311238Y-91495619D02*
X141358857Y-91448000D01*
X141454095Y-91400380D01*
X141692190Y-91400380D01*
X141787428Y-91448000D01*
X141835047Y-91495619D01*
X141882666Y-91590857D01*
X141882666Y-91686095D01*
X141835047Y-91828952D01*
X141263619Y-92400380D01*
X141882666Y-92400380D01*
X111934666Y-76160380D02*
X111934666Y-76874666D01*
X111887047Y-77017523D01*
X111791809Y-77112761D01*
X111648952Y-77160380D01*
X111553714Y-77160380D01*
X112363238Y-76255619D02*
X112410857Y-76208000D01*
X112506095Y-76160380D01*
X112744190Y-76160380D01*
X112839428Y-76208000D01*
X112887047Y-76255619D01*
X112934666Y-76350857D01*
X112934666Y-76446095D01*
X112887047Y-76588952D01*
X112315619Y-77160380D01*
X112934666Y-77160380D01*
X156916380Y-89542857D02*
X156440190Y-89876190D01*
X156916380Y-90114285D02*
X155916380Y-90114285D01*
X155916380Y-89733333D01*
X155964000Y-89638095D01*
X156011619Y-89590476D01*
X156106857Y-89542857D01*
X156249714Y-89542857D01*
X156344952Y-89590476D01*
X156392571Y-89638095D01*
X156440190Y-89733333D01*
X156440190Y-90114285D01*
X156916380Y-88590476D02*
X156916380Y-89161904D01*
X156916380Y-88876190D02*
X155916380Y-88876190D01*
X156059238Y-88971428D01*
X156154476Y-89066666D01*
X156202095Y-89161904D01*
X156249714Y-87733333D02*
X156916380Y-87733333D01*
X155868761Y-87971428D02*
X156583047Y-88209523D01*
X156583047Y-87590476D01*
X103149618Y-134165236D02*
X103284305Y-134097893D01*
X103452664Y-133929534D01*
X103486336Y-133828519D01*
X103486336Y-133761175D01*
X103452664Y-133660160D01*
X103385321Y-133592817D01*
X103284305Y-133559145D01*
X103216962Y-133559145D01*
X103115947Y-133592817D01*
X102947588Y-133693832D01*
X102846573Y-133727504D01*
X102779229Y-133727504D01*
X102678214Y-133693832D01*
X102610870Y-133626488D01*
X102577199Y-133525473D01*
X102577199Y-133458130D01*
X102610870Y-133357114D01*
X102779229Y-133188756D01*
X102913916Y-133121412D01*
X103115947Y-132852038D02*
X103991412Y-133390786D01*
X103621023Y-132751023D01*
X104260786Y-133121412D01*
X103722038Y-132245947D01*
X103924069Y-132043916D02*
X104361801Y-131606183D01*
X104395473Y-132111260D01*
X104496488Y-132010244D01*
X104597504Y-131976573D01*
X104664847Y-131976573D01*
X104765862Y-132010244D01*
X104934221Y-132178603D01*
X104967893Y-132279618D01*
X104967893Y-132346962D01*
X104934221Y-132447977D01*
X104732191Y-132650008D01*
X104631175Y-132683679D01*
X104563832Y-132683679D01*
X155392380Y-144152857D02*
X154916190Y-144486190D01*
X155392380Y-144724285D02*
X154392380Y-144724285D01*
X154392380Y-144343333D01*
X154440000Y-144248095D01*
X154487619Y-144200476D01*
X154582857Y-144152857D01*
X154725714Y-144152857D01*
X154820952Y-144200476D01*
X154868571Y-144248095D01*
X154916190Y-144343333D01*
X154916190Y-144724285D01*
X154487619Y-143771904D02*
X154440000Y-143724285D01*
X154392380Y-143629047D01*
X154392380Y-143390952D01*
X154440000Y-143295714D01*
X154487619Y-143248095D01*
X154582857Y-143200476D01*
X154678095Y-143200476D01*
X154820952Y-143248095D01*
X155392380Y-143819523D01*
X155392380Y-143200476D01*
X154487619Y-142819523D02*
X154440000Y-142771904D01*
X154392380Y-142676666D01*
X154392380Y-142438571D01*
X154440000Y-142343333D01*
X154487619Y-142295714D01*
X154582857Y-142248095D01*
X154678095Y-142248095D01*
X154820952Y-142295714D01*
X155392380Y-142867142D01*
X155392380Y-142248095D01*
X128526666Y-76910380D02*
X128526666Y-77624666D01*
X128479047Y-77767523D01*
X128383809Y-77862761D01*
X128240952Y-77910380D01*
X128145714Y-77910380D01*
X128907619Y-76910380D02*
X129526666Y-76910380D01*
X129193333Y-77291333D01*
X129336190Y-77291333D01*
X129431428Y-77338952D01*
X129479047Y-77386571D01*
X129526666Y-77481809D01*
X129526666Y-77719904D01*
X129479047Y-77815142D01*
X129431428Y-77862761D01*
X129336190Y-77910380D01*
X129050476Y-77910380D01*
X128955238Y-77862761D01*
X128907619Y-77815142D01*
X143597333Y-125657142D02*
X143549714Y-125704761D01*
X143406857Y-125752380D01*
X143311619Y-125752380D01*
X143168761Y-125704761D01*
X143073523Y-125609523D01*
X143025904Y-125514285D01*
X142978285Y-125323809D01*
X142978285Y-125180952D01*
X143025904Y-124990476D01*
X143073523Y-124895238D01*
X143168761Y-124800000D01*
X143311619Y-124752380D01*
X143406857Y-124752380D01*
X143549714Y-124800000D01*
X143597333Y-124847619D01*
X144502095Y-124752380D02*
X144025904Y-124752380D01*
X143978285Y-125228571D01*
X144025904Y-125180952D01*
X144121142Y-125133333D01*
X144359238Y-125133333D01*
X144454476Y-125180952D01*
X144502095Y-125228571D01*
X144549714Y-125323809D01*
X144549714Y-125561904D01*
X144502095Y-125657142D01*
X144454476Y-125704761D01*
X144359238Y-125752380D01*
X144121142Y-125752380D01*
X144025904Y-125704761D01*
X143978285Y-125657142D01*
X144629142Y-85162380D02*
X144295809Y-84686190D01*
X144057714Y-85162380D02*
X144057714Y-84162380D01*
X144438666Y-84162380D01*
X144533904Y-84210000D01*
X144581523Y-84257619D01*
X144629142Y-84352857D01*
X144629142Y-84495714D01*
X144581523Y-84590952D01*
X144533904Y-84638571D01*
X144438666Y-84686190D01*
X144057714Y-84686190D01*
X145010095Y-84257619D02*
X145057714Y-84210000D01*
X145152952Y-84162380D01*
X145391047Y-84162380D01*
X145486285Y-84210000D01*
X145533904Y-84257619D01*
X145581523Y-84352857D01*
X145581523Y-84448095D01*
X145533904Y-84590952D01*
X144962476Y-85162380D01*
X145581523Y-85162380D01*
X146200571Y-84162380D02*
X146295809Y-84162380D01*
X146391047Y-84210000D01*
X146438666Y-84257619D01*
X146486285Y-84352857D01*
X146533904Y-84543333D01*
X146533904Y-84781428D01*
X146486285Y-84971904D01*
X146438666Y-85067142D01*
X146391047Y-85114761D01*
X146295809Y-85162380D01*
X146200571Y-85162380D01*
X146105333Y-85114761D01*
X146057714Y-85067142D01*
X146010095Y-84971904D01*
X145962476Y-84781428D01*
X145962476Y-84543333D01*
X146010095Y-84352857D01*
X146057714Y-84257619D01*
X146105333Y-84210000D01*
X146200571Y-84162380D01*
X161362380Y-136262666D02*
X160886190Y-136596000D01*
X161362380Y-136834095D02*
X160362380Y-136834095D01*
X160362380Y-136453142D01*
X160410000Y-136357904D01*
X160457619Y-136310285D01*
X160552857Y-136262666D01*
X160695714Y-136262666D01*
X160790952Y-136310285D01*
X160838571Y-136357904D01*
X160886190Y-136453142D01*
X160886190Y-136834095D01*
X160362380Y-135929333D02*
X160362380Y-135310285D01*
X160743333Y-135643619D01*
X160743333Y-135500761D01*
X160790952Y-135405523D01*
X160838571Y-135357904D01*
X160933809Y-135310285D01*
X161171904Y-135310285D01*
X161267142Y-135357904D01*
X161314761Y-135405523D01*
X161362380Y-135500761D01*
X161362380Y-135786476D01*
X161314761Y-135881714D01*
X161267142Y-135929333D01*
X134389904Y-68016380D02*
X134389904Y-67016380D01*
X134628000Y-67016380D01*
X134770857Y-67064000D01*
X134866095Y-67159238D01*
X134913714Y-67254476D01*
X134961333Y-67444952D01*
X134961333Y-67587809D01*
X134913714Y-67778285D01*
X134866095Y-67873523D01*
X134770857Y-67968761D01*
X134628000Y-68016380D01*
X134389904Y-68016380D01*
X135913714Y-68016380D02*
X135342285Y-68016380D01*
X135628000Y-68016380D02*
X135628000Y-67016380D01*
X135532761Y-67159238D01*
X135437523Y-67254476D01*
X135342285Y-67302095D01*
X162964761Y-100393333D02*
X163012380Y-100250476D01*
X163012380Y-100012380D01*
X162964761Y-99917142D01*
X162917142Y-99869523D01*
X162821904Y-99821904D01*
X162726666Y-99821904D01*
X162631428Y-99869523D01*
X162583809Y-99917142D01*
X162536190Y-100012380D01*
X162488571Y-100202857D01*
X162440952Y-100298095D01*
X162393333Y-100345714D01*
X162298095Y-100393333D01*
X162202857Y-100393333D01*
X162107619Y-100345714D01*
X162060000Y-100298095D01*
X162012380Y-100202857D01*
X162012380Y-99964761D01*
X162060000Y-99821904D01*
X162012380Y-99488571D02*
X163012380Y-99250476D01*
X162298095Y-99060000D01*
X163012380Y-98869523D01*
X162012380Y-98631428D01*
X162012380Y-98345714D02*
X162012380Y-97679047D01*
X163012380Y-98107619D01*
X119102380Y-104716666D02*
X118626190Y-105050000D01*
X119102380Y-105288095D02*
X118102380Y-105288095D01*
X118102380Y-104907142D01*
X118150000Y-104811904D01*
X118197619Y-104764285D01*
X118292857Y-104716666D01*
X118435714Y-104716666D01*
X118530952Y-104764285D01*
X118578571Y-104811904D01*
X118626190Y-104907142D01*
X118626190Y-105288095D01*
X118530952Y-104145238D02*
X118483333Y-104240476D01*
X118435714Y-104288095D01*
X118340476Y-104335714D01*
X118292857Y-104335714D01*
X118197619Y-104288095D01*
X118150000Y-104240476D01*
X118102380Y-104145238D01*
X118102380Y-103954761D01*
X118150000Y-103859523D01*
X118197619Y-103811904D01*
X118292857Y-103764285D01*
X118340476Y-103764285D01*
X118435714Y-103811904D01*
X118483333Y-103859523D01*
X118530952Y-103954761D01*
X118530952Y-104145238D01*
X118578571Y-104240476D01*
X118626190Y-104288095D01*
X118721428Y-104335714D01*
X118911904Y-104335714D01*
X119007142Y-104288095D01*
X119054761Y-104240476D01*
X119102380Y-104145238D01*
X119102380Y-103954761D01*
X119054761Y-103859523D01*
X119007142Y-103811904D01*
X118911904Y-103764285D01*
X118721428Y-103764285D01*
X118626190Y-103811904D01*
X118578571Y-103859523D01*
X118530952Y-103954761D01*
X160472380Y-92466666D02*
X159996190Y-92800000D01*
X160472380Y-93038095D02*
X159472380Y-93038095D01*
X159472380Y-92657142D01*
X159520000Y-92561904D01*
X159567619Y-92514285D01*
X159662857Y-92466666D01*
X159805714Y-92466666D01*
X159900952Y-92514285D01*
X159948571Y-92561904D01*
X159996190Y-92657142D01*
X159996190Y-93038095D01*
X160472380Y-91514285D02*
X160472380Y-92085714D01*
X160472380Y-91800000D02*
X159472380Y-91800000D01*
X159615238Y-91895238D01*
X159710476Y-91990476D01*
X159758095Y-92085714D01*
G36*
X125155814Y-67064931D02*
G01*
X125239635Y-67509555D01*
X125548920Y-67637053D01*
X125858206Y-67764551D01*
X126229246Y-67512246D01*
X126333157Y-67441996D01*
X126427087Y-67379272D01*
X126506652Y-67326938D01*
X126567470Y-67287857D01*
X126605157Y-67264893D01*
X126615421Y-67259942D01*
X126633910Y-67272676D01*
X126673420Y-67307882D01*
X126729522Y-67361062D01*
X126797787Y-67427718D01*
X126873786Y-67503354D01*
X126953092Y-67583472D01*
X127031275Y-67663574D01*
X127103907Y-67739164D01*
X127166559Y-67805745D01*
X127214803Y-67858818D01*
X127244210Y-67893887D01*
X127251241Y-67905623D01*
X127241123Y-67927260D01*
X127212759Y-67974662D01*
X127169129Y-68043193D01*
X127113218Y-68128215D01*
X127048006Y-68225093D01*
X127010219Y-68280350D01*
X126941343Y-68381248D01*
X126880140Y-68472299D01*
X126829578Y-68548970D01*
X126792628Y-68606728D01*
X126772258Y-68641043D01*
X126769197Y-68648254D01*
X126776136Y-68668748D01*
X126795051Y-68716513D01*
X126823087Y-68784832D01*
X126857391Y-68866989D01*
X126895109Y-68956270D01*
X126933387Y-69045958D01*
X126969370Y-69129338D01*
X127000206Y-69199694D01*
X127023039Y-69250310D01*
X127035017Y-69274471D01*
X127035724Y-69275422D01*
X127054531Y-69280036D01*
X127104618Y-69290328D01*
X127180793Y-69305287D01*
X127277865Y-69323901D01*
X127390643Y-69345159D01*
X127456442Y-69357418D01*
X127576950Y-69380362D01*
X127685797Y-69402195D01*
X127777476Y-69421722D01*
X127846481Y-69437748D01*
X127887304Y-69449079D01*
X127895511Y-69452674D01*
X127903548Y-69477006D01*
X127910033Y-69531959D01*
X127914970Y-69611108D01*
X127918364Y-69708026D01*
X127920218Y-69816287D01*
X127920538Y-69929465D01*
X127919327Y-70041135D01*
X127916590Y-70144868D01*
X127912331Y-70234241D01*
X127906555Y-70302826D01*
X127899267Y-70344197D01*
X127894895Y-70352810D01*
X127868764Y-70363133D01*
X127813393Y-70377892D01*
X127736107Y-70395352D01*
X127644230Y-70413780D01*
X127612158Y-70419741D01*
X127457524Y-70448066D01*
X127335375Y-70470876D01*
X127241673Y-70489080D01*
X127172384Y-70503583D01*
X127123471Y-70515292D01*
X127090897Y-70525115D01*
X127070628Y-70533956D01*
X127058626Y-70542724D01*
X127056947Y-70544457D01*
X127040184Y-70572371D01*
X127014614Y-70626695D01*
X126982788Y-70700777D01*
X126947260Y-70787965D01*
X126910583Y-70881608D01*
X126875311Y-70975052D01*
X126843996Y-71061647D01*
X126819193Y-71134740D01*
X126803454Y-71187678D01*
X126799332Y-71213811D01*
X126799676Y-71214726D01*
X126813641Y-71236086D01*
X126845322Y-71283084D01*
X126891391Y-71350827D01*
X126948518Y-71434423D01*
X127013373Y-71528982D01*
X127031843Y-71555854D01*
X127097699Y-71653275D01*
X127155650Y-71742163D01*
X127202538Y-71817412D01*
X127235207Y-71873920D01*
X127250500Y-71906581D01*
X127251241Y-71910593D01*
X127238392Y-71931684D01*
X127202888Y-71973464D01*
X127149293Y-72031445D01*
X127082171Y-72101135D01*
X127006087Y-72178045D01*
X126925604Y-72257683D01*
X126845287Y-72335561D01*
X126769699Y-72407186D01*
X126703405Y-72468070D01*
X126650969Y-72513721D01*
X126616955Y-72539650D01*
X126607545Y-72543883D01*
X126585643Y-72533912D01*
X126540800Y-72507020D01*
X126480321Y-72467736D01*
X126433789Y-72436117D01*
X126349475Y-72378098D01*
X126249626Y-72309784D01*
X126149473Y-72241579D01*
X126095627Y-72205075D01*
X125913371Y-72081800D01*
X125760381Y-72164520D01*
X125690682Y-72200759D01*
X125631414Y-72228926D01*
X125591311Y-72244991D01*
X125581103Y-72247226D01*
X125568829Y-72230722D01*
X125544613Y-72184082D01*
X125510263Y-72111609D01*
X125467588Y-72017606D01*
X125418394Y-71906374D01*
X125364490Y-71782215D01*
X125307684Y-71649432D01*
X125249782Y-71512327D01*
X125192593Y-71375202D01*
X125137924Y-71242358D01*
X125087584Y-71118098D01*
X125043380Y-71006725D01*
X125007119Y-70912539D01*
X124980609Y-70839844D01*
X124965658Y-70792941D01*
X124963254Y-70776833D01*
X124982311Y-70756286D01*
X125024036Y-70722933D01*
X125079706Y-70683702D01*
X125084378Y-70680599D01*
X125228264Y-70565423D01*
X125344283Y-70431053D01*
X125431430Y-70281784D01*
X125488699Y-70121913D01*
X125515086Y-69955737D01*
X125509585Y-69787552D01*
X125471190Y-69621655D01*
X125398895Y-69462342D01*
X125377626Y-69427487D01*
X125266996Y-69286737D01*
X125136302Y-69173714D01*
X124990064Y-69089003D01*
X124832808Y-69033194D01*
X124669057Y-69006874D01*
X124503333Y-69010630D01*
X124340162Y-69045050D01*
X124184065Y-69110723D01*
X124039567Y-69208235D01*
X123994869Y-69247813D01*
X123881112Y-69371703D01*
X123798218Y-69502124D01*
X123741356Y-69648315D01*
X123709687Y-69793088D01*
X123701869Y-69955860D01*
X123727938Y-70119440D01*
X123785245Y-70278298D01*
X123871144Y-70426906D01*
X123982986Y-70559735D01*
X124118123Y-70671256D01*
X124135883Y-70683011D01*
X124192150Y-70721508D01*
X124234923Y-70754863D01*
X124255372Y-70776160D01*
X124255669Y-70776833D01*
X124251279Y-70799871D01*
X124233876Y-70852157D01*
X124205268Y-70929390D01*
X124167265Y-71027268D01*
X124121674Y-71141491D01*
X124070303Y-71267758D01*
X124014962Y-71401767D01*
X123957458Y-71539218D01*
X123899601Y-71675808D01*
X123843198Y-71807237D01*
X123790058Y-71929205D01*
X123741990Y-72037409D01*
X123700801Y-72127549D01*
X123668301Y-72195323D01*
X123646297Y-72236430D01*
X123637436Y-72247226D01*
X123610360Y-72238819D01*
X123559697Y-72216272D01*
X123494183Y-72183613D01*
X123458159Y-72164520D01*
X123305168Y-72081800D01*
X123122912Y-72205075D01*
X123029875Y-72268228D01*
X122928015Y-72337727D01*
X122832562Y-72403165D01*
X122784750Y-72436117D01*
X122717505Y-72481273D01*
X122660564Y-72517057D01*
X122621354Y-72538938D01*
X122608619Y-72543563D01*
X122590083Y-72531085D01*
X122549059Y-72496252D01*
X122489525Y-72442678D01*
X122415458Y-72373983D01*
X122330835Y-72293781D01*
X122277315Y-72242286D01*
X122183681Y-72150286D01*
X122102759Y-72067999D01*
X122037823Y-71998945D01*
X121992142Y-71946644D01*
X121968989Y-71914616D01*
X121966768Y-71908116D01*
X121977076Y-71883394D01*
X122005561Y-71833405D01*
X122049063Y-71763212D01*
X122104423Y-71677875D01*
X122168480Y-71582456D01*
X122186697Y-71555854D01*
X122253073Y-71459167D01*
X122312622Y-71372117D01*
X122362016Y-71299595D01*
X122397925Y-71246493D01*
X122417019Y-71217703D01*
X122418864Y-71214726D01*
X122416105Y-71191782D01*
X122401462Y-71141336D01*
X122377487Y-71070041D01*
X122346734Y-70984547D01*
X122311756Y-70891507D01*
X122275107Y-70797574D01*
X122239339Y-70709399D01*
X122207006Y-70633634D01*
X122180662Y-70576931D01*
X122162858Y-70545943D01*
X122161593Y-70544457D01*
X122150706Y-70535601D01*
X122132318Y-70526843D01*
X122102394Y-70517277D01*
X122056897Y-70505996D01*
X121991791Y-70492093D01*
X121903039Y-70474663D01*
X121786607Y-70452798D01*
X121638458Y-70425591D01*
X121606382Y-70419741D01*
X121511314Y-70401374D01*
X121428435Y-70383405D01*
X121365070Y-70367569D01*
X121328542Y-70355600D01*
X121323644Y-70352810D01*
X121315573Y-70328072D01*
X121309013Y-70272790D01*
X121303967Y-70193389D01*
X121300441Y-70096296D01*
X121298439Y-69987938D01*
X121297964Y-69874740D01*
X121299023Y-69763128D01*
X121301618Y-69659529D01*
X121305754Y-69570368D01*
X121311437Y-69502072D01*
X121318669Y-69461066D01*
X121323029Y-69452674D01*
X121347302Y-69444208D01*
X121402574Y-69430435D01*
X121483338Y-69412550D01*
X121584088Y-69391748D01*
X121699317Y-69369223D01*
X121762098Y-69357418D01*
X121881213Y-69335151D01*
X121987435Y-69314979D01*
X122075573Y-69297915D01*
X122140434Y-69284969D01*
X122176826Y-69277155D01*
X122182816Y-69275422D01*
X122192939Y-69255890D01*
X122214338Y-69208843D01*
X122244161Y-69141003D01*
X122279555Y-69059091D01*
X122317668Y-68969828D01*
X122355647Y-68879935D01*
X122390640Y-68796135D01*
X122419794Y-68725147D01*
X122440257Y-68673694D01*
X122449177Y-68648497D01*
X122449343Y-68647396D01*
X122439231Y-68627519D01*
X122410883Y-68581777D01*
X122367277Y-68514717D01*
X122311394Y-68430884D01*
X122246213Y-68334826D01*
X122208321Y-68279650D01*
X122139275Y-68178481D01*
X122077950Y-68086630D01*
X122027337Y-68008744D01*
X121990429Y-67949469D01*
X121970218Y-67913451D01*
X121967299Y-67905377D01*
X121979847Y-67886584D01*
X122014537Y-67846457D01*
X122066937Y-67789493D01*
X122132616Y-67720185D01*
X122207144Y-67643031D01*
X122286087Y-67562525D01*
X122365017Y-67483163D01*
X122439500Y-67409440D01*
X122505106Y-67345852D01*
X122557404Y-67296894D01*
X122591961Y-67267061D01*
X122603522Y-67259942D01*
X122622346Y-67269953D01*
X122667369Y-67298078D01*
X122734213Y-67341454D01*
X122818501Y-67397218D01*
X122915856Y-67462506D01*
X122989293Y-67512246D01*
X123360333Y-67764551D01*
X123978905Y-67509555D01*
X124062725Y-67064931D01*
X124146546Y-66620307D01*
X125071994Y-66620307D01*
X125155814Y-67064931D01*
G37*
D13*
X125155814Y-67064931D02*
X125239635Y-67509555D01*
X125548920Y-67637053D01*
X125858206Y-67764551D01*
X126229246Y-67512246D01*
X126333157Y-67441996D01*
X126427087Y-67379272D01*
X126506652Y-67326938D01*
X126567470Y-67287857D01*
X126605157Y-67264893D01*
X126615421Y-67259942D01*
X126633910Y-67272676D01*
X126673420Y-67307882D01*
X126729522Y-67361062D01*
X126797787Y-67427718D01*
X126873786Y-67503354D01*
X126953092Y-67583472D01*
X127031275Y-67663574D01*
X127103907Y-67739164D01*
X127166559Y-67805745D01*
X127214803Y-67858818D01*
X127244210Y-67893887D01*
X127251241Y-67905623D01*
X127241123Y-67927260D01*
X127212759Y-67974662D01*
X127169129Y-68043193D01*
X127113218Y-68128215D01*
X127048006Y-68225093D01*
X127010219Y-68280350D01*
X126941343Y-68381248D01*
X126880140Y-68472299D01*
X126829578Y-68548970D01*
X126792628Y-68606728D01*
X126772258Y-68641043D01*
X126769197Y-68648254D01*
X126776136Y-68668748D01*
X126795051Y-68716513D01*
X126823087Y-68784832D01*
X126857391Y-68866989D01*
X126895109Y-68956270D01*
X126933387Y-69045958D01*
X126969370Y-69129338D01*
X127000206Y-69199694D01*
X127023039Y-69250310D01*
X127035017Y-69274471D01*
X127035724Y-69275422D01*
X127054531Y-69280036D01*
X127104618Y-69290328D01*
X127180793Y-69305287D01*
X127277865Y-69323901D01*
X127390643Y-69345159D01*
X127456442Y-69357418D01*
X127576950Y-69380362D01*
X127685797Y-69402195D01*
X127777476Y-69421722D01*
X127846481Y-69437748D01*
X127887304Y-69449079D01*
X127895511Y-69452674D01*
X127903548Y-69477006D01*
X127910033Y-69531959D01*
X127914970Y-69611108D01*
X127918364Y-69708026D01*
X127920218Y-69816287D01*
X127920538Y-69929465D01*
X127919327Y-70041135D01*
X127916590Y-70144868D01*
X127912331Y-70234241D01*
X127906555Y-70302826D01*
X127899267Y-70344197D01*
X127894895Y-70352810D01*
X127868764Y-70363133D01*
X127813393Y-70377892D01*
X127736107Y-70395352D01*
X127644230Y-70413780D01*
X127612158Y-70419741D01*
X127457524Y-70448066D01*
X127335375Y-70470876D01*
X127241673Y-70489080D01*
X127172384Y-70503583D01*
X127123471Y-70515292D01*
X127090897Y-70525115D01*
X127070628Y-70533956D01*
X127058626Y-70542724D01*
X127056947Y-70544457D01*
X127040184Y-70572371D01*
X127014614Y-70626695D01*
X126982788Y-70700777D01*
X126947260Y-70787965D01*
X126910583Y-70881608D01*
X126875311Y-70975052D01*
X126843996Y-71061647D01*
X126819193Y-71134740D01*
X126803454Y-71187678D01*
X126799332Y-71213811D01*
X126799676Y-71214726D01*
X126813641Y-71236086D01*
X126845322Y-71283084D01*
X126891391Y-71350827D01*
X126948518Y-71434423D01*
X127013373Y-71528982D01*
X127031843Y-71555854D01*
X127097699Y-71653275D01*
X127155650Y-71742163D01*
X127202538Y-71817412D01*
X127235207Y-71873920D01*
X127250500Y-71906581D01*
X127251241Y-71910593D01*
X127238392Y-71931684D01*
X127202888Y-71973464D01*
X127149293Y-72031445D01*
X127082171Y-72101135D01*
X127006087Y-72178045D01*
X126925604Y-72257683D01*
X126845287Y-72335561D01*
X126769699Y-72407186D01*
X126703405Y-72468070D01*
X126650969Y-72513721D01*
X126616955Y-72539650D01*
X126607545Y-72543883D01*
X126585643Y-72533912D01*
X126540800Y-72507020D01*
X126480321Y-72467736D01*
X126433789Y-72436117D01*
X126349475Y-72378098D01*
X126249626Y-72309784D01*
X126149473Y-72241579D01*
X126095627Y-72205075D01*
X125913371Y-72081800D01*
X125760381Y-72164520D01*
X125690682Y-72200759D01*
X125631414Y-72228926D01*
X125591311Y-72244991D01*
X125581103Y-72247226D01*
X125568829Y-72230722D01*
X125544613Y-72184082D01*
X125510263Y-72111609D01*
X125467588Y-72017606D01*
X125418394Y-71906374D01*
X125364490Y-71782215D01*
X125307684Y-71649432D01*
X125249782Y-71512327D01*
X125192593Y-71375202D01*
X125137924Y-71242358D01*
X125087584Y-71118098D01*
X125043380Y-71006725D01*
X125007119Y-70912539D01*
X124980609Y-70839844D01*
X124965658Y-70792941D01*
X124963254Y-70776833D01*
X124982311Y-70756286D01*
X125024036Y-70722933D01*
X125079706Y-70683702D01*
X125084378Y-70680599D01*
X125228264Y-70565423D01*
X125344283Y-70431053D01*
X125431430Y-70281784D01*
X125488699Y-70121913D01*
X125515086Y-69955737D01*
X125509585Y-69787552D01*
X125471190Y-69621655D01*
X125398895Y-69462342D01*
X125377626Y-69427487D01*
X125266996Y-69286737D01*
X125136302Y-69173714D01*
X124990064Y-69089003D01*
X124832808Y-69033194D01*
X124669057Y-69006874D01*
X124503333Y-69010630D01*
X124340162Y-69045050D01*
X124184065Y-69110723D01*
X124039567Y-69208235D01*
X123994869Y-69247813D01*
X123881112Y-69371703D01*
X123798218Y-69502124D01*
X123741356Y-69648315D01*
X123709687Y-69793088D01*
X123701869Y-69955860D01*
X123727938Y-70119440D01*
X123785245Y-70278298D01*
X123871144Y-70426906D01*
X123982986Y-70559735D01*
X124118123Y-70671256D01*
X124135883Y-70683011D01*
X124192150Y-70721508D01*
X124234923Y-70754863D01*
X124255372Y-70776160D01*
X124255669Y-70776833D01*
X124251279Y-70799871D01*
X124233876Y-70852157D01*
X124205268Y-70929390D01*
X124167265Y-71027268D01*
X124121674Y-71141491D01*
X124070303Y-71267758D01*
X124014962Y-71401767D01*
X123957458Y-71539218D01*
X123899601Y-71675808D01*
X123843198Y-71807237D01*
X123790058Y-71929205D01*
X123741990Y-72037409D01*
X123700801Y-72127549D01*
X123668301Y-72195323D01*
X123646297Y-72236430D01*
X123637436Y-72247226D01*
X123610360Y-72238819D01*
X123559697Y-72216272D01*
X123494183Y-72183613D01*
X123458159Y-72164520D01*
X123305168Y-72081800D01*
X123122912Y-72205075D01*
X123029875Y-72268228D01*
X122928015Y-72337727D01*
X122832562Y-72403165D01*
X122784750Y-72436117D01*
X122717505Y-72481273D01*
X122660564Y-72517057D01*
X122621354Y-72538938D01*
X122608619Y-72543563D01*
X122590083Y-72531085D01*
X122549059Y-72496252D01*
X122489525Y-72442678D01*
X122415458Y-72373983D01*
X122330835Y-72293781D01*
X122277315Y-72242286D01*
X122183681Y-72150286D01*
X122102759Y-72067999D01*
X122037823Y-71998945D01*
X121992142Y-71946644D01*
X121968989Y-71914616D01*
X121966768Y-71908116D01*
X121977076Y-71883394D01*
X122005561Y-71833405D01*
X122049063Y-71763212D01*
X122104423Y-71677875D01*
X122168480Y-71582456D01*
X122186697Y-71555854D01*
X122253073Y-71459167D01*
X122312622Y-71372117D01*
X122362016Y-71299595D01*
X122397925Y-71246493D01*
X122417019Y-71217703D01*
X122418864Y-71214726D01*
X122416105Y-71191782D01*
X122401462Y-71141336D01*
X122377487Y-71070041D01*
X122346734Y-70984547D01*
X122311756Y-70891507D01*
X122275107Y-70797574D01*
X122239339Y-70709399D01*
X122207006Y-70633634D01*
X122180662Y-70576931D01*
X122162858Y-70545943D01*
X122161593Y-70544457D01*
X122150706Y-70535601D01*
X122132318Y-70526843D01*
X122102394Y-70517277D01*
X122056897Y-70505996D01*
X121991791Y-70492093D01*
X121903039Y-70474663D01*
X121786607Y-70452798D01*
X121638458Y-70425591D01*
X121606382Y-70419741D01*
X121511314Y-70401374D01*
X121428435Y-70383405D01*
X121365070Y-70367569D01*
X121328542Y-70355600D01*
X121323644Y-70352810D01*
X121315573Y-70328072D01*
X121309013Y-70272790D01*
X121303967Y-70193389D01*
X121300441Y-70096296D01*
X121298439Y-69987938D01*
X121297964Y-69874740D01*
X121299023Y-69763128D01*
X121301618Y-69659529D01*
X121305754Y-69570368D01*
X121311437Y-69502072D01*
X121318669Y-69461066D01*
X121323029Y-69452674D01*
X121347302Y-69444208D01*
X121402574Y-69430435D01*
X121483338Y-69412550D01*
X121584088Y-69391748D01*
X121699317Y-69369223D01*
X121762098Y-69357418D01*
X121881213Y-69335151D01*
X121987435Y-69314979D01*
X122075573Y-69297915D01*
X122140434Y-69284969D01*
X122176826Y-69277155D01*
X122182816Y-69275422D01*
X122192939Y-69255890D01*
X122214338Y-69208843D01*
X122244161Y-69141003D01*
X122279555Y-69059091D01*
X122317668Y-68969828D01*
X122355647Y-68879935D01*
X122390640Y-68796135D01*
X122419794Y-68725147D01*
X122440257Y-68673694D01*
X122449177Y-68648497D01*
X122449343Y-68647396D01*
X122439231Y-68627519D01*
X122410883Y-68581777D01*
X122367277Y-68514717D01*
X122311394Y-68430884D01*
X122246213Y-68334826D01*
X122208321Y-68279650D01*
X122139275Y-68178481D01*
X122077950Y-68086630D01*
X122027337Y-68008744D01*
X121990429Y-67949469D01*
X121970218Y-67913451D01*
X121967299Y-67905377D01*
X121979847Y-67886584D01*
X122014537Y-67846457D01*
X122066937Y-67789493D01*
X122132616Y-67720185D01*
X122207144Y-67643031D01*
X122286087Y-67562525D01*
X122365017Y-67483163D01*
X122439500Y-67409440D01*
X122505106Y-67345852D01*
X122557404Y-67296894D01*
X122591961Y-67267061D01*
X122603522Y-67259942D01*
X122622346Y-67269953D01*
X122667369Y-67298078D01*
X122734213Y-67341454D01*
X122818501Y-67397218D01*
X122915856Y-67462506D01*
X122989293Y-67512246D01*
X123360333Y-67764551D01*
X123978905Y-67509555D01*
X124062725Y-67064931D01*
X124146546Y-66620307D01*
X125071994Y-66620307D01*
X125155814Y-67064931D01*
D10*
X127950000Y-131100000D02*
X127950000Y-133100000D01*
X127950000Y-133100000D02*
X131850000Y-133100000D01*
X127950000Y-131100000D02*
X131850000Y-131100000D01*
X140372936Y-74335000D02*
X140827064Y-74335000D01*
X140372936Y-72865000D02*
X140827064Y-72865000D01*
X103288748Y-71065000D02*
X103811252Y-71065000D01*
X103288748Y-72535000D02*
X103811252Y-72535000D01*
X149661252Y-98015000D02*
X149138748Y-98015000D01*
X149661252Y-99485000D02*
X149138748Y-99485000D01*
X159930000Y-134440000D02*
X155290000Y-134440000D01*
X159930000Y-130360000D02*
X154790000Y-130360000D01*
X154790000Y-133940000D02*
X155290000Y-134440000D01*
X154790000Y-130360000D02*
X154790000Y-133940000D01*
X159930000Y-130360000D02*
X159930000Y-134440000D01*
X146272936Y-72435000D02*
X146727064Y-72435000D01*
X146272936Y-70965000D02*
X146727064Y-70965000D01*
X140372936Y-68665000D02*
X140827064Y-68665000D01*
X140372936Y-70135000D02*
X140827064Y-70135000D01*
X161860000Y-111685000D02*
X161860000Y-108040000D01*
X108140000Y-108040000D02*
X108140000Y-111685000D01*
X161860000Y-108040000D02*
X108140000Y-108040000D01*
X161860000Y-117315000D02*
X161860000Y-120960000D01*
X166970000Y-108500000D02*
X164470000Y-108500000D01*
X108140000Y-111685000D02*
X103250000Y-111685000D01*
X103030000Y-108500000D02*
X105530000Y-108500000D01*
X161860000Y-120960000D02*
X108140000Y-120960000D01*
X108140000Y-120960000D02*
X108140000Y-117315000D01*
X104280000Y-109750000D02*
X104280000Y-107250000D01*
X126600048Y-143265000D02*
X127122552Y-143265000D01*
X126600048Y-144735000D02*
X127122552Y-144735000D01*
X128485000Y-125200000D02*
X128485000Y-122315000D01*
X126915000Y-122315000D02*
X126915000Y-125200000D01*
X128485000Y-122315000D02*
X126915000Y-122315000D01*
X148360000Y-66540000D02*
X145500000Y-66540000D01*
X145500000Y-68460000D02*
X148360000Y-68460000D01*
X148360000Y-68460000D02*
X148360000Y-66540000D01*
X150738748Y-128065000D02*
X151261252Y-128065000D01*
X150738748Y-129535000D02*
X151261252Y-129535000D01*
X154205000Y-90143064D02*
X154205000Y-89688936D01*
X155675000Y-90143064D02*
X155675000Y-89688936D01*
X128000000Y-145315000D02*
X125115000Y-145315000D01*
X125115000Y-145315000D02*
X125115000Y-146885000D01*
X125115000Y-146885000D02*
X128000000Y-146885000D01*
X106635000Y-80872936D02*
X106635000Y-81327064D01*
X105165000Y-80872936D02*
X105165000Y-81327064D01*
X161365000Y-95028748D02*
X161365000Y-95551252D01*
X162835000Y-95028748D02*
X162835000Y-95551252D01*
X166540000Y-103240000D02*
X166540000Y-106100000D01*
X168460000Y-103240000D02*
X166540000Y-103240000D01*
X168460000Y-106100000D02*
X168460000Y-103240000D01*
X168120000Y-85200000D02*
X168120000Y-85980000D01*
X149880000Y-85200000D02*
X149880000Y-85980000D01*
X168120000Y-60235000D02*
X168120000Y-66655000D01*
X149880000Y-60235000D02*
X149880000Y-66655000D01*
X149880000Y-60235000D02*
X168120000Y-60235000D01*
X168120000Y-85980000D02*
X167120000Y-85980000D01*
X149880000Y-85980000D02*
X150880000Y-85980000D01*
X149880000Y-66655000D02*
X149500000Y-66655000D01*
X123035000Y-124427064D02*
X123035000Y-123972936D01*
X121565000Y-124427064D02*
X121565000Y-123972936D01*
X109215000Y-71940000D02*
X108585000Y-71940000D01*
X109215000Y-71300000D02*
X109215000Y-71940000D01*
X109215000Y-74100000D02*
X109215000Y-73460000D01*
X111935000Y-71350000D02*
X111935000Y-74050000D01*
X145288748Y-99485000D02*
X145811252Y-99485000D01*
X145288748Y-98015000D02*
X145811252Y-98015000D01*
X111096806Y-129514716D02*
X112935284Y-131353194D01*
X109732090Y-128150000D02*
X114300000Y-123582090D01*
X114300000Y-132717910D02*
X118867910Y-128150000D01*
X109753303Y-128171213D02*
X109732090Y-128150000D01*
X114300000Y-132717910D02*
X114278787Y-132696697D01*
X115664716Y-124946806D02*
X117503194Y-126785284D01*
X118867910Y-128150000D02*
X118846697Y-128128787D01*
X114300000Y-123582090D02*
X114321213Y-123603303D01*
X130300000Y-147796000D02*
X130300000Y-149696000D01*
X130300000Y-143896000D02*
X130300000Y-145896000D01*
X139700000Y-147796000D02*
X139700000Y-149696000D01*
X139700000Y-143896000D02*
X139700000Y-145896000D01*
X130300000Y-149696000D02*
X139700000Y-149696000D01*
X111265000Y-104322936D02*
X111265000Y-104777064D01*
X112735000Y-104322936D02*
X112735000Y-104777064D01*
X157100000Y-98354000D02*
X155150000Y-98354000D01*
X153000000Y-97629000D02*
X153000000Y-93379000D01*
X158700000Y-96754000D02*
X157100000Y-98354000D01*
X158700000Y-92654000D02*
X158700000Y-96754000D01*
X155150000Y-92654000D02*
X156550000Y-92654000D01*
X128296936Y-72871000D02*
X128751064Y-72871000D01*
X128296936Y-71401000D02*
X128751064Y-71401000D01*
X146182000Y-129178000D02*
X146182000Y-130438000D01*
X146182000Y-135998000D02*
X146182000Y-134738000D01*
X142422000Y-135998000D02*
X146182000Y-135998000D01*
X140172000Y-129178000D02*
X146182000Y-129178000D01*
X145031400Y-140800000D02*
X145031400Y-140770000D01*
X145031400Y-142700000D02*
X145031400Y-145300000D01*
X151491400Y-140770000D02*
X151491400Y-140800000D01*
X145031400Y-140770000D02*
X151491400Y-140770000D01*
X151491400Y-142700000D02*
X151491400Y-145300000D01*
X145031400Y-147230000D02*
X151491400Y-147230000D01*
X145031400Y-147230000D02*
X145031400Y-147200000D01*
X151491400Y-147230000D02*
X151491400Y-147200000D01*
X109753303Y-143471213D02*
X109732090Y-143450000D01*
X111096806Y-144814716D02*
X112935284Y-146653194D01*
X114300000Y-148017910D02*
X118867910Y-143450000D01*
X118867910Y-143450000D02*
X118846697Y-143428787D01*
X114300000Y-138882090D02*
X114321213Y-138903303D01*
X114300000Y-148017910D02*
X114278787Y-147996697D01*
X109732090Y-143450000D02*
X114300000Y-138882090D01*
X115664716Y-140246806D02*
X117503194Y-142085284D01*
X152310000Y-134435872D02*
X152310000Y-134890000D01*
X153780000Y-134435872D02*
X153780000Y-134890000D01*
X147828000Y-92436000D02*
X144378000Y-92436000D01*
X147828000Y-97556000D02*
X149778000Y-97556000D01*
X147828000Y-97556000D02*
X145878000Y-97556000D01*
X147828000Y-92436000D02*
X149778000Y-92436000D01*
X148105000Y-88115000D02*
X146535000Y-88115000D01*
X146535000Y-88115000D02*
X146535000Y-91000000D01*
X148105000Y-91000000D02*
X148105000Y-88115000D01*
X167132000Y-132068000D02*
X167782000Y-132068000D01*
X167132000Y-128948000D02*
X165457000Y-128948000D01*
X167132000Y-132068000D02*
X166482000Y-132068000D01*
X167132000Y-128948000D02*
X167782000Y-128948000D01*
X150595000Y-90227064D02*
X150595000Y-89772936D01*
X149125000Y-90227064D02*
X149125000Y-89772936D01*
X159238748Y-129535000D02*
X159761252Y-129535000D01*
X159238748Y-128065000D02*
X159761252Y-128065000D01*
X157635000Y-139727064D02*
X157635000Y-139272936D01*
X156165000Y-139727064D02*
X156165000Y-139272936D01*
X124565000Y-123938748D02*
X124565000Y-124461252D01*
X126035000Y-123938748D02*
X126035000Y-124461252D01*
X137387000Y-137387064D02*
X137387000Y-136932936D01*
X135917000Y-137387064D02*
X135917000Y-136932936D01*
X107950000Y-77600000D02*
X107950000Y-78200000D01*
X104500000Y-76900000D02*
X107300000Y-76900000D01*
X107300000Y-78900000D02*
X104500000Y-78900000D01*
X103850000Y-78200000D02*
X103850000Y-77600000D01*
X104550000Y-76900000D02*
G75*
G03*
X103850000Y-77600000I-1J-699999D01*
G01*
X107250000Y-78900000D02*
G75*
G03*
X107950000Y-78200000I0J700000D01*
G01*
X107950000Y-77600000D02*
G75*
G03*
X107250000Y-76900000I-700000J0D01*
G01*
X103850000Y-78200000D02*
G75*
G03*
X104550000Y-78900000I699999J-1D01*
G01*
X162900000Y-122450000D02*
X146925000Y-122450000D01*
X146925000Y-127550000D02*
X162900000Y-127550000D01*
X146925000Y-122450000D02*
X146925000Y-127550000D01*
X128296936Y-74903000D02*
X128751064Y-74903000D01*
X128296936Y-73433000D02*
X128751064Y-73433000D01*
X102915000Y-74448748D02*
X102915000Y-74971252D01*
X104385000Y-74448748D02*
X104385000Y-74971252D01*
X139172000Y-125984000D02*
X139172000Y-127934000D01*
X129052000Y-125984000D02*
X129052000Y-124034000D01*
X139172000Y-125984000D02*
X139172000Y-124034000D01*
X129052000Y-125984000D02*
X129052000Y-129434000D01*
X127050000Y-83998000D02*
X127050000Y-99898000D01*
X127050000Y-83998000D02*
X142950000Y-83998000D01*
X142950000Y-83998000D02*
X142950000Y-99898000D01*
X127050000Y-99898000D02*
X142950000Y-99898000D01*
X103288748Y-70485000D02*
X103811252Y-70485000D01*
X103288748Y-69015000D02*
X103811252Y-69015000D01*
X160291400Y-147230000D02*
X166751400Y-147230000D01*
X160291400Y-140800000D02*
X160291400Y-140770000D01*
X160291400Y-142700000D02*
X160291400Y-145300000D01*
X160291400Y-140770000D02*
X166751400Y-140770000D01*
X166751400Y-140770000D02*
X166751400Y-140800000D01*
X166751400Y-142700000D02*
X166751400Y-145300000D01*
X160291400Y-147230000D02*
X160291400Y-147200000D01*
X166751400Y-147230000D02*
X166751400Y-147200000D01*
X145500000Y-70560000D02*
X148360000Y-70560000D01*
X148360000Y-68640000D02*
X145500000Y-68640000D01*
X148360000Y-70560000D02*
X148360000Y-68640000D01*
X140372936Y-72235000D02*
X140827064Y-72235000D01*
X140372936Y-70765000D02*
X140827064Y-70765000D01*
X106435000Y-74448748D02*
X106435000Y-74971252D01*
X104965000Y-74448748D02*
X104965000Y-74971252D01*
X117383303Y-135821213D02*
X117362090Y-135800000D01*
X126497910Y-135800000D02*
X126476697Y-135778787D01*
X117362090Y-135800000D02*
X121930000Y-131232090D01*
X123294716Y-132596806D02*
X125133194Y-134435284D01*
X121930000Y-131232090D02*
X121951213Y-131253303D01*
X118726806Y-137164716D02*
X120565284Y-139003194D01*
X121930000Y-140367910D02*
X126497910Y-135800000D01*
X121930000Y-140367910D02*
X121908787Y-140346697D01*
X132815000Y-137387064D02*
X132815000Y-136932936D01*
X131345000Y-137387064D02*
X131345000Y-136932936D01*
X114380000Y-73960000D02*
X117460000Y-73960000D01*
X119960000Y-70300000D02*
X120180000Y-70300000D01*
X114300000Y-70300000D02*
X114760000Y-70300000D01*
X114300000Y-70300000D02*
X114300000Y-71500000D01*
X119960000Y-70300000D02*
G75*
G03*
X114760000Y-70300000I-2600000J-1100000D01*
G01*
X167132000Y-134536000D02*
X165457000Y-134536000D01*
X167132000Y-137656000D02*
X167782000Y-137656000D01*
X167132000Y-134536000D02*
X167782000Y-134536000D01*
X167132000Y-137656000D02*
X166482000Y-137656000D01*
X161825000Y-131227064D02*
X161825000Y-130772936D01*
X163295000Y-131227064D02*
X163295000Y-130772936D01*
X151375000Y-99000000D02*
X151375000Y-107000000D01*
X151375000Y-107000000D02*
X160625000Y-107000000D01*
X160625000Y-99000000D02*
X160625000Y-107000000D01*
X151375000Y-99000000D02*
X160625000Y-99000000D01*
X153135000Y-90198752D02*
X153135000Y-89676248D01*
X151665000Y-90198752D02*
X151665000Y-89676248D01*
X103460000Y-103240000D02*
X101540000Y-103240000D01*
X101540000Y-103240000D02*
X101540000Y-106100000D01*
X103460000Y-106100000D02*
X103460000Y-103240000D01*
D12*
X103750000Y-84100000D02*
X103750000Y-83350000D01*
X120250000Y-100850000D02*
X120250000Y-100100000D01*
X120250000Y-83350000D02*
X120250000Y-84100000D01*
X103750000Y-100100000D02*
X103750000Y-100850000D01*
X103750000Y-100850000D02*
X120250000Y-100850000D01*
X103750000Y-83350000D02*
X120250000Y-83350000D01*
D10*
X103965000Y-104872936D02*
X103965000Y-105327064D01*
X105435000Y-104872936D02*
X105435000Y-105327064D01*
X166035000Y-104872936D02*
X166035000Y-105327064D01*
X164565000Y-104872936D02*
X164565000Y-105327064D01*
X139716000Y-95696000D02*
X139716000Y-94296000D01*
X141716000Y-94296000D02*
X141716000Y-95696000D01*
X141016000Y-96396000D02*
X140416000Y-96396000D01*
X140416000Y-93596000D02*
X141016000Y-93596000D01*
X140416000Y-93596000D02*
G75*
G03*
X139716000Y-94296000I0J-700000D01*
G01*
X139716000Y-95696000D02*
G75*
G03*
X140416000Y-96396000I699999J-1D01*
G01*
X141716000Y-94296000D02*
G75*
G03*
X141016000Y-93596000I-700000J0D01*
G01*
X141016000Y-96396000D02*
G75*
G03*
X141716000Y-95696000I1J699999D01*
G01*
X108755000Y-75615000D02*
X109450000Y-75615000D01*
X108755000Y-76985000D02*
X108841724Y-76985000D01*
X110145000Y-76985000D02*
X110145000Y-76860000D01*
X110058276Y-76985000D02*
X110145000Y-76985000D01*
X108755000Y-76985000D02*
X110145000Y-76985000D01*
X108755000Y-76300000D02*
X108755000Y-75615000D01*
X108755000Y-76985000D02*
X108755000Y-76860000D01*
X144045000Y-89772936D02*
X144045000Y-90227064D01*
X145515000Y-89772936D02*
X145515000Y-90227064D01*
X111237910Y-135800000D02*
X111216697Y-135778787D01*
X106670000Y-140367910D02*
X111237910Y-135800000D01*
X103466806Y-137164716D02*
X105305284Y-139003194D01*
X102123303Y-135821213D02*
X102102090Y-135800000D01*
X106670000Y-140367910D02*
X106648787Y-140346697D01*
X106670000Y-131232090D02*
X106691213Y-131253303D01*
X102102090Y-135800000D02*
X106670000Y-131232090D01*
X108034716Y-132596806D02*
X109873194Y-134435284D01*
X155675000Y-139727064D02*
X155675000Y-139272936D01*
X154205000Y-139727064D02*
X154205000Y-139272936D01*
X129860000Y-78788000D02*
X129860000Y-77458000D01*
X132460000Y-78788000D02*
X140140000Y-78788000D01*
X140140000Y-78788000D02*
X140140000Y-76128000D01*
X131190000Y-78788000D02*
X129860000Y-78788000D01*
X132460000Y-76128000D02*
X140140000Y-76128000D01*
X132460000Y-78788000D02*
X132460000Y-76128000D01*
X143502748Y-124179000D02*
X144025252Y-124179000D01*
X143502748Y-122709000D02*
X144025252Y-122709000D01*
X145044936Y-85625000D02*
X145499064Y-85625000D01*
X145044936Y-87095000D02*
X145499064Y-87095000D01*
X161825000Y-136323064D02*
X161825000Y-135868936D01*
X163295000Y-136323064D02*
X163295000Y-135868936D01*
X137500000Y-74200000D02*
X132500000Y-74200000D01*
X131400000Y-68800000D02*
X137500000Y-68800000D01*
X131400000Y-69900000D02*
X131400000Y-68800000D01*
X166370000Y-93220000D02*
X166670000Y-93220000D01*
X166670000Y-93220000D02*
X166670000Y-97360000D01*
X163830000Y-97360000D02*
X163530000Y-97360000D01*
X163530000Y-93220000D02*
X163830000Y-93220000D01*
X166670000Y-97360000D02*
X166370000Y-97360000D01*
X163530000Y-97360000D02*
X163530000Y-93220000D01*
X117735000Y-104322936D02*
X117735000Y-104777064D01*
X116265000Y-104322936D02*
X116265000Y-104777064D01*
X159165000Y-95517064D02*
X159165000Y-95062936D01*
X160635000Y-95517064D02*
X160635000Y-95062936D01*
%LPC*%
D14*
X128550000Y-132100000D03*
X131850000Y-132100000D03*
D15*
X139600000Y-73600000D03*
X141600000Y-73600000D03*
D16*
X102512500Y-71800000D03*
X104587500Y-71800000D03*
D17*
X150437500Y-98750000D03*
X148362500Y-98750000D03*
D18*
X158560000Y-132400000D03*
D19*
X155400000Y-133730000D03*
X156450000Y-133730000D03*
X157500000Y-133730000D03*
X158550000Y-133730000D03*
D20*
X158560000Y-133030000D03*
D19*
X158550000Y-131070000D03*
X157500000Y-131070000D03*
X156450000Y-131070000D03*
X155400000Y-131070000D03*
D15*
X145500000Y-71700000D03*
X147500000Y-71700000D03*
X139600000Y-69400000D03*
X141600000Y-69400000D03*
D21*
X110650000Y-109200000D03*
D22*
X107450000Y-114500000D03*
X162550000Y-114500000D03*
D16*
X125823800Y-144000000D03*
X127898800Y-144000000D03*
D23*
X127700000Y-123225000D03*
X127700000Y-125175000D03*
D24*
X147525000Y-67500000D03*
X145475000Y-67500000D03*
D16*
X149962500Y-128800000D03*
X152037500Y-128800000D03*
D25*
X154940000Y-90916000D03*
X154940000Y-88916000D03*
D26*
X126025000Y-146100000D03*
X127975000Y-146100000D03*
D27*
X105900000Y-80100000D03*
X105900000Y-82100000D03*
D28*
X162100000Y-94252500D03*
X162100000Y-96327500D03*
D29*
X167500000Y-104075000D03*
X167500000Y-106125000D03*
D30*
X150500000Y-67845000D03*
X150500000Y-69115000D03*
X150500000Y-70385000D03*
X150500000Y-71655000D03*
X150500000Y-72925000D03*
X150500000Y-74195000D03*
X150500000Y-75465000D03*
X150500000Y-76735000D03*
X150500000Y-78005000D03*
X150500000Y-79275000D03*
X150500000Y-80545000D03*
X150500000Y-81815000D03*
X150500000Y-83085000D03*
X150500000Y-84355000D03*
D31*
X153285000Y-85355000D03*
X154555000Y-85355000D03*
X155825000Y-85355000D03*
X157095000Y-85355000D03*
X158365000Y-85355000D03*
X159635000Y-85355000D03*
X160905000Y-85355000D03*
X162175000Y-85355000D03*
X163445000Y-85355000D03*
X164715000Y-85355000D03*
D30*
X167500000Y-84355000D03*
X167500000Y-83085000D03*
X167500000Y-81815000D03*
X167500000Y-80545000D03*
X167500000Y-79275000D03*
X167500000Y-78005000D03*
X167500000Y-76735000D03*
X167500000Y-75465000D03*
X167500000Y-74195000D03*
X167500000Y-72925000D03*
X167500000Y-71655000D03*
X167500000Y-70385000D03*
X167500000Y-69115000D03*
X167500000Y-67845000D03*
D32*
X158000000Y-75345000D03*
D25*
X122300000Y-125200000D03*
X122300000Y-123200000D03*
D33*
X109050000Y-72700000D03*
D34*
X110575000Y-71225000D03*
X110575000Y-74175000D03*
D16*
X144512500Y-98750000D03*
X146587500Y-98750000D03*
D35*
X109898260Y-129369759D03*
X115519759Y-123748260D03*
X118701740Y-126930241D03*
X113080241Y-132551740D03*
D36*
X137890000Y-143196000D03*
X132110000Y-143196000D03*
D37*
X131750000Y-141751000D03*
X132550000Y-141751000D03*
D38*
X133750000Y-141751000D03*
X134750000Y-141751000D03*
X135250000Y-141751000D03*
X136250000Y-141751000D03*
D37*
X137450000Y-141751000D03*
X138250000Y-141751000D03*
X138250000Y-141751000D03*
X137450000Y-141751000D03*
D38*
X136750000Y-141751000D03*
X135750000Y-141751000D03*
X134250000Y-141751000D03*
X133250000Y-141751000D03*
D37*
X132550000Y-141751000D03*
X131750000Y-141751000D03*
D39*
X130680000Y-142666000D03*
D40*
X139320000Y-146846000D03*
X130680000Y-146846000D03*
D39*
X139320000Y-142666000D03*
D27*
X112000000Y-103550000D03*
X112000000Y-105550000D03*
D41*
X157600000Y-93379000D03*
X154100000Y-93379000D03*
X154100000Y-97629000D03*
D15*
X127524000Y-72136000D03*
X129524000Y-72136000D03*
D42*
X141122000Y-130288000D03*
D43*
X147422000Y-132588000D03*
D42*
X141122000Y-132588000D03*
X141122000Y-134888000D03*
D44*
X152236400Y-141750000D03*
X144286400Y-141750000D03*
X144286400Y-146250000D03*
X152236400Y-146250000D03*
D35*
X115519759Y-139048260D03*
X109898260Y-144669759D03*
X113080241Y-147851740D03*
X118701740Y-142230241D03*
D27*
X153045000Y-133662936D03*
X153045000Y-135662936D03*
D45*
X145353000Y-93091000D03*
X145353000Y-94361000D03*
X145353000Y-95631000D03*
X145353000Y-96901000D03*
X150303000Y-96901000D03*
X150303000Y-95631000D03*
X150303000Y-94361000D03*
X150303000Y-93091000D03*
D23*
X147320000Y-89025000D03*
X147320000Y-90975000D03*
D46*
X166194500Y-129558000D03*
X166194500Y-131458000D03*
X168069500Y-130508000D03*
D25*
X149860000Y-91000000D03*
X149860000Y-89000000D03*
D16*
X158462500Y-128800000D03*
X160537500Y-128800000D03*
D25*
X156900000Y-140500000D03*
X156900000Y-138500000D03*
D28*
X125300000Y-123162500D03*
X125300000Y-125237500D03*
D25*
X136652000Y-138160000D03*
X136652000Y-136160000D03*
D47*
X104600000Y-77900000D03*
D48*
X105900000Y-77900000D03*
D49*
X107200000Y-77900000D03*
D50*
X151062500Y-125000000D03*
X162937500Y-125000000D03*
D15*
X127524000Y-74168000D03*
X129524000Y-74168000D03*
D28*
X103650000Y-73672500D03*
X103650000Y-75747500D03*
D51*
X129667000Y-128459000D03*
X130937000Y-128459000D03*
X132207000Y-128459000D03*
X133477000Y-128459000D03*
X134747000Y-128459000D03*
X136017000Y-128459000D03*
X137287000Y-128459000D03*
X138557000Y-128459000D03*
X138557000Y-123509000D03*
X137287000Y-123509000D03*
X136017000Y-123509000D03*
X134747000Y-123509000D03*
X133477000Y-123509000D03*
X132207000Y-123509000D03*
X130937000Y-123509000D03*
X129667000Y-123509000D03*
D52*
X145350000Y-103548000D03*
X145350000Y-80348000D03*
X124650000Y-80348000D03*
X124650000Y-103548000D03*
D53*
X131190000Y-79998000D03*
X133730000Y-79998000D03*
X136270000Y-79998000D03*
X138810000Y-79998000D03*
D54*
X131137000Y-97898000D03*
X133677000Y-97898000D03*
X136323000Y-97898000D03*
X138863000Y-97898000D03*
D16*
X102512500Y-69750000D03*
X104587500Y-69750000D03*
D44*
X159546400Y-141750000D03*
X167496400Y-141750000D03*
X167496400Y-146250000D03*
X159546400Y-146250000D03*
D24*
X147525000Y-69600000D03*
X145475000Y-69600000D03*
D15*
X139600000Y-71500000D03*
X141600000Y-71500000D03*
D28*
X105700000Y-73672500D03*
X105700000Y-75747500D03*
D35*
X117528260Y-137019759D03*
X123149759Y-131398260D03*
X126331740Y-134580241D03*
X120710241Y-140201740D03*
D25*
X132080000Y-138160000D03*
X132080000Y-136160000D03*
D55*
X120000000Y-72600000D03*
D56*
X117460000Y-72600000D03*
X114920000Y-72600000D03*
D46*
X166194500Y-135146000D03*
X166194500Y-137046000D03*
X168069500Y-136096000D03*
D25*
X162560000Y-132000000D03*
X162560000Y-130000000D03*
D57*
X153500000Y-105825000D03*
X156000000Y-105825000D03*
X158500000Y-105825000D03*
X153500000Y-100175000D03*
X156000000Y-100175000D03*
X158500000Y-100175000D03*
D58*
X152400000Y-90975000D03*
X152400000Y-88900000D03*
D29*
X102500000Y-104075000D03*
X102500000Y-106125000D03*
D42*
X104000000Y-85100000D03*
X104000000Y-87100000D03*
X104000000Y-89100000D03*
X104000000Y-91100000D03*
X104000000Y-93100000D03*
X104000000Y-95100000D03*
X104000000Y-97100000D03*
X104000000Y-99100000D03*
X120000000Y-99100000D03*
X120000000Y-97100000D03*
X120000000Y-95100000D03*
X120000000Y-93100000D03*
X120000000Y-91100000D03*
X120000000Y-89100000D03*
X120000000Y-87100000D03*
X120000000Y-85100000D03*
D27*
X104700000Y-104100000D03*
X104700000Y-106100000D03*
X165300000Y-104100000D03*
X165300000Y-106100000D03*
D59*
X140716000Y-95646000D03*
D60*
X140716000Y-94346000D03*
D61*
X109450000Y-76300000D03*
D27*
X144780000Y-89000000D03*
X144780000Y-91000000D03*
D35*
X102268260Y-137019759D03*
X107889759Y-131398260D03*
X111071740Y-134580241D03*
X105450241Y-140201740D03*
D25*
X154940000Y-140500000D03*
X154940000Y-138500000D03*
D62*
X131190000Y-77458000D03*
D63*
X133730000Y-77458000D03*
X136270000Y-77458000D03*
X138810000Y-77458000D03*
D16*
X142726500Y-123444000D03*
X144801500Y-123444000D03*
D15*
X144272000Y-86360000D03*
X146272000Y-86360000D03*
D25*
X162560000Y-137096000D03*
X162560000Y-135096000D03*
D64*
X132600000Y-69800000D03*
X132600000Y-71500000D03*
X132600000Y-73200000D03*
X137400000Y-73200000D03*
X137400000Y-71500000D03*
X137400000Y-69800000D03*
D65*
X165100000Y-97390000D03*
X165100000Y-93190000D03*
D27*
X117000000Y-103550000D03*
X117000000Y-105550000D03*
D25*
X159900000Y-96290000D03*
X159900000Y-94290000D03*
M02*
