G04 #@! TF.GenerationSoftware,KiCad,Pcbnew,6.0.11-2627ca5db0~126~ubuntu20.04.1*
G04 #@! TF.CreationDate,2023-07-03T19:04:24-05:00*
G04 #@! TF.ProjectId,iot-badge-433,696f742d-6261-4646-9765-2d3433332e6b,rev?*
G04 #@! TF.SameCoordinates,Original*
G04 #@! TF.FileFunction,Legend,Bot*
G04 #@! TF.FilePolarity,Positive*
%FSLAX46Y46*%
G04 Gerber Fmt 4.6, Leading zero omitted, Abs format (unit mm)*
G04 Created by KiCad (PCBNEW 6.0.11-2627ca5db0~126~ubuntu20.04.1) date 2023-07-03 19:04:24*
%MOMM*%
%LPD*%
G01*
G04 APERTURE LIST*
G04 Aperture macros list*
%AMRoundRect*
0 Rectangle with rounded corners*
0 $1 Rounding radius*
0 $2 $3 $4 $5 $6 $7 $8 $9 X,Y pos of 4 corners*
0 Add a 4 corners polygon primitive as box body*
4,1,4,$2,$3,$4,$5,$6,$7,$8,$9,$2,$3,0*
0 Add four circle primitives for the rounded corners*
1,1,$1+$1,$2,$3*
1,1,$1+$1,$4,$5*
1,1,$1+$1,$6,$7*
1,1,$1+$1,$8,$9*
0 Add four rect primitives between the rounded corners*
20,1,$1+$1,$2,$3,$4,$5,0*
20,1,$1+$1,$4,$5,$6,$7,0*
20,1,$1+$1,$6,$7,$8,$9,0*
20,1,$1+$1,$8,$9,$2,$3,0*%
G04 Aperture macros list end*
%ADD10C,0.150000*%
%ADD11C,1.980000*%
%ADD12C,0.650000*%
%ADD13O,1.000000X2.100000*%
%ADD14O,1.000000X1.600000*%
%ADD15C,6.200000*%
%ADD16C,1.700000*%
%ADD17C,1.524000*%
%ADD18RoundRect,0.248400X0.651600X0.651600X-0.651600X0.651600X-0.651600X-0.651600X0.651600X-0.651600X0*%
%ADD19C,1.800000*%
%ADD20R,0.850000X0.850000*%
G04 APERTURE END LIST*
D10*
X106500000Y-144497904D02*
X106500000Y-143697904D01*
X106004761Y-144497904D02*
X106080952Y-144459809D01*
X106119047Y-144421714D01*
X106157142Y-144345523D01*
X106157142Y-144116952D01*
X106119047Y-144040761D01*
X106080952Y-144002666D01*
X106004761Y-143964571D01*
X105890476Y-143964571D01*
X105814285Y-144002666D01*
X105776190Y-144040761D01*
X105738095Y-144116952D01*
X105738095Y-144345523D01*
X105776190Y-144421714D01*
X105814285Y-144459809D01*
X105890476Y-144497904D01*
X106004761Y-144497904D01*
X105509523Y-143697904D02*
X105052380Y-143697904D01*
X105280952Y-144497904D02*
X105280952Y-143697904D01*
X103909523Y-144078857D02*
X103795238Y-144116952D01*
X103757142Y-144155047D01*
X103719047Y-144231238D01*
X103719047Y-144345523D01*
X103757142Y-144421714D01*
X103795238Y-144459809D01*
X103871428Y-144497904D01*
X104176190Y-144497904D01*
X104176190Y-143697904D01*
X103909523Y-143697904D01*
X103833333Y-143736000D01*
X103795238Y-143774095D01*
X103757142Y-143850285D01*
X103757142Y-143926476D01*
X103795238Y-144002666D01*
X103833333Y-144040761D01*
X103909523Y-144078857D01*
X104176190Y-144078857D01*
X103033333Y-144497904D02*
X103033333Y-144078857D01*
X103071428Y-144002666D01*
X103147619Y-143964571D01*
X103300000Y-143964571D01*
X103376190Y-144002666D01*
X103033333Y-144459809D02*
X103109523Y-144497904D01*
X103300000Y-144497904D01*
X103376190Y-144459809D01*
X103414285Y-144383619D01*
X103414285Y-144307428D01*
X103376190Y-144231238D01*
X103300000Y-144193142D01*
X103109523Y-144193142D01*
X103033333Y-144155047D01*
X102309523Y-144497904D02*
X102309523Y-143697904D01*
X102309523Y-144459809D02*
X102385714Y-144497904D01*
X102538095Y-144497904D01*
X102614285Y-144459809D01*
X102652380Y-144421714D01*
X102690476Y-144345523D01*
X102690476Y-144116952D01*
X102652380Y-144040761D01*
X102614285Y-144002666D01*
X102538095Y-143964571D01*
X102385714Y-143964571D01*
X102309523Y-144002666D01*
X101585714Y-143964571D02*
X101585714Y-144612190D01*
X101623809Y-144688380D01*
X101661904Y-144726476D01*
X101738095Y-144764571D01*
X101852380Y-144764571D01*
X101928571Y-144726476D01*
X101585714Y-144459809D02*
X101661904Y-144497904D01*
X101814285Y-144497904D01*
X101890476Y-144459809D01*
X101928571Y-144421714D01*
X101966666Y-144345523D01*
X101966666Y-144116952D01*
X101928571Y-144040761D01*
X101890476Y-144002666D01*
X101814285Y-143964571D01*
X101661904Y-143964571D01*
X101585714Y-144002666D01*
X100900000Y-144459809D02*
X100976190Y-144497904D01*
X101128571Y-144497904D01*
X101204761Y-144459809D01*
X101242857Y-144383619D01*
X101242857Y-144078857D01*
X101204761Y-144002666D01*
X101128571Y-143964571D01*
X100976190Y-143964571D01*
X100900000Y-144002666D01*
X100861904Y-144078857D01*
X100861904Y-144155047D01*
X101242857Y-144231238D01*
X106480952Y-144985904D02*
X106214285Y-145785904D01*
X105947619Y-144985904D01*
X104919047Y-144985904D02*
X104842857Y-144985904D01*
X104766666Y-145024000D01*
X104728571Y-145062095D01*
X104690476Y-145138285D01*
X104652380Y-145290666D01*
X104652380Y-145481142D01*
X104690476Y-145633523D01*
X104728571Y-145709714D01*
X104766666Y-145747809D01*
X104842857Y-145785904D01*
X104919047Y-145785904D01*
X104995238Y-145747809D01*
X105033333Y-145709714D01*
X105071428Y-145633523D01*
X105109523Y-145481142D01*
X105109523Y-145290666D01*
X105071428Y-145138285D01*
X105033333Y-145062095D01*
X104995238Y-145024000D01*
X104919047Y-144985904D01*
X104157142Y-144985904D02*
X104080952Y-144985904D01*
X104004761Y-145024000D01*
X103966666Y-145062095D01*
X103928571Y-145138285D01*
X103890476Y-145290666D01*
X103890476Y-145481142D01*
X103928571Y-145633523D01*
X103966666Y-145709714D01*
X104004761Y-145747809D01*
X104080952Y-145785904D01*
X104157142Y-145785904D01*
X104233333Y-145747809D01*
X104271428Y-145709714D01*
X104309523Y-145633523D01*
X104347619Y-145481142D01*
X104347619Y-145290666D01*
X104309523Y-145138285D01*
X104271428Y-145062095D01*
X104233333Y-145024000D01*
X104157142Y-144985904D01*
X102595238Y-145252571D02*
X102595238Y-145785904D01*
X102785714Y-144947809D02*
X102976190Y-145519238D01*
X102480952Y-145519238D01*
X102252380Y-144985904D02*
X101757142Y-144985904D01*
X102023809Y-145290666D01*
X101909523Y-145290666D01*
X101833333Y-145328761D01*
X101795238Y-145366857D01*
X101757142Y-145443047D01*
X101757142Y-145633523D01*
X101795238Y-145709714D01*
X101833333Y-145747809D01*
X101909523Y-145785904D01*
X102138095Y-145785904D01*
X102214285Y-145747809D01*
X102252380Y-145709714D01*
X101490476Y-144985904D02*
X100995238Y-144985904D01*
X101261904Y-145290666D01*
X101147619Y-145290666D01*
X101071428Y-145328761D01*
X101033333Y-145366857D01*
X100995238Y-145443047D01*
X100995238Y-145633523D01*
X101033333Y-145709714D01*
X101071428Y-145747809D01*
X101147619Y-145785904D01*
X101376190Y-145785904D01*
X101452380Y-145747809D01*
X101490476Y-145709714D01*
%LPC*%
D11*
X110650000Y-109200000D03*
D12*
X137890000Y-143196000D03*
X132110000Y-143196000D03*
D13*
X130680000Y-142666000D03*
D14*
X139320000Y-146846000D03*
X130680000Y-146846000D03*
D13*
X139320000Y-142666000D03*
D15*
X145350000Y-103548000D03*
X145350000Y-80348000D03*
X124650000Y-80348000D03*
X124650000Y-103548000D03*
D16*
X131190000Y-79998000D03*
X133730000Y-79998000D03*
X136270000Y-79998000D03*
X138810000Y-79998000D03*
D17*
X131137000Y-97898000D03*
X133677000Y-97898000D03*
X136323000Y-97898000D03*
X138863000Y-97898000D03*
D18*
X121500000Y-72600000D03*
D19*
X118960000Y-72600000D03*
X116420000Y-72600000D03*
D20*
X109000000Y-74800000D03*
M02*
