G75*
G70*
%OFA0B0*%
%FSLAX24Y24*%
%IPPOS*%
%LPD*%
%AMOC8*
5,1,8,0,0,1.08239X$1,22.5*
%
%ADD10C,0.1020*%
%ADD11R,0.0680X0.0330*%
%ADD12R,0.0480X0.0580*%
%ADD13R,0.0580X0.0480*%
%ADD14R,0.0730X0.0730*%
%ADD15C,0.0780*%
%ADD16R,0.2180X0.0480*%
%ADD17R,0.0680X0.0360*%
%ADD18C,0.0595*%
%ADD19R,0.0630X0.0680*%
%ADD20R,0.0680X0.0630*%
D10*
X002571Y005351D03*
X022481Y001221D03*
X022481Y013331D03*
D11*
X020226Y005726D03*
X020226Y005226D03*
X020226Y004726D03*
X020226Y004226D03*
X018226Y004226D03*
X018226Y004726D03*
X018226Y005226D03*
X018226Y005726D03*
X015976Y005726D03*
X015976Y005226D03*
X015976Y004726D03*
X015976Y004226D03*
X013976Y004226D03*
X013976Y004726D03*
X013976Y005226D03*
X013976Y005726D03*
D12*
X012476Y005726D03*
X011726Y005726D03*
X011726Y004976D03*
X012476Y004976D03*
X016701Y004951D03*
X017501Y004951D03*
X017101Y005751D03*
X017851Y003601D03*
X018601Y003601D03*
X021601Y011851D03*
X022351Y011851D03*
D13*
X022601Y005851D03*
X022601Y005101D03*
X016726Y003976D03*
X016726Y003226D03*
X013226Y004976D03*
X013226Y005726D03*
D14*
X022601Y006726D03*
X022601Y007976D03*
D15*
X021351Y007101D03*
X021351Y006101D03*
X021351Y005101D03*
X021351Y004101D03*
X021351Y003101D03*
X021351Y002101D03*
D16*
X021601Y010476D03*
D17*
X022351Y009876D03*
X020851Y009876D03*
X020851Y011076D03*
X022351Y011076D03*
D18*
X019601Y012438D02*
X019601Y012953D01*
X019601Y008953D02*
X019601Y008438D01*
D19*
X020851Y011926D03*
X020851Y013026D03*
D20*
X020926Y009101D03*
X022026Y009101D03*
M02*
