%
M48
M72
T01C0.0200
T02C0.0236
T03C0.0315
T04C0.0433
T05C0.0940
%
T01
X110Y55
X190Y55
X270Y55
X350Y55
X430Y55
X510Y55
X590Y55
X670Y55
X750Y55
X830Y55
X910Y55
X990Y55
X1070Y55
X1150Y55
X1230Y55
X1310Y55
X1270Y215
X1190Y215
X1110Y215
X1030Y215
X950Y215
X870Y215
X790Y215
X710Y215
X630Y215
X550Y215
X470Y215
X390Y215
X310Y215
X230Y215
X150Y215
X70Y215
T02
X1123Y498
X1123Y573
X1335Y435
X1460Y423
X1535Y423
X1723Y323
X1735Y435
X1910Y360
X2285Y910
X2010Y1035
X2160Y1098
T03
X1960Y1270
X1960Y870
T04
X2135Y710
X2135Y610
X2135Y510
X2135Y410
X2135Y310
X2135Y210
T05
X2248Y122
X2248Y1333
X257Y535
M30
