G75*
G70*
%OFA0B0*%
%FSLAX24Y24*%
%IPPOS*%
%LPD*%
%AMOC8*
5,1,8,0,0,1.08239X$1,22.5*
%
%ADD10R,0.0600X0.0250*%
%ADD11R,0.0400X0.0500*%
%ADD12C,0.0400*%
%ADD13C,0.0400*%
%ADD14R,0.0500X0.0400*%
%ADD15R,0.0650X0.0650*%
%ADD16C,0.0700*%
%ADD17R,0.2100X0.0400*%
%ADD18R,0.0600X0.0280*%
%ADD19C,0.0515*%
%ADD20R,0.0550X0.0600*%
%ADD21R,0.0600X0.0550*%
%ADD22C,0.0120*%
%ADD23C,0.0436*%
%ADD24C,0.0150*%
D10*
X013976Y004226D03*
X013976Y004726D03*
X013976Y005226D03*
X013976Y005726D03*
X015976Y005726D03*
X015976Y005226D03*
X015976Y004726D03*
X015976Y004226D03*
X018226Y004226D03*
X018226Y004726D03*
X018226Y005226D03*
X018226Y005726D03*
X020226Y005726D03*
X020226Y005226D03*
X020226Y004726D03*
X020226Y004226D03*
D11*
X018601Y003601D03*
X017851Y003601D03*
X017501Y004951D03*
X016701Y004951D03*
X017101Y005751D03*
X012476Y005726D03*
X011726Y005726D03*
X011726Y004976D03*
X012476Y004976D03*
X021601Y011851D03*
X022351Y011851D03*
D12*
X001101Y000551D03*
X001901Y000551D03*
X002701Y000551D03*
X003501Y000551D03*
X004301Y000551D03*
X005101Y000551D03*
X005901Y000551D03*
X006701Y000551D03*
X007501Y000551D03*
X008301Y000551D03*
X009101Y000551D03*
X009901Y000551D03*
X010701Y000551D03*
X011501Y000551D03*
X012301Y000551D03*
X013101Y000551D03*
X012701Y002151D03*
X011901Y002151D03*
X011101Y002151D03*
X010301Y002151D03*
X009501Y002151D03*
X008701Y002151D03*
X007901Y002151D03*
X007101Y002151D03*
X006301Y002151D03*
X005501Y002151D03*
X004701Y002151D03*
X003901Y002151D03*
X003101Y002151D03*
X002301Y002151D03*
X001501Y002151D03*
X000701Y002151D03*
D13*
X001101Y000551D01*
X001901Y000551D02*
X001501Y002151D01*
X002301Y002151D02*
X002701Y000551D01*
X003501Y000551D02*
X003101Y002151D01*
X003901Y002151D02*
X004301Y000551D01*
X005101Y000551D02*
X004701Y002151D01*
X005501Y002151D02*
X005901Y000551D01*
X006701Y000551D02*
X006301Y002151D01*
X007101Y002151D02*
X007501Y000551D01*
X008301Y000551D02*
X007901Y002151D01*
X008701Y002151D02*
X009101Y000551D01*
X009901Y000551D02*
X009501Y002151D01*
X010301Y002151D02*
X010701Y000551D01*
X011501Y000551D02*
X011101Y002151D01*
X011901Y002151D02*
X012301Y000551D01*
X013101Y000551D02*
X012701Y002151D01*
D14*
X016726Y003226D03*
X016726Y003976D03*
X013226Y004976D03*
X013226Y005726D03*
X022601Y005851D03*
X022601Y005101D03*
D15*
X022601Y006726D03*
X022601Y007976D03*
D16*
X021351Y007101D03*
X021351Y006101D03*
X021351Y005101D03*
X021351Y004101D03*
X021351Y003101D03*
X021351Y002101D03*
D17*
X021601Y010476D03*
D18*
X022351Y009876D03*
X020851Y009876D03*
X020851Y011076D03*
X022351Y011076D03*
D19*
X019601Y012438D02*
X019601Y012953D01*
X019601Y008953D02*
X019601Y008438D01*
D20*
X020851Y011926D03*
X020851Y013026D03*
D21*
X020926Y009101D03*
X022026Y009101D03*
D22*
X022851Y009101D01*
X022626Y009876D02*
X022351Y009876D01*
X020926Y009101D02*
X020851Y009176D01*
X020101Y010351D02*
X020101Y010851D01*
X020326Y011076D01*
X020851Y011076D01*
X020851Y011926D01*
X021601Y011851D02*
X021601Y011601D01*
X022126Y011076D01*
X022351Y011076D01*
X020526Y013026D02*
X020196Y012696D01*
X019601Y012696D01*
X020526Y013026D02*
X020851Y013026D01*
X022226Y007976D02*
X022601Y007976D01*
X022226Y007976D02*
X021976Y007726D01*
X021976Y006976D01*
X021601Y006601D01*
X021101Y006601D01*
X020851Y006351D01*
X020851Y005976D01*
X020601Y005726D01*
X020226Y005726D01*
X019851Y006101D02*
X020851Y007101D01*
X021351Y007101D01*
X022601Y006726D02*
X022601Y005851D01*
X022601Y005101D02*
X022351Y005101D01*
X021351Y004101D01*
X020976Y004101D01*
X020851Y004226D01*
X020226Y004226D01*
X020226Y004726D02*
X020976Y004726D01*
X021351Y005101D01*
X020851Y005351D02*
X020851Y005601D01*
X021351Y006101D01*
X020851Y005351D02*
X020726Y005226D01*
X020226Y005226D01*
X019476Y004851D02*
X018601Y005726D01*
X018226Y005726D01*
X017726Y005851D02*
X017726Y005476D01*
X017976Y005226D01*
X018226Y005226D01*
X017751Y004951D02*
X017501Y004951D01*
X017751Y004951D02*
X017976Y004726D01*
X018226Y004726D01*
X018226Y004226D02*
X018226Y003976D01*
X017976Y003726D01*
X017851Y003601D01*
X017226Y003226D02*
X016726Y003226D01*
X016726Y003976D02*
X016726Y004226D01*
X016226Y004726D01*
X015976Y004726D01*
X015976Y005226D02*
X016226Y005226D01*
X016726Y005726D01*
X016976Y005726D01*
X017001Y005751D01*
X017101Y005751D01*
X017076Y005726D02*
X016976Y005726D01*
X017476Y006101D02*
X017726Y005851D01*
X017726Y005976D01*
X017851Y006101D01*
X019851Y006101D01*
X019476Y004851D02*
X019476Y003851D01*
X019726Y003601D01*
X021601Y003601D01*
X021976Y003226D01*
X021976Y002726D01*
X021351Y002101D01*
X019101Y003601D02*
X018601Y003601D01*
X017351Y004351D02*
X017101Y004351D01*
X016701Y004751D01*
X016701Y004951D01*
X016351Y005726D02*
X015976Y005726D01*
X016351Y005726D02*
X016851Y006226D01*
X017351Y006226D01*
X017476Y006101D01*
X017601Y006101D01*
X017726Y005976D01*
X017726Y006101D01*
X017851Y006101D01*
X017726Y006101D02*
X017601Y006101D01*
X015976Y004226D02*
X015351Y004226D01*
X014601Y004226D02*
X013976Y004226D01*
X013726Y004726D02*
X013351Y004351D01*
X013726Y004726D02*
X013976Y004726D01*
X013601Y005226D02*
X013351Y004976D01*
X013226Y004976D01*
X012476Y004976D01*
X011726Y004976D02*
X011226Y004976D01*
X011226Y005726D02*
X011726Y005726D01*
X012476Y005726D02*
X013101Y005726D01*
X013226Y005726D01*
X013976Y005726D01*
X013976Y005226D02*
X013601Y005226D01*
D23*
X013351Y004351D03*
X014601Y004226D03*
X015351Y004226D03*
X017226Y003226D03*
X017351Y004351D03*
X019101Y003601D03*
X011226Y004976D03*
X011226Y005726D03*
X020101Y010351D03*
X021601Y010976D03*
X022851Y009101D03*
D24*
X022626Y009876D02*
X022851Y010101D01*
X022851Y011601D01*
X022601Y011851D01*
X022351Y011851D01*
X021601Y010976D02*
X021601Y010476D01*
X020851Y009876D02*
X022351Y009876D01*
X020926Y009101D02*
X020351Y009101D01*
X019946Y008696D01*
X019601Y008696D01*
X020851Y009176D02*
X020851Y009876D01*
X014976Y004601D02*
X014351Y005226D01*
X013976Y005226D01*
X014976Y004601D02*
X014976Y003976D01*
X015351Y003601D01*
X017851Y003601D01*
X017851Y003226D01*
X017976Y003101D01*
X021351Y003101D01*
M02*
