M48
; DRILL file {KiCad 6.0.11-2627ca5db0~126~ubuntu20.04.1} date lun 08 may 2023 13:03:05
; FORMAT={-:-/ absolute / metric / decimal}
; #@! TF.CreationDate,2023-05-08T13:03:05-05:00
; #@! TF.GenerationSoftware,Kicad,Pcbnew,6.0.11-2627ca5db0~126~ubuntu20.04.1
; #@! TF.FileFunction,Plated,1,2,PTH
FMAT,2
METRIC
; #@! TA.AperFunction,Plated,PTH,ViaDrill
T1C0.400
; #@! TA.AperFunction,Plated,PTH,ComponentDrill
T2C0.500
; #@! TA.AperFunction,Plated,PTH,ComponentDrill
T3C0.508
; #@! TA.AperFunction,Plated,PTH,ComponentDrill
T4C0.600
; #@! TA.AperFunction,Plated,PTH,ComponentDrill
T5C0.762
; #@! TA.AperFunction,Plated,PTH,ComponentDrill
T6C0.900
; #@! TA.AperFunction,Plated,PTH,ComponentDrill
T7C1.000
; #@! TA.AperFunction,Plated,PTH,ComponentDrill
T8C4.220
%
G90
G05
T1
X101.505Y-86.511
X101.905Y-101.749
X102.5Y-70.6
X102.5Y-71.8
X102.5Y-73.2
X103.7Y-73.4
X104.14Y-83.751
X104.6Y-74.3
X104.6Y-75.6
X104.6Y-76.8
X104.6Y-78.0
X104.6Y-79.2
X105.2Y-83.751
X105.8Y-79.6
X105.8Y-86.36
X106.0Y-80.8
X106.0Y-82.0
X106.0Y-83.1
X106.046Y-93.8
X106.772Y-141.286
X106.985Y-92.934
X107.0Y-86.36
X107.2Y-70.6
X107.4Y-71.8
X107.5Y-73.0
X108.1Y-85.6
X108.8Y-80.9
X108.8Y-82.1
X108.8Y-83.3
X108.8Y-84.5
X109.1Y-71.8
X109.1Y-73.0
X109.229Y-136.724
X109.3Y-79.7
X109.8Y-70.6
X110.058Y-86.919
X110.2Y-77.6
X110.2Y-78.8
X110.5Y-76.4
X111.3Y-75.7
X111.725Y-114.177
X111.76Y-137.16
X112.486Y-107.42
X112.5Y-69.7
X112.5Y-75.7
X113.7Y-69.7
X113.7Y-75.7
X114.214Y-148.873
X114.3Y-70.8
X114.3Y-72.0
X114.3Y-73.2
X114.3Y-74.4
X114.435Y-133.659
X116.667Y-122.824
X116.84Y-134.62
X116.909Y-86.1
X116.942Y-129.04
X116.945Y-140.822
X117.25Y-98.072
X117.957Y-123.448
X120.475Y-102.603
X121.662Y-89.394
X121.92Y-148.5
X122.16Y-141.328
X124.46Y-127.0
X125.816Y-137.063
X127.0Y-124.6
X127.0Y-137.16
X129.052Y-90.82
X129.115Y-93.793
X129.54Y-85.5
X129.54Y-139.7
X130.308Y-92.967
X132.08Y-81.8
X132.08Y-134.62
X133.742Y-87.61
X134.3Y-71.641
X134.7Y-139.782
X134.75Y-144.65
X136.415Y-143.256
X137.534Y-132.943
X140.0Y-103.0
X140.894Y-76.376
X141.009Y-87.137
X142.24Y-126.3
X143.278Y-72.336
X143.425Y-92.967
X143.85Y-69.107
X144.272Y-132.588
X144.288Y-71.273
X144.611Y-130.084
X144.75Y-139.819
X144.75Y-148.077
X147.116Y-86.393
X147.357Y-73.14
X148.247Y-75.84
X148.34Y-83.34
X148.533Y-74.251
X149.053Y-134.955
X149.86Y-129.54
X150.927Y-87.646
X152.0Y-96.52
X152.158Y-77.987
X152.161Y-76.524
X152.227Y-81.772
X152.55Y-133.745
X152.55Y-148.077
X152.632Y-80.644
X152.944Y-70.649
X153.691Y-80.656
X153.755Y-87.631
X154.94Y-148.5
X156.45Y-72.065
X156.611Y-91.849
X157.25Y-100.118
X157.984Y-133.745
X158.0Y-75.345
X160.02Y-81.28
X160.02Y-114.3
X160.09Y-148.077
X160.364Y-71.306
X161.368Y-83.218
X161.624Y-78.45
X162.54Y-81.857
X162.56Y-73.66
X162.801Y-77.679
X163.124Y-80.213
X163.463Y-96.968
X163.775Y-80.972
X164.25Y-118.159
X164.268Y-79.839
X165.1Y-67.0
X165.651Y-78.222
X165.735Y-73.438
X165.896Y-80.129
X167.307Y-101.749
X167.64Y-88.9
X167.64Y-99.06
X168.0Y-148.5
X168.23Y-144.367
X169.245Y-67.547
X169.245Y-73.198
X169.245Y-80.862
X169.245Y-83.235
T2
X109.0Y-74.8
T3
X107.152Y-60.868
X108.168Y-64.932
X109.184Y-60.868
X110.2Y-64.932
X111.216Y-60.868
X112.232Y-64.932
X113.248Y-60.868
X114.264Y-64.932
X115.28Y-60.868
X116.296Y-64.932
X117.312Y-60.868
X118.328Y-64.932
X119.344Y-60.868
X120.36Y-64.932
X121.376Y-60.868
X122.392Y-64.932
X123.408Y-60.868
X124.424Y-64.932
X125.44Y-60.868
X126.456Y-64.932
X127.472Y-60.868
X128.488Y-64.932
X129.504Y-60.868
X130.52Y-64.932
X131.536Y-60.868
X132.552Y-64.932
X133.568Y-60.868
X134.584Y-64.932
X135.6Y-60.868
X136.616Y-64.932
X137.632Y-60.868
X138.648Y-64.932
T5
X131.137Y-97.898
X133.677Y-97.898
X136.323Y-97.898
X138.863Y-97.898
T6
X116.42Y-72.6
X118.96Y-72.6
X121.5Y-72.6
T7
X131.19Y-79.998
X133.73Y-79.998
X136.27Y-79.998
X138.81Y-79.998
T8
X124.65Y-80.348
X124.65Y-103.548
X145.35Y-80.348
X145.35Y-103.548
T4
G00X130.68Y-142.116
M15
G01X130.68Y-143.216
M16
G05
G00X130.68Y-146.546
M15
G01X130.68Y-147.146
M16
G05
G00X139.32Y-142.116
M15
G01X139.32Y-143.216
M16
G05
G00X139.32Y-146.546
M15
G01X139.32Y-147.146
M16
G05
T0
M30
