G04 #@! TF.GenerationSoftware,KiCad,Pcbnew,6.0.11-2627ca5db0~126~ubuntu20.04.1*
G04 #@! TF.CreationDate,2023-05-06T23:23:21-05:00*
G04 #@! TF.ProjectId,iot-badge,696f742d-6261-4646-9765-2e6b69636164,rev?*
G04 #@! TF.SameCoordinates,Original*
G04 #@! TF.FileFunction,Legend,Bot*
G04 #@! TF.FilePolarity,Positive*
%FSLAX46Y46*%
G04 Gerber Fmt 4.6, Leading zero omitted, Abs format (unit mm)*
G04 Created by KiCad (PCBNEW 6.0.11-2627ca5db0~126~ubuntu20.04.1) date 2023-05-06 23:23:21*
%MOMM*%
%LPD*%
G01*
G04 APERTURE LIST*
G04 Aperture macros list*
%AMRoundRect*
0 Rectangle with rounded corners*
0 $1 Rounding radius*
0 $2 $3 $4 $5 $6 $7 $8 $9 X,Y pos of 4 corners*
0 Add a 4 corners polygon primitive as box body*
4,1,4,$2,$3,$4,$5,$6,$7,$8,$9,$2,$3,0*
0 Add four circle primitives for the rounded corners*
1,1,$1+$1,$2,$3*
1,1,$1+$1,$4,$5*
1,1,$1+$1,$6,$7*
1,1,$1+$1,$8,$9*
0 Add four rect primitives between the rounded corners*
20,1,$1+$1,$2,$3,$4,$5,0*
20,1,$1+$1,$4,$5,$6,$7,0*
20,1,$1+$1,$6,$7,$8,$9,0*
20,1,$1+$1,$8,$9,$2,$3,0*%
G04 Aperture macros list end*
%ADD10C,0.150000*%
%ADD11C,1.980000*%
%ADD12C,0.650000*%
%ADD13O,1.000000X2.100000*%
%ADD14O,1.000000X1.600000*%
%ADD15C,6.200000*%
%ADD16C,1.700000*%
%ADD17C,1.524000*%
%ADD18RoundRect,0.248400X0.651600X0.651600X-0.651600X0.651600X-0.651600X-0.651600X0.651600X-0.651600X0*%
%ADD19C,1.800000*%
%ADD20R,0.850000X0.850000*%
G04 APERTURE END LIST*
D10*
X106940000Y-144497904D02*
X106940000Y-143697904D01*
X106444761Y-144497904D02*
X106520952Y-144459809D01*
X106559047Y-144421714D01*
X106597142Y-144345523D01*
X106597142Y-144116952D01*
X106559047Y-144040761D01*
X106520952Y-144002666D01*
X106444761Y-143964571D01*
X106330476Y-143964571D01*
X106254285Y-144002666D01*
X106216190Y-144040761D01*
X106178095Y-144116952D01*
X106178095Y-144345523D01*
X106216190Y-144421714D01*
X106254285Y-144459809D01*
X106330476Y-144497904D01*
X106444761Y-144497904D01*
X105949523Y-143697904D02*
X105492380Y-143697904D01*
X105720952Y-144497904D02*
X105720952Y-143697904D01*
X104349523Y-144078857D02*
X104235238Y-144116952D01*
X104197142Y-144155047D01*
X104159047Y-144231238D01*
X104159047Y-144345523D01*
X104197142Y-144421714D01*
X104235238Y-144459809D01*
X104311428Y-144497904D01*
X104616190Y-144497904D01*
X104616190Y-143697904D01*
X104349523Y-143697904D01*
X104273333Y-143736000D01*
X104235238Y-143774095D01*
X104197142Y-143850285D01*
X104197142Y-143926476D01*
X104235238Y-144002666D01*
X104273333Y-144040761D01*
X104349523Y-144078857D01*
X104616190Y-144078857D01*
X103473333Y-144497904D02*
X103473333Y-144078857D01*
X103511428Y-144002666D01*
X103587619Y-143964571D01*
X103740000Y-143964571D01*
X103816190Y-144002666D01*
X103473333Y-144459809D02*
X103549523Y-144497904D01*
X103740000Y-144497904D01*
X103816190Y-144459809D01*
X103854285Y-144383619D01*
X103854285Y-144307428D01*
X103816190Y-144231238D01*
X103740000Y-144193142D01*
X103549523Y-144193142D01*
X103473333Y-144155047D01*
X102749523Y-144497904D02*
X102749523Y-143697904D01*
X102749523Y-144459809D02*
X102825714Y-144497904D01*
X102978095Y-144497904D01*
X103054285Y-144459809D01*
X103092380Y-144421714D01*
X103130476Y-144345523D01*
X103130476Y-144116952D01*
X103092380Y-144040761D01*
X103054285Y-144002666D01*
X102978095Y-143964571D01*
X102825714Y-143964571D01*
X102749523Y-144002666D01*
X102025714Y-143964571D02*
X102025714Y-144612190D01*
X102063809Y-144688380D01*
X102101904Y-144726476D01*
X102178095Y-144764571D01*
X102292380Y-144764571D01*
X102368571Y-144726476D01*
X102025714Y-144459809D02*
X102101904Y-144497904D01*
X102254285Y-144497904D01*
X102330476Y-144459809D01*
X102368571Y-144421714D01*
X102406666Y-144345523D01*
X102406666Y-144116952D01*
X102368571Y-144040761D01*
X102330476Y-144002666D01*
X102254285Y-143964571D01*
X102101904Y-143964571D01*
X102025714Y-144002666D01*
X101340000Y-144459809D02*
X101416190Y-144497904D01*
X101568571Y-144497904D01*
X101644761Y-144459809D01*
X101682857Y-144383619D01*
X101682857Y-144078857D01*
X101644761Y-144002666D01*
X101568571Y-143964571D01*
X101416190Y-143964571D01*
X101340000Y-144002666D01*
X101301904Y-144078857D01*
X101301904Y-144155047D01*
X101682857Y-144231238D01*
X105473333Y-144985904D02*
X105206666Y-145785904D01*
X104940000Y-144985904D01*
X103911428Y-144985904D02*
X103835238Y-144985904D01*
X103759047Y-145024000D01*
X103720952Y-145062095D01*
X103682857Y-145138285D01*
X103644761Y-145290666D01*
X103644761Y-145481142D01*
X103682857Y-145633523D01*
X103720952Y-145709714D01*
X103759047Y-145747809D01*
X103835238Y-145785904D01*
X103911428Y-145785904D01*
X103987619Y-145747809D01*
X104025714Y-145709714D01*
X104063809Y-145633523D01*
X104101904Y-145481142D01*
X104101904Y-145290666D01*
X104063809Y-145138285D01*
X104025714Y-145062095D01*
X103987619Y-145024000D01*
X103911428Y-144985904D01*
X103149523Y-144985904D02*
X103073333Y-144985904D01*
X102997142Y-145024000D01*
X102959047Y-145062095D01*
X102920952Y-145138285D01*
X102882857Y-145290666D01*
X102882857Y-145481142D01*
X102920952Y-145633523D01*
X102959047Y-145709714D01*
X102997142Y-145747809D01*
X103073333Y-145785904D01*
X103149523Y-145785904D01*
X103225714Y-145747809D01*
X103263809Y-145709714D01*
X103301904Y-145633523D01*
X103340000Y-145481142D01*
X103340000Y-145290666D01*
X103301904Y-145138285D01*
X103263809Y-145062095D01*
X103225714Y-145024000D01*
X103149523Y-144985904D01*
%LPC*%
D11*
X110650000Y-109200000D03*
D12*
X137890000Y-143196000D03*
X132110000Y-143196000D03*
D13*
X130680000Y-142666000D03*
D14*
X139320000Y-146846000D03*
X130680000Y-146846000D03*
D13*
X139320000Y-142666000D03*
D15*
X145350000Y-103548000D03*
X145350000Y-80348000D03*
X124650000Y-80348000D03*
X124650000Y-103548000D03*
D16*
X131190000Y-79998000D03*
X133730000Y-79998000D03*
X136270000Y-79998000D03*
X138810000Y-79998000D03*
D17*
X131137000Y-97898000D03*
X133677000Y-97898000D03*
X136323000Y-97898000D03*
X138863000Y-97898000D03*
D18*
X121500000Y-72600000D03*
D19*
X118960000Y-72600000D03*
X116420000Y-72600000D03*
D20*
X109000000Y-74800000D03*
M02*
