M48
; DRILL file {KiCad 6.0.11-2627ca5db0~126~ubuntu20.04.1} date jue 31 ago 2023 15:29:52
; FORMAT={-:-/ absolute / metric / decimal}
; #@! TF.CreationDate,2023-08-31T15:29:52-05:00
; #@! TF.GenerationSoftware,Kicad,Pcbnew,6.0.11-2627ca5db0~126~ubuntu20.04.1
; #@! TF.FileFunction,Plated,1,2,PTH
FMAT,2
METRIC
; #@! TA.AperFunction,Plated,PTH,ViaDrill
T1C0.400
; #@! TA.AperFunction,Plated,PTH,ComponentDrill
T2C0.500
; #@! TA.AperFunction,Plated,PTH,ComponentDrill
T3C0.508
; #@! TA.AperFunction,Plated,PTH,ComponentDrill
T4C0.600
; #@! TA.AperFunction,Plated,PTH,ComponentDrill
T5C0.762
; #@! TA.AperFunction,Plated,PTH,ComponentDrill
T6C0.900
; #@! TA.AperFunction,Plated,PTH,ComponentDrill
T7C1.000
; #@! TA.AperFunction,Plated,PTH,ComponentDrill
T8C4.220
%
G90
G05
T1
X101.0Y-73.2
X101.0Y-74.3
X101.0Y-75.6
X101.0Y-76.8
X101.3Y-71.8
X101.5Y-70.6
X101.505Y-86.511
X101.905Y-101.749
X102.108Y-83.82
X102.108Y-85.344
X102.3Y-77.4
X102.9Y-70.6
X103.6Y-77.6
X103.6Y-78.8
X103.632Y-83.1
X104.6Y-79.6
X104.648Y-70.6
X105.0Y-80.8
X105.0Y-82.0
X105.0Y-83.1
X105.8Y-86.36
X106.046Y-93.8
X106.4Y-71.8
X106.6Y-85.6
X106.772Y-141.286
X106.985Y-92.934
X107.1Y-70.6
X107.3Y-84.5
X107.65Y-73.0
X107.696Y-71.8
X107.8Y-80.8
X107.8Y-82.0
X107.8Y-83.1
X107.9Y-74.676
X108.0Y-76.2
X108.2Y-79.6
X108.4Y-70.6
X109.2Y-78.8
X109.229Y-136.724
X109.728Y-77.8
X110.058Y-86.919
X110.8Y-77.8
X111.76Y-76.708
X111.76Y-137.16
X112.2Y-75.7
X112.486Y-107.42
X112.5Y-69.7
X112.776Y-114.177
X112.8Y-70.8
X112.8Y-72.0
X112.8Y-73.2
X112.8Y-74.4
X114.214Y-148.873
X114.435Y-133.659
X116.667Y-122.824
X116.84Y-134.62
X116.909Y-86.1
X116.942Y-129.04
X116.945Y-140.822
X117.25Y-98.072
X117.957Y-123.448
X120.475Y-102.603
X120.65Y-123.19
X121.662Y-89.394
X121.92Y-148.5
X122.16Y-141.328
X125.816Y-137.063
X127.0Y-137.16
X128.27Y-127.492
X129.052Y-90.82
X129.115Y-93.793
X129.54Y-85.5
X129.54Y-139.7
X130.308Y-92.967
X130.592Y-125.948
X132.08Y-81.8
X132.08Y-134.62
X133.742Y-87.61
X134.3Y-71.641
X134.7Y-139.782
X134.75Y-144.65
X136.415Y-143.256
X137.534Y-132.943
X140.0Y-103.0
X140.475Y-97.558
X140.894Y-76.376
X141.009Y-87.137
X141.732Y-106.172
X142.24Y-97.536
X142.24Y-126.3
X143.278Y-72.336
X143.425Y-92.967
X143.85Y-69.107
X144.272Y-132.588
X144.288Y-71.273
X144.611Y-130.084
X144.75Y-148.077
X147.357Y-73.14
X147.64Y-85.87
X147.828Y-96.786
X148.247Y-75.84
X148.34Y-83.34
X148.4Y-128.3
X148.533Y-74.251
X148.728Y-92.964
X148.844Y-94.542
X149.053Y-134.955
X150.876Y-100.846
X150.927Y-87.646
X151.13Y-133.745
X151.228Y-97.794
X151.384Y-102.108
X152.158Y-77.987
X152.161Y-76.524
X152.227Y-81.772
X152.4Y-96.012
X152.4Y-138.43
X152.513Y-103.632
X152.55Y-148.077
X152.632Y-80.644
X152.944Y-70.649
X153.67Y-130.81
X153.691Y-80.656
X153.755Y-87.631
X154.94Y-128.27
X154.94Y-135.89
X154.94Y-148.5
X155.448Y-104.14
X156.45Y-72.065
X156.972Y-91.44
X157.25Y-100.118
X158.0Y-75.345
X158.75Y-138.43
X160.02Y-81.28
X160.02Y-114.3
X160.09Y-148.077
X160.364Y-71.306
X161.368Y-83.218
X161.624Y-78.45
X162.54Y-81.857
X162.56Y-73.66
X162.801Y-77.679
X163.124Y-80.213
X163.463Y-96.968
X163.775Y-80.972
X164.25Y-118.159
X164.268Y-79.839
X165.1Y-67.0
X165.651Y-78.222
X165.735Y-73.438
X165.896Y-80.129
X167.307Y-101.749
X167.64Y-88.9
X167.64Y-99.06
X168.0Y-148.5
X168.23Y-144.367
X169.245Y-67.547
X169.245Y-73.198
X169.245Y-80.862
X169.245Y-83.235
T2
X109.95Y-76.3
T3
X107.152Y-60.868
X108.168Y-64.932
X109.184Y-60.868
X110.2Y-64.932
X111.216Y-60.868
X112.232Y-64.932
X113.248Y-60.868
X114.264Y-64.932
X115.28Y-60.868
X116.296Y-64.932
X117.312Y-60.868
X118.328Y-64.932
X119.344Y-60.868
X120.36Y-64.932
X121.376Y-60.868
X122.392Y-64.932
X123.408Y-60.868
X124.424Y-64.932
X125.44Y-60.868
X126.456Y-64.932
X127.472Y-60.868
X128.488Y-64.932
X129.504Y-60.868
X130.52Y-64.932
X131.536Y-60.868
X132.552Y-64.932
X133.568Y-60.868
X134.584Y-64.932
X135.6Y-60.868
X136.616Y-64.932
X137.632Y-60.868
X138.648Y-64.932
T5
X131.137Y-97.898
X133.677Y-97.898
X136.323Y-97.898
X138.863Y-97.898
T6
X114.92Y-72.6
X117.46Y-72.6
X120.0Y-72.6
T7
X131.19Y-77.458
X131.19Y-79.998
X133.73Y-77.458
X133.73Y-79.998
X136.27Y-77.458
X136.27Y-79.998
X138.81Y-77.458
X138.81Y-79.998
T8
X124.65Y-80.348
X124.65Y-103.548
X145.35Y-80.348
X145.35Y-103.548
T4
G00X130.68Y-142.116
M15
G01X130.68Y-143.216
M16
G05
G00X130.68Y-146.546
M15
G01X130.68Y-147.146
M16
G05
G00X139.32Y-142.116
M15
G01X139.32Y-143.216
M16
G05
G00X139.32Y-146.546
M15
G01X139.32Y-147.146
M16
G05
T0
M30
